<?xml version="1.0" standalone="no"?>
<!DOCTYPE svg PUBLIC "-//W3C//DTD SVG 1.1//EN" "http://www.w3.org/Graphics/SVG/1.1/DTD/svg11.dtd" >
<svg xmlns="http://www.w3.org/2000/svg" xmlns:xlink="http://www.w3.org/1999/xlink" version="1.1">
<metadata>
Created by FontForge 20170731 at Mon Jun  7 20:28:02 2021
 By Aleksey,,,
Copyright (c) 2011 by typedepot. All rights reserved.
</metadata>
<defs>
<font id="CentraleSans-XThin" horiz-adv-x="1413" >
  <font-face 
    font-family="Centrale Sans XThin"
    font-weight="400"
    font-stretch="normal"
    units-per-em="2048"
    panose-1="2 0 0 0 0 0 0 0 0 0"
    ascent="1536"
    descent="-512"
    x-height="1065"
    cap-height="1434"
    bbox="-100 -391 2347 1817"
    underline-thickness="102"
    underline-position="-307"
    unicode-range="U+0020-FB04"
  />
<missing-glyph horiz-adv-x="1435" 
d="M1051 -203l-422 776l-422 -776h844zM160 1499h950v-1741h-950v1741zM207 1458l422 -788l420 788h-842zM1071 1407l-420 -786l420 -768v1554zM199 1389v-1520l407 752z" />
    <glyph glyph-name="f_f" unicode="ff" horiz-adv-x="1163" 
d="M772 0h-41v1024h-477v-1024h-41v1024h-125v31l125 10v154q0 147 58.5 222t197.5 75q71 0 133 -19l-6 -39q-66 17 -127 17q-118 0 -166.5 -65.5t-48.5 -190.5v-154h477v174q0 147 58.5 222t197.5 75q75 0 133 -18l-6 -39q-62 16 -127 16q-118 0 -166.5 -65.5t-48.5 -190.5
v-174h332v-41h-332v-1024z" />
    <glyph glyph-name="f_i" unicode="fi" horiz-adv-x="1048" 
d="M829 1442l-20 -35q-142 88 -303 88q-72 0 -123.5 -29.5t-78.5 -79t-38.5 -102t-11.5 -110.5v-109h598v-1065h-41v1024h-557v-1024h-41v1024h-125v31l125 10v129q0 143 78 242.5t213 99.5q175 0 325 -94z" />
    <glyph glyph-name="f_l" unicode="fl" horiz-adv-x="1069" 
d="M889 0q-88 0 -88 111v1063q0 153 -75 237t-204 84t-198.5 -84t-69.5 -235v-111h307v-41h-307v-1024h-41v1024h-125v31l125 10v111q0 173 86.5 266.5t224.5 93.5q139 0 228.5 -97.5t89.5 -271.5v-1065q0 -63 67 -63l62 6v-35q-33 -10 -82 -10z" />
    <glyph glyph-name="f_f_i" unicode="ffi" horiz-adv-x="1515" 
d="M602 1497l-6 -39q-66 17 -127 17q-118 0 -166.5 -65.5t-48.5 -190.5v-154h477v135q0 71 15 129t48 106t91 74.5t137 26.5q168 0 305 -80l-18 -29q-24 12 -47.5 22t-45.5 17t-40.5 12.5t-38.5 8.5t-33 5t-31 2.5t-25.5 0.5h-24h-19.5q-69 -1 -117.5 -29t-72 -74.5
t-33 -93.5t-9.5 -102v-131h547v-1065h-41v1024h-506v-1024h-41v1024h-477v-1024h-41v1024h-125v31l125 10v154q0 147 58.5 222t197.5 75q71 0 133 -19z" />
    <glyph glyph-name="f_f_l" unicode="ffl" horiz-adv-x="1556" 
d="M602 1497l-6 -39q-66 17 -127 17q-118 0 -166.5 -65.5t-48.5 -190.5v-154h446v111q0 172 87 266t225 94q139 0 228 -97.5t89 -271.5v-1065q0 -63 68 -63l61 6v-35q-29 -10 -82 -10q-88 0 -88 111v1063q0 152 -74.5 236.5t-203.5 84.5q-125 0 -197 -88.5t-72 -230.5v-111
h308v-41h-308v-1024h-41v1024h-446v-1024h-41v1024h-125v31l125 10v154q0 147 58.5 222t197.5 75q71 0 133 -19z" />
    <glyph glyph-name=".notdef" horiz-adv-x="1435" 
d="M1051 -203l-422 776l-422 -776h844zM160 1499h950v-1741h-950v1741zM207 1458l422 -788l420 788h-842zM1071 1407l-420 -786l420 -768v1554zM199 1389v-1520l407 752z" />
    <glyph glyph-name=".null" horiz-adv-x="0" 
 />
    <glyph glyph-name="nonmarkingreturn" horiz-adv-x="682" 
 />
    <glyph glyph-name="space" unicode=" " horiz-adv-x="542" 
 />
    <glyph glyph-name="exclam" unicode="!" horiz-adv-x="479" 
d="M211 1434h57l-14 -1082h-31zM242 86q24 0 38.5 -14.5t14.5 -38.5q0 -22 -14.5 -35.5t-38.5 -13.5q-23 0 -37.5 13.5t-14.5 35.5q0 25 14 39t38 14z" />
    <glyph glyph-name="quotedbl" unicode="&#x22;" horiz-adv-x="620" 
d="M195 1434h55l-80 -445h-12zM434 1434h55l-79 -445h-13z" />
    <glyph glyph-name="numbersign" unicode="#" horiz-adv-x="1574" 
d="M627 1434h39l-68 -377h506l70 377h40l-69 -377h301l-8 -41h-299l-109 -619h307l-6 -39h-309l-68 -358h-39l66 358h-506l-67 -358h-41l67 358h-309l8 39h307l109 619h-307l6 41h309zM590 1016l-109 -619h508l109 619h-508z" />
    <glyph glyph-name="dollar" unicode="$" horiz-adv-x="1169" 
d="M610 -156h-39v146q-224 8 -432 110l17 37q221 -106 450 -106q194 0 299 82.5t105 238.5q0 74 -29.5 131t-79 92.5t-114 63t-135.5 48.5t-142 42.5t-135.5 51t-114 69t-79 101.5t-29.5 143q0 158 110 252t309 98v162h39v-162q109 -3 210 -29.5t163 -54.5l-16 -37
q-20 9 -55 22.5t-134.5 35.5t-187.5 22q-84 0 -155.5 -18t-127.5 -53.5t-87.5 -95.5t-31.5 -138q0 -95 47.5 -162t123.5 -104t167.5 -66t183.5 -58.5t168 -69.5t123.5 -111.5t47.5 -172.5q0 -171 -118 -266.5t-321 -97.5v-146z" />
    <glyph glyph-name="percent" unicode="%" horiz-adv-x="1626" 
d="M436 748q-138 0 -224.5 99t-86.5 247q0 150 86.5 250t224.5 100q139 0 225.5 -100t86.5 -250q0 -149 -86.5 -247.5t-225.5 -98.5zM369 0l825 1434h55l-827 -1434h-53zM1192 -10q-139 0 -225 98.5t-86 247.5q0 150 86 250t225 100t225 -100t86 -250q0 -149 -86 -247.5
t-225 -98.5zM438 786q120 0 192 87t72 219q0 134 -74 223.5t-194 89.5q-119 0 -191.5 -88t-72.5 -221q0 -132 74.5 -221t193.5 -89zM1194 29q120 0 192 86.5t72 218.5q0 134 -74 223.5t-194 89.5q-121 0 -193.5 -88t-72.5 -221q0 -132 74.5 -220.5t195.5 -88.5z" />
    <glyph glyph-name="ampersand" unicode="&#x26;" horiz-adv-x="1277" 
d="M561 1434q120 0 209.5 -77.5t89.5 -199.5q0 -49 -22.5 -96t-53.5 -81t-81 -70t-87 -57t-90 -48l480 -531q8 12 19 35t30 94t20 142h41q0 -77 -20.5 -153t-41.5 -113l-20 -37l203 -242h-47l-182 215q-188 -215 -451 -215q-74 0 -151 28t-141 76.5t-105 123t-41 159.5
q0 73 25 134.5t76 113t107 91t140 87.5q-17 22 -65.5 77t-70.5 83.5t-43.5 78t-21.5 97.5q0 124 88 204.5t207 80.5zM492 784q-164 -87 -248 -178t-84 -219q0 -74 36.5 -140t94.5 -110.5t128 -70t138 -25.5q131 0 231 50.5t189 150.5zM561 1393q-106 0 -180 -68t-74 -176
q0 -34 12.5 -69.5t25.5 -60t47 -65.5t49 -57t61 -63q55 29 90 48.5t83 53.5t75.5 64t48 71.5t20.5 85.5q0 108 -76.5 172t-181.5 64z" />
    <glyph glyph-name="quotesingle" unicode="'" horiz-adv-x="382" 
d="M201 1434h55l-88 -445h-12z" />
    <glyph glyph-name="parenleft" unicode="(" horiz-adv-x="649" 
d="M555 1421l23 -26q-64 -56 -110.5 -103t-107 -127t-99 -160.5t-66 -194t-27.5 -237.5q0 -90 14.5 -173.5t36.5 -149.5t58.5 -131t68.5 -110.5t79 -96.5t79 -81t78 -71l-27 -34q-81 63 -153 143.5t-137.5 186.5t-104.5 240t-39 277t39 277.5t104.5 240.5t137.5 187t153 143
z" />
    <glyph glyph-name="parenright" unicode=")" horiz-adv-x="651" 
d="M94 1421q81 -62 153 -143t137.5 -187t104.5 -240.5t39 -277.5t-39 -277t-104.5 -240t-137.5 -186.5t-153 -143.5l-26 34q66 59 110.5 102.5t107.5 124t101 158.5t66 191t28 237q0 104 -17.5 199t-51 173.5t-70.5 142.5t-88.5 123.5t-90.5 98.5t-91 85z" />
    <glyph glyph-name="asterisk" unicode="*" horiz-adv-x="876" 
d="M416 934l12 287l-242 -156l-24 39l258 133l-258 133l24 39l242 -156l-12 287h45l-12 -287l241 156l25 -39l-258 -133l258 -133l-25 -39l-241 156l12 -287h-45z" />
    <glyph glyph-name="plus" unicode="+" horiz-adv-x="1054" 
d="M506 1024h43v-365h364v-43h-364v-364h-43v364h-365v43h365v365z" />
    <glyph glyph-name="comma" unicode="," horiz-adv-x="485" 
d="M236 113q42 0 67 -40.5t25 -84.5q0 -66 -47.5 -120t-114.5 -85l-10 18q63 37 100.5 102t7.5 124q-12 -27 -47 -27q-28 0 -38.5 17t-10.5 34q0 27 22.5 44.5t45.5 17.5z" />
    <glyph glyph-name="hyphen" unicode="-" horiz-adv-x="1050" 
d="M168 659h715v-43h-715v43z" />
    <glyph glyph-name="period" unicode="." horiz-adv-x="464" 
d="M231 127q28 0 47 -19t19 -47q0 -26 -19 -43.5t-47 -17.5q-26 0 -44.5 18t-18.5 43q0 28 18.5 47t44.5 19z" />
    <glyph glyph-name="slash" unicode="/" horiz-adv-x="987" 
d="M840 1499h45l-738 -1565h-47z" />
    <glyph glyph-name="zero" unicode="0" horiz-adv-x="1417" 
d="M707 -10q-128 0 -234.5 59t-175.5 159t-107 231t-38 278q0 146 37.5 277t107 231.5t176 159.5t236.5 59q129 0 235.5 -58.5t176 -159t107.5 -231t38 -276.5q0 -147 -38 -278.5t-107.5 -232t-176.5 -159.5t-237 -59zM711 31q119 0 217.5 56t162 150.5t98 217.5t34.5 260
q0 136 -35 259.5t-99 219.5t-163 152.5t-219 56.5q-119 0 -217.5 -55.5t-162 -150.5t-98 -218.5t-34.5 -261.5q0 -135 35 -258t99 -219t163 -152.5t219 -56.5z" />
    <glyph glyph-name="one" unicode="1" horiz-adv-x="587" 
d="M88 1300l229 134h35v-1434h-41v1380l-2 2l-203 -114z" />
    <glyph glyph-name="two" unicode="2" horiz-adv-x="1107" 
d="M150 1335q61 39 157.5 74t188.5 35q185 0 308.5 -109t123.5 -286q0 -66 -25.5 -138.5t-57 -126.5t-83 -117.5t-78.5 -91.5t-68 -69l-10 -10l-459 -455h820v-41h-883v35l491 489q312 312 312 523q0 162 -112.5 259t-287.5 97q-83 0 -173 -30.5t-148 -65.5z" />
    <glyph glyph-name="three" unicode="3" horiz-adv-x="1120" 
d="M178 1350l-12 32q174 62 334 62q104 0 195 -38t150.5 -116t59.5 -180q0 -84 -44.5 -155t-110 -111.5t-138.5 -52.5q156 -30 256.5 -138.5t100.5 -259.5q0 -119 -68.5 -212.5t-178 -142t-237.5 -48.5q-101 0 -201 28t-169 64l14 31q65 -32 161.5 -57t192.5 -25
q110 0 210.5 42.5t167.5 127.5t67 194t-67.5 198.5t-170 137t-213.5 47.5h-110v29h141q83 0 163 34t136.5 105.5t56.5 163.5q0 94 -55 163t-138 100.5t-179 31.5q-144 0 -314 -55z" />
    <glyph glyph-name="four" unicode="4" horiz-adv-x="1204" 
d="M877 1434h28v-1002h195v-41h-195v-391h-41v391h-786v41zM864 1356l-739 -924h739v924z" />
    <glyph glyph-name="five" unicode="5" horiz-adv-x="1163" 
d="M961 1434v-41h-648l-75 -590q163 102 321 102q197 0 338 -132t141 -316q0 -130 -71.5 -238.5t-188 -168.5t-248.5 -60q-82 0 -163.5 17.5t-127 35.5t-102.5 45l17 31q181 -88 374 -88q127 0 235.5 60t171 158t62.5 208q0 167 -130 287t-312 120q-173 0 -332 -119l-33 17
l86 672h685z" />
    <glyph glyph-name="six" unicode="6" horiz-adv-x="1245" 
d="M1051 1370l-15 -35q-169 68 -323 68q-68 0 -128 -14.5t-119 -50t-105.5 -90.5t-83.5 -142t-56 -199q-20 -113 -20 -366h2q36 159 160 251.5t286 92.5q90 0 173 -31t147.5 -86.5t102.5 -139.5t38 -184q0 -87 -30 -167t-85.5 -144.5t-144.5 -103.5t-197 -39q-134 0 -248 71
t-174 195q-71 151 -71 406q0 70 5.5 137t21 147.5t40.5 148.5t68 134t99.5 112.5t138.5 74.5t182 28q158 0 336 -74zM649 844q-77 0 -152.5 -29.5t-135.5 -80.5t-97 -126.5t-37 -161.5q0 -77 32 -152t87.5 -133t136 -94t170.5 -36q122 0 218.5 57.5t147 150.5t50.5 203
q0 117 -59.5 210.5t-155 142.5t-205.5 49z" />
    <glyph glyph-name="seven" unicode="7" horiz-adv-x="1015" 
d="M76 1434h889v-35l-623 -1399h-43l621 1395h-844v39z" />
    <glyph glyph-name="eight" unicode="8" horiz-adv-x="1236" 
d="M618 1444q156 0 266.5 -92.5t110.5 -243.5q0 -116 -69 -204.5t-185 -119.5q145 -30 241.5 -140t96.5 -259q0 -119 -65 -210.5t-169 -138t-227 -46.5q-122 0 -226 46.5t-169 138t-65 210.5q0 149 96.5 259t241.5 140q-116 31 -185 119.5t-69 204.5q0 151 110 243.5
t266 92.5zM199 389q0 -149 116.5 -253.5t302.5 -104.5t303 104.5t117 253.5q0 71 -30 137.5t-83.5 118.5t-133.5 83t-173 32q-124 -1 -221 -54.5t-147.5 -137t-50.5 -179.5zM618 1403q-87 0 -162 -33.5t-124 -103t-49 -162.5q0 -130 91.5 -214.5t243.5 -84.5t244 84.5
t92 214.5q0 93 -49 162.5t-124.5 103t-162.5 33.5z" />
    <glyph glyph-name="nine" unicode="9" horiz-adv-x="1243" 
d="M197 68l12 30q172 -67 346 -67q88 0 160 25.5t122.5 69t88.5 109t60.5 137t36.5 162t19 175.5t5 186h-3q-36 -158 -166 -252t-292 -94q-121 0 -223 53t-165 154t-63 229q0 91 31.5 173t91 146t152 102t206.5 38q224 0 346.5 -161.5t122.5 -457.5q0 -89 -6 -169
t-21.5 -166t-40 -157t-65 -136t-93.5 -109.5t-127.5 -71t-164.5 -26.5q-171 0 -370 78zM584 590q111 0 210 49.5t161.5 143t62.5 210.5q0 164 -112 287t-283 123q-209 0 -328 -121t-119 -297t118 -285.5t290 -109.5z" />
    <glyph glyph-name="colon" unicode=":" horiz-adv-x="464" 
d="M231 127q28 0 47 -19t19 -47q0 -26 -19 -43.5t-47 -17.5q-26 0 -44.5 18t-18.5 43q0 28 18.5 47t44.5 19zM231 946q28 0 47 -18.5t19 -46.5q0 -26 -19 -44t-47 -18q-26 0 -44.5 18.5t-18.5 43.5q0 28 18.5 46.5t44.5 18.5z" />
    <glyph glyph-name="semicolon" unicode=";" horiz-adv-x="522" 
d="M254 113q42 0 67 -40.5t25 -84.5q0 -66 -47.5 -120t-114.5 -85l-10 18q63 38 101 102.5t8 123.5q-12 -27 -47 -27q-20 0 -32 10.5t-15 20.5t-3 20q0 27 22.5 44.5t45.5 17.5zM250 946q28 0 46.5 -18.5t18.5 -46.5q0 -26 -18.5 -44t-46.5 -18q-26 0 -45 18.5t-19 43.5
q0 27 19 46t45 19z" />
    <glyph glyph-name="less" unicode="&#x3c;" horiz-adv-x="913" 
d="M713 1001v-57l-533 -262l535 -260v-62l-574 297v48z" />
    <glyph glyph-name="equal" unicode="=" horiz-adv-x="1058" 
d="M188 831h682v-43h-682v43zM188 522h682v-43h-682v43z" />
    <glyph glyph-name="greater" unicode="&#x3e;" horiz-adv-x="913" 
d="M201 944v57l571 -296v-48l-573 -297v62l534 260z" />
    <glyph glyph-name="question" unicode="?" horiz-adv-x="983" 
d="M442 1481q114 0 204 -35.5t146 -112.5t56 -186q0 -59 -22.5 -110.5t-58.5 -90t-79.5 -74.5t-87 -71.5t-79.5 -73.5t-58.5 -88.5t-22.5 -108.5v-178h-39v178q0 65 22.5 119.5t58 93.5t78.5 74.5t86 69.5t78.5 70.5t58 86t22.5 107.5q0 95 -54 162.5t-133.5 97t-173.5 29.5
q-74 0 -154.5 -23t-142.5 -63l-22 30q58 44 147 70.5t170 26.5zM420 86q24 0 38.5 -14.5t14.5 -38.5q0 -22 -14.5 -35.5t-38.5 -13.5q-23 0 -37 13.5t-14 35.5q0 25 14 39t37 14z" />
    <glyph glyph-name="at" unicode="@" horiz-adv-x="1959" 
d="M1493 188q-112 0 -173 54.5t-63 142.5q-37 -83 -122.5 -131.5t-184.5 -48.5q-120 0 -207.5 69.5t-87.5 188.5q0 69 32.5 117.5t86 71.5t105 32.5t106.5 9.5q32 0 65 -3.5t57.5 -8t51 -11.5t41 -11.5t32.5 -11t21 -7.5v123q0 130 -62 181.5t-192 51.5q-115 0 -245 -39
l-13 37q156 39 267 39q149 0 217.5 -64.5t68.5 -209.5v-357q0 -86 56 -130t147 -44q83 0 142.5 37.5t91 102.5t45.5 136t14 154q0 152 -46.5 277.5t-124 210t-180.5 142.5t-212.5 84t-222.5 26q-173 0 -326 -63t-260.5 -170t-169.5 -252.5t-62 -305.5q0 -214 104.5 -396.5
t285.5 -290t395 -107.5q152 0 280 49l11 -37q-145 -53 -293 -53q-164 0 -316 66.5t-264 178t-179 267t-67 325.5q0 169 66 321.5t179.5 264t274 177t341.5 65.5q85 0 169 -14.5t166 -45.5t154.5 -76t135 -109.5t107 -142.5t70 -178.5t25.5 -214.5q0 -97 -18.5 -178.5
t-57 -148t-105.5 -104.5t-157 -38zM950 244q119 0 211 81t92 185v92q-13 6 -43 16.5t-96.5 23.5t-130.5 13q-52 0 -98 -8.5t-91.5 -28t-72.5 -59.5t-27 -96q0 -97 77 -158t179 -61z" />
    <glyph glyph-name="A" unicode="A" horiz-adv-x="1314" 
d="M633 1444h49l561 -1444h-45l-164 422h-753l-162 -422h-45zM657 1405l-360 -944h721z" />
    <glyph glyph-name="B" unicode="B" horiz-adv-x="1386" 
d="M236 1434h536q100 0 186.5 -48.5t139.5 -136.5t53 -196q0 -110 -49 -196.5t-141 -123.5q119 -39 193.5 -135t74.5 -223q0 -158 -112.5 -266.5t-270.5 -108.5h-610v1434zM279 41h569q84 0 162 43.5t128 121t50 167.5q0 132 -98.5 233t-241.5 101h-569v-666zM279 1393v-645
h534q132 0 213.5 77t81.5 215q0 152 -98 252.5t-236 100.5h-495z" />
    <glyph glyph-name="C" unicode="C" horiz-adv-x="1402" 
d="M858 1444q203 0 414 -98l-17 -35q-21 10 -57 25.5t-139 41t-195 25.5q-138 0 -264.5 -54t-218.5 -145.5t-146.5 -219t-54.5 -267.5t54.5 -267.5t146.5 -219t218.5 -145.5t264.5 -54q92 0 190 23t150 46l51 23l17 -35q-211 -98 -414 -98q-142 0 -274.5 57.5t-230 154.5
t-156 232t-58.5 283t58.5 283t156 232t230 154.5t274.5 57.5z" />
    <glyph glyph-name="D" unicode="D" horiz-adv-x="1478" 
d="M709 0h-473v1434h473q25 0 57.5 -3.5t108.5 -25.5t145 -62q161 -94 236 -259t75 -367t-75 -367.5t-236 -259.5q-158 -90 -311 -90zM279 1393v-1352h430q22 0 53.5 3.5t103 25t135.5 59.5q146 85 217.5 237t71.5 351t-71.5 351t-217.5 237q-64 38 -135.5 59.5t-103 25
t-53.5 3.5h-430z" />
    <glyph glyph-name="E" unicode="E" horiz-adv-x="1351" 
d="M236 1434h952v-41h-912v-676h785v-41h-785v-635h953v-41h-993v1434z" />
    <glyph glyph-name="F" unicode="F" horiz-adv-x="1255" 
d="M236 1434h952v-41h-912v-684h785v-41h-785v-668h-40v1434z" />
    <glyph glyph-name="G" unicode="G" horiz-adv-x="1556" 
d="M872 1444q213 0 439 -105l-17 -34q-2 0 -27.5 10.5t-66 25t-90 28.5t-112.5 24t-121 10q-192 0 -352.5 -91.5t-252.5 -249t-92 -345.5q0 -140 54.5 -267.5t146.5 -219t218.5 -145.5t264.5 -54q286 0 506 198v402h-420v37h461v-451q-230 -227 -553 -227
q-142 0 -274.5 57.5t-230 154t-156 231.5t-58.5 282q0 150 57 285t154.5 232.5t233.5 154.5t288 57z" />
    <glyph glyph-name="H" unicode="H" horiz-adv-x="1533" 
d="M236 1434h40v-680h981v680h41v-1434h-41v717h-981v-717h-40v1434z" />
    <glyph glyph-name="I" unicode="I" horiz-adv-x="512" 
d="M236 1434h40v-1434h-40v1434z" />
    <glyph glyph-name="J" unicode="J" horiz-adv-x="520" 
d="M35 -287l-12 29q25 11 57.5 33t71 57t64.5 83.5t26 98.5v1372l-121 21v27h164v-1403q0 -65 -24 -120.5t-64.5 -93.5t-79 -62t-82.5 -42z" />
    <glyph glyph-name="K" unicode="K" horiz-adv-x="1255" 
d="M236 0v1434h40v-965l144 170l667 795h56l-535 -641l619 -793h-53l-594 764l-304 -354v-410h-40z" />
    <glyph glyph-name="L" unicode="L" horiz-adv-x="1243" 
d="M236 1434h40v-1393h898v-41h-938v1434z" />
    <glyph glyph-name="M" unicode="M" horiz-adv-x="1832" 
d="M236 1434h63l614 -1297h5l616 1297h63v-1434h-41v1384h-2l-620 -1300h-37l-618 1305h-3v-1389h-40v1434z" />
    <glyph glyph-name="N" unicode="N" horiz-adv-x="1497" 
d="M236 1434h40l496 -719l451 -658h2l-4 779v598h41v-1434h-48l-499 727l-436 645h-5l2 -616v-756h-40v1434z" />
    <glyph glyph-name="O" unicode="O" horiz-adv-x="1732" 
d="M139 715q0 198 97.5 366t264.5 265.5t363 97.5q148 0 283 -57.5t233 -155.5t155.5 -233t57.5 -283q0 -197 -97 -363.5t-265 -264t-367 -97.5q-197 0 -364 97.5t-264 264.5t-97 363zM180 713q0 -139 54 -265t145.5 -217.5t218 -145.5t266.5 -54q141 0 268.5 54
t219.5 145.5t146 217.5t54 265q0 138 -54.5 265t-146 220.5t-219.5 149t-268 55.5q-139 0 -265.5 -54.5t-218 -146.5t-146 -220t-54.5 -269z" />
    <glyph glyph-name="P" unicode="P" horiz-adv-x="1312" 
d="M236 1434h579q105 0 195 -58t142 -152t52 -198t-50.5 -198t-139 -153t-191.5 -59h-547v-616h-40v1434zM276 1393v-736h539q142 0 245 111.5t103 255.5q0 145 -103 257t-245 112h-539z" />
    <glyph glyph-name="Q" unicode="Q" horiz-adv-x="1724" 
d="M141 717q0 148 57.5 282.5t154 232t230 155t279.5 57.5q196 0 362 -97.5t262.5 -265t96.5 -364.5q0 -171 -73 -321.5t-201 -252t-289 -137.5l-12 -2v-4q94 -49 215.5 -97.5t196.5 -72.5l75 -23l-14 -38q-189 61 -361 139q-57 27 -110 57q-50 27 -86 27q-6 0 -26.5 -1
t-37.5 -1q-117 0 -226.5 36.5t-198 104t-155 157t-103 200.5t-36.5 229zM182 715q0 -186 90.5 -343.5t247.5 -249t342 -91.5t342 91.5t247.5 249t90.5 343.5q0 140 -53.5 267.5t-144.5 219.5t-217 146.5t-265 54.5q-138 0 -264 -54.5t-217 -146.5t-145 -219.5t-54 -267.5z
" />
    <glyph glyph-name="R" unicode="R" horiz-adv-x="1386" 
d="M236 1434h595q161 0 274.5 -112.5t113.5 -270.5q0 -144 -94.5 -253.5t-235.5 -129.5l385 -668h-49l-381 664h-568v-664h-40v1434zM276 1393v-688h555q144 0 245.5 102t101.5 244q0 141 -101.5 241.5t-245.5 100.5h-555z" />
    <glyph glyph-name="S" unicode="S" horiz-adv-x="1218" 
d="M627 -10q-241 0 -488 110l19 37q21 -10 53.5 -22.5t98 -34t151.5 -35.5t170 -14q205 0 315.5 82.5t110.5 238.5q0 74 -31 131t-83 92.5t-120 63t-143 48.5t-149.5 42.5t-142.5 51t-120 69t-83 101.5t-31 143q0 163 120.5 256.5t337.5 93.5q122 0 234.5 -27t181.5 -57
l-16 -37q-21 9 -58.5 22.5t-142 35.5t-197.5 22q-89 0 -163.5 -18t-133 -53.5t-91.5 -95.5t-33 -138q0 -75 31 -132.5t83.5 -93.5t120 -64t142.5 -49.5t150.5 -43.5t143 -51.5t120 -68.5t83.5 -100t31 -141q0 -173 -126 -268.5t-345 -95.5z" />
    <glyph glyph-name="T" unicode="T" horiz-adv-x="1247" 
d="M55 1434h1137v-41h-549v-1393h-41v1393h-547v41z" />
    <glyph glyph-name="U" unicode="U" horiz-adv-x="1464" 
d="M223 1434h41v-992q0 -104 64 -196.5t173 -148.5t232 -56t232 56t173 148.5t64 196.5v992h41v-985q0 -122 -71.5 -226t-188.5 -163.5t-250 -59.5q-134 0 -251 59.5t-188 163.5t-71 226v985z" />
    <glyph glyph-name="V" unicode="V" horiz-adv-x="1282" 
d="M70 1434h41l528 -1379h4l526 1379h43l-546 -1434h-50z" />
    <glyph glyph-name="W" unicode="W" horiz-adv-x="1894" 
d="M78 1434h41l401 -1362h4l400 1362h45l399 -1362h4l402 1362h41l-426 -1434h-39l-404 1366l-403 -1366h-39z" />
    <glyph glyph-name="X" unicode="X" horiz-adv-x="1294" 
d="M1227 0h-49l-527 672h-4l-526 -672h-49l553 709l-553 725h49l526 -689h4l527 689h49l-553 -725z" />
    <glyph glyph-name="Y" unicode="Y" horiz-adv-x="1171" 
d="M55 1434h47l191 -318l291 -485h4l286 481l195 322h45l-508 -842v-592h-41v592z" />
    <glyph glyph-name="Z" unicode="Z" horiz-adv-x="1241" 
d="M109 1434h1034v-50l-1002 -1343l2 -4l250 2h748v-39h-1055v37l1010 1354q0 1 -1 2t-1 2h-355h-630v39z" />
    <glyph glyph-name="bracketleft" unicode="[" horiz-adv-x="542" 
d="M459 1460v-41h-219v-1741h219v-40h-258v1822h258z" />
    <glyph glyph-name="backslash" unicode="\" horiz-adv-x="987" 
d="M840 -66l-738 1565h45l740 -1565h-47z" />
    <glyph glyph-name="bracketright" unicode="]" horiz-adv-x="542" 
d="M84 1419v41h258v-1822h-258v40h219v1741h-219z" />
    <glyph glyph-name="underscore" unicode="_" horiz-adv-x="1398" 
d="M322 -209h755v-39h-755v39z" />
    <glyph glyph-name="grave" unicode="`" horiz-adv-x="501" 
d="M170 1462l63 37l109 -272h-25z" />
    <glyph glyph-name="a" unicode="a" horiz-adv-x="1161" 
d="M201 1022q191 53 366 53q201 0 293 -76.5t92 -259.5v-647q0 -53 68 -53l65 4v-35q-28 -8 -81 -8q-43 0 -68 25.5t-25 68.5v160q-48 -120 -165 -192t-271 -72q-71 0 -135.5 17t-120 52.5t-88.5 99t-33 148.5q0 73 25.5 129t68 91.5t103 58.5t125 32t139.5 9
q81 0 169 -10.5t136 -20.5l47 -10v159q0 161 -88 225t-262 64q-196 0 -350 -49zM911 543q-172 43 -356 43q-65 0 -122 -7.5t-112.5 -27.5t-94.5 -50.5t-63 -80.5t-24 -115q0 -73 30 -128.5t80 -86t106.5 -45t117.5 -14.5q179 0 308.5 107.5t129.5 254.5v150z" />
    <glyph glyph-name="b" unicode="b" horiz-adv-x="1327" 
d="M197 1499h41v-737q56 138 182 225.5t278 87.5q147 0 263 -72.5t178.5 -196t62.5 -274.5q0 -231 -141 -386.5t-363 -155.5q-163 0 -285.5 88t-174.5 233l-11 -311h-30v1499zM696 1034q-192 0 -326 -143.5t-134 -358.5q0 -137 57.5 -251.5t163.5 -182t239 -67.5
q132 0 238.5 66.5t166.5 181t60 253.5t-60 254t-166.5 181.5t-238.5 66.5z" />
    <glyph glyph-name="c" unicode="c" horiz-adv-x="1081" 
d="M680 -10q-154 0 -282 72.5t-201.5 197t-73.5 272.5t73.5 273t201.5 197.5t282 72.5q147 0 291 -61l-17 -35q-14 6 -38.5 15t-95 24.5t-134.5 15.5q-145 0 -265.5 -68.5t-188.5 -183.5t-68 -250t68 -249.5t188.5 -183t265.5 -68.5q64 0 131 13.5t102 27.5l35 14l17 -35
q-144 -61 -291 -61z" />
    <glyph glyph-name="d" unicode="d" horiz-adv-x="1327" 
d="M1090 1499h40v-1499h-30l-10 311q-52 -145 -175 -233t-286 -88q-222 0 -363 155.5t-141 386.5q0 151 62.5 274.5t178.5 196t263 72.5q152 0 278.5 -87.5t182.5 -225.5v737zM631 1034q-132 0 -238.5 -66.5t-166.5 -181.5t-60 -254t60 -253.5t166.5 -181t238.5 -66.5
q133 0 239 67.5t164 182t58 251.5q0 215 -134.5 358.5t-326.5 143.5z" />
    <glyph glyph-name="e" unicode="e" horiz-adv-x="1232" 
d="M123 532q0 143 67.5 267.5t188 200t264.5 75.5q108 0 201 -45.5t154 -120.5t95.5 -170t34.5 -194l-2 -31h-962q5 -97 44 -185t103.5 -154t157.5 -105t201 -39q154 0 346 84l16 -33q-137 -60 -229 -79q-67 -13 -131 -13q-120 0 -224 44.5t-174.5 119.5t-110.5 173.5
t-40 204.5zM164 553h921q0 69 -19 137.5t-57 130t-90 109.5t-123.5 76t-152.5 28q-128 0 -237.5 -67t-173.5 -177.5t-68 -236.5z" />
    <glyph glyph-name="f" unicode="f" horiz-adv-x="645" 
d="M602 1518l-6 -39q-62 16 -127 16q-118 0 -166.5 -65.5t-48.5 -190.5v-174h332v-41h-332v-1024h-41v1024h-125v31l125 10v174q0 147 58.5 222t197.5 75q75 0 133 -18z" />
    <glyph glyph-name="g" unicode="g" horiz-adv-x="1077" 
d="M975 1065v-16l-211 -17q168 -84 168 -284q0 -150 -97.5 -236t-283.5 -86q-141 0 -229 49q-107 -64 -107 -153q0 -24 9.5 -44t22.5 -32t26 -21t23 -13l9 -3q37 -13 91.5 -19.5t97.5 -8.5t124 -3q179 -2 270 -56t91 -188q0 -282 -430 -282q-97 0 -172 14t-134.5 45.5
t-91.5 87.5t-32 135q0 154 147 248q-92 45 -92 140q0 92 115 172q-56 40 -85.5 108t-29.5 148q0 154 103 239.5t276 85.5q57 0 115 -10h307zM555 1036q-158 0 -250 -74.5t-92 -213.5q0 -131 88 -207t254 -76q164 0 251 76t87 207q0 139 -91.5 213.5t-246.5 74.5zM600 141
q-192 0 -295 25q-149 -84 -149 -227q0 -245 393 -250q54 0 102.5 5t103.5 21.5t94.5 42.5t66 72.5t26.5 108.5q0 115 -83 158.5t-259 43.5z" />
    <glyph glyph-name="h" unicode="h" horiz-adv-x="1253" 
d="M197 1499h41v-739q7 30 26 68t55.5 82.5t83 80.5t115 60t144.5 24q205 0 306 -125t101 -338v-612h-41v618q0 193 -92 304.5t-270 111.5q-86 0 -159 -30t-121.5 -77.5t-82.5 -107.5t-49.5 -118.5t-15.5 -112.5v-588h-41v1499z" />
    <glyph glyph-name="i" unicode="i" horiz-adv-x="440" 
d="M102 1065h142v-1065h-41v1018l-101 20v27zM203 1399q25 0 45 -18t20 -42q0 -27 -19 -45t-46 -18q-26 0 -44 17.5t-18 43.5t18 44t44 18z" />
    <glyph glyph-name="j" unicode="j" horiz-adv-x="440" 
d="M98 -348l-12 29q117 51 117 190v1147l-101 20v27h142v-1071q0 -54 -1 -87t-5.5 -72.5t-14 -64t-25.5 -49.5t-41 -41.5t-59 -27.5zM203 1399q25 0 45 -18t20 -42q0 -27 -19 -45t-46 -18q-26 0 -44 17.5t-18 43.5t18 44t44 18z" />
    <glyph glyph-name="k" unicode="k" horiz-adv-x="952" 
d="M197 1499h41v-1100l297 338l288 328h56l-430 -485l444 -580h-51l-420 549l-184 -211v-338h-41v1499z" />
    <glyph glyph-name="l" unicode="l" horiz-adv-x="475" 
d="M203 1499h41v-1397q0 -63 67 -63l62 6v-35q-33 -10 -82 -10q-92 1 -88 111v1388z" />
    <glyph glyph-name="m" unicode="m" horiz-adv-x="1845" 
d="M197 1065h30l11 -229q22 64 62.5 112.5t89.5 75t98.5 39t97.5 12.5q143 0 228.5 -68.5t121.5 -175.5q34 98 137 171t225 73q184 0 272.5 -101.5t88.5 -271.5v-702h-41v719q0 160 -87 237.5t-233 77.5q-147 0 -249.5 -101.5t-102.5 -254.5v-678h-41v719q0 81 -26.5 143.5
t-72 99t-102 54.5t-120.5 18q-142 0 -244 -104t-102 -252v-678h-41v1065z" />
    <glyph glyph-name="n" unicode="n" horiz-adv-x="1253" 
d="M197 1065h30l11 -305q7 30 26 68t55.5 82.5t83 80.5t115 60t144.5 24q205 0 306 -125t101 -338v-612h-41v618q0 193 -92 304.5t-270 111.5q-86 0 -159 -29t-121.5 -75t-82.5 -105.5t-49.5 -119.5t-15.5 -117v-588h-41v1065z" />
    <glyph glyph-name="o" unicode="o" horiz-adv-x="1329" 
d="M123 530q0 148 73 273.5t197.5 198.5t270.5 73q148 0 273 -73t197 -198.5t72 -273.5q0 -110 -42.5 -209.5t-115 -172t-173 -115.5t-211.5 -43q-146 0 -270.5 72.5t-197.5 197t-73 270.5zM664 1034q-135 0 -250 -68t-182.5 -184t-67.5 -252q0 -135 67.5 -250t182.5 -182
t250 -67q102 0 194.5 39.5t159.5 106.5t107 159.5t40 193.5q0 136 -67 252t-182.5 184t-251.5 68z" />
    <glyph glyph-name="p" unicode="p" horiz-adv-x="1327" 
d="M692 1034q-133 0 -239 -69t-163 -184t-57 -253q0 -215 132.5 -356t324.5 -141q200 0 335.5 142.5t135.5 348.5q0 138 -63 256t-171 187t-235 69zM690 1075q138 0 256 -74.5t187 -202t69 -276.5q0 -140 -64 -261.5t-183 -196t-265 -74.5q-153 0 -278.5 88.5t-173.5 226.5
v-653h-41v1413h30l11 -320q61 154 179.5 242t272.5 88z" />
    <glyph glyph-name="q" unicode="q" horiz-adv-x="1327" 
d="M637 1034q-127 0 -235.5 -68t-172 -183.5t-63.5 -250.5t61 -249.5t170 -183t240 -68.5q191 0 324 142.5t133 358.5q0 211 -128.5 356.5t-328.5 145.5zM639 1075q155 0 273.5 -84.5t177.5 -234.5l10 309h30v-1413h-40v653q-48 -138 -173.5 -226.5t-277.5 -88.5
q-110 0 -207 45.5t-163.5 120t-105 173t-38.5 203.5q0 149 69.5 274t187.5 197t257 72z" />
    <glyph glyph-name="r" unicode="r" horiz-adv-x="653" 
d="M197 1065h28l13 -215q31 101 125.5 158t205.5 57v-41q-65 0 -123.5 -21t-105.5 -61t-74.5 -103.5t-27.5 -142.5v-696h-41v1065z" />
    <glyph glyph-name="s" unicode="s" horiz-adv-x="970" 
d="M496 -10q-179 0 -373 84l18 37q17 -10 60 -26.5t129 -35t168 -18.5q152 0 236.5 60t84.5 169q0 69 -38 117.5t-98.5 75t-133.5 47t-146 42.5t-133.5 51.5t-98.5 84t-38 131.5q0 123 93 194.5t261 71.5q94 0 184 -20.5t140 -42.5l-18 -37q-16 7 -44.5 16.5t-109 26
t-152.5 16.5q-139 0 -226 -56.5t-87 -166.5q0 -68 38 -116t98.5 -75t133.5 -47.5t146 -43t133.5 -52.5t98.5 -85t38 -132q0 -126 -97 -198t-267 -72z" />
    <glyph glyph-name="t" unicode="t" horiz-adv-x="669" 
d="M256 1372h31v-307h315v-41h-315v-688q0 -151 49 -223t168 -72q71 0 149 16l9 -32q-90 -25 -160 -25q-144 0 -200 83.5t-56 246.5v694h-168v31l168 10z" />
    <glyph glyph-name="u" unicode="u" horiz-adv-x="1253" 
d="M184 1065h41v-619q0 -97 21 -171t66.5 -130t124 -85t188.5 -29q156 0 273.5 120t117.5 279v635h41v-1065h-31l-10 264q-45 -123 -155.5 -198.5t-235.5 -75.5q-223 0 -332 113.5t-109 328.5v633z" />
    <glyph glyph-name="v" unicode="v" horiz-adv-x="983" 
d="M63 1065h43l383 -1012h5l383 1012h43l-404 -1065h-49z" />
    <glyph glyph-name="w" unicode="w" horiz-adv-x="1556" 
d="M68 1065h41l335 -993h5l307 993h45l307 -993h4l336 993h41l-361 -1065h-38l-312 997l-311 -997h-39z" />
    <glyph glyph-name="x" unicode="x" horiz-adv-x="1052" 
d="M76 0l424 535l-424 530h53l395 -502h4l396 502h53l-424 -530l424 -535h-53l-396 506h-4l-395 -506h-53z" />
    <glyph glyph-name="y" unicode="y" horiz-adv-x="1015" 
d="M59 1065h43l406 -1012h4l397 1012h45l-428 -1081q-56 -140 -93 -198q-86 -134 -204 -134q-66 0 -147 31l14 36q73 -26 127 -26q42 0 79.5 19.5t63 46.5t51.5 73t40.5 80.5t34.5 87.5z" />
    <glyph glyph-name="z" unicode="z" horiz-adv-x="1036" 
d="M106 1065h840v-33l-807 -993v-2l234 2h573v-39h-862v31l809 995v2l-281 -2h-506v39z" />
    <glyph glyph-name="braceleft" unicode="{" horiz-adv-x="632" 
d="M195 551q59 -19 80.5 -68.5t21.5 -128.5v-469q0 -111 51 -155.5t170 -44.5h35v-43h-35q-139 0 -201 57t-65 190l2 471q0 85 -40 126.5t-124 41.5v45q84 0 124 41.5t40 126.5l-2 471q3 133 65 190.5t201 57.5h35v-43h-35q-119 0 -170 -44.5t-51 -155.5v-469
q0 -79 -21.5 -128.5t-80.5 -68.5z" />
    <glyph glyph-name="bar" unicode="|" horiz-adv-x="436" 
d="M199 1638h39v-1931h-39v1931z" />
    <glyph glyph-name="braceright" unicode="}" horiz-adv-x="632" 
d="M438 551q-59 19 -80.5 68.5t-21.5 128.5v469q0 111 -51 155.5t-170 44.5h-35v43h35q139 0 201 -57.5t65 -190.5l-2 -471q0 -85 40 -126.5t124 -41.5v-45q-84 0 -124 -41.5t-40 -126.5l2 -471q-3 -133 -65 -190t-201 -57h-35v43h35q119 0 170 44.5t51 155.5v469
q0 79 21.5 128.5t80.5 68.5z" />
    <glyph glyph-name="exclamdown" unicode="&#xa1;" horiz-adv-x="479" 
d="M268 0h-57l12 1081h31zM242 1348q-24 0 -38 14t-14 39q0 22 14.5 35.5t37.5 13.5q24 0 38.5 -13.5t14.5 -35.5q0 -24 -14.5 -38.5t-38.5 -14.5z" />
    <glyph glyph-name="cent" unicode="&#xa2;" horiz-adv-x="1241" 
d="M725 1075q145 0 289 -61l-17 -35q-14 6 -38.5 15t-95 24.5t-134.5 15.5q-145 0 -265.5 -68.5t-188.5 -183.5t-68 -250t68 -249.5t188.5 -183t265.5 -68.5q64 0 131 13.5t102 27.5l35 14l17 -35q-136 -58 -289 -61v-158h-39v158v2q-222 12 -371 167.5t-149 372.5
q0 143 67.5 263.5t187 194.5t265.5 83v139h39v-137z" />
    <glyph glyph-name="sterling" unicode="&#xa3;" horiz-adv-x="1177" 
d="M969 1284l-33 -24q-50 67 -123 105t-156 38q-149 0 -252.5 -104.5t-103.5 -262.5v-338h561v-41h-561v-407q0 -40 -10 -76t-23 -58.5t-29.5 -41t-25 -25t-14.5 -10.5h843v-39h-901v39q5 2 13 7t28.5 24t36 41t28.5 59.5t13 79.5v407h-119v41h119v338q0 175 115.5 291.5
t281.5 116.5q92 0 173.5 -43t138.5 -117z" />
    <glyph glyph-name="yen" unicode="&#xa5;" horiz-adv-x="1267" 
d="M104 1434h48l290 -484l191 -319h4l192 321l289 482h45l-508 -842v-72h293v-41h-293v-119h293v-41h-293v-319h-41v319h-297v41h297v119h-297v41h297v72z" />
    <glyph glyph-name="section" unicode="&#xa7;" horiz-adv-x="1210" 
d="M934 1352l-21 -35q-63 35 -147 55.5t-166 20.5q-70 0 -138.5 -14.5t-130.5 -43t-100 -79.5t-38 -117q0 -105 105.5 -169.5t340.5 -117.5q168 -38 245 -71q193 -83 193 -234q0 -72 -41.5 -128.5t-108 -89.5t-133.5 -51t-135 -24q45 -12 71.5 -19.5t74 -24.5t78 -33
t68.5 -41.5t59.5 -52.5t37 -65t15.5 -81q0 -63 -31.5 -114t-80.5 -82t-114 -52t-127 -29t-124 -8q-102 0 -199 22.5t-162 61.5l25 41q151 -84 340 -84q55 0 111.5 7.5t115 26t103.5 45.5t73.5 70.5t28.5 96.5q0 44 -18 81.5t-53.5 66t-74 50.5t-94 40t-98 29.5t-100.5 24.5
q-45 10 -69.5 16t-78 22t-86.5 31t-77 40.5t-69.5 53.5t-44 68t-18.5 85q0 56 25 102.5t65 77.5t93.5 54.5t105.5 36t107 18.5q-154 42 -220 75q-165 82 -165 230q0 69 35 123t86 85t116 51t118 27t99 7q79 0 171 -23t157 -59zM606 799q-71 1 -142.5 -13.5t-134.5 -43
t-103.5 -78.5t-43.5 -113q0 -63 40 -115t101.5 -83.5t130.5 -48.5t132 -17q41 0 92 6t116.5 24.5t117.5 46t88 75.5t36 108q0 68 -44.5 119.5t-114 78.5t-138 40t-133.5 14z" />
    <glyph glyph-name="dieresis" unicode="&#xa8;" horiz-adv-x="892" 
d="M303 1288q0 -24 -16.5 -39.5t-44.5 -15.5q-25 0 -41.5 16t-16.5 39q0 25 17.5 42.5t40.5 17.5q29 0 45 -16.5t16 -43.5zM647 1288q0 -24 -16.5 -39.5t-44.5 -15.5q-25 0 -41.5 16t-16.5 39q0 25 17.5 42.5t40.5 17.5q29 0 45 -16.5t16 -43.5z" />
    <glyph glyph-name="copyright" unicode="&#xa9;" horiz-adv-x="1730" 
d="M1090 993l-25 -35q-90 64 -184 64q-123 0 -210 -87t-87 -210q0 -121 87 -208t208 -87q94 0 186 64l22 -37q-84 -72 -208 -72q-141 0 -241.5 100t-100.5 242q0 139 101.5 240.5t240.5 101.5q116 0 211 -76zM864 1444q146 0 279.5 -57.5t230 -154t154 -230.5t57.5 -281
q0 -145 -57.5 -278.5t-154.5 -230.5t-230.5 -154.5t-278.5 -57.5t-278 57.5t-229.5 154.5t-154 230.5t-57.5 278.5q0 147 57 281t153.5 230.5t229.5 154t279 57.5zM864 1401q-137 0 -262 -54t-216.5 -145t-145.5 -217t-54 -264t54 -264.5t145 -218t216.5 -145.5t262.5 -54
q138 0 263.5 54t216.5 145.5t144.5 218t53.5 264.5t-54 264t-145 217t-216.5 145t-262.5 54z" />
    <glyph glyph-name="ordfeminine" unicode="&#xaa;" horiz-adv-x="983" 
d="M225 1458q134 41 260 41q135 0 195.5 -58.5t60.5 -189.5v-434q0 -16 33 -16q8 0 24 1t17 1v-33q-32 -8 -57 -8q-53 0 -53 49v100q-32 -75 -105 -115t-160 -40q-111 0 -189.5 62t-78.5 167q0 211 309 211q105 0 224 -41v68q0 61 -8.5 101t-32 73t-69.5 48t-118 15
q-119 0 -241 -35zM705 1114q-111 43 -228 43q-51 0 -95 -8.5t-84 -26.5t-63.5 -53.5t-23.5 -83.5q0 -85 67 -136.5t162 -51.5q110 0 187.5 68.5t77.5 164.5v84zM176 635h633v-39h-633v39z" />
    <glyph glyph-name="guillemotleft" unicode="&#xab;" horiz-adv-x="1046" 
d="M883 983l22 -25l-364 -426l362 -428l-20 -22l-404 450v3zM532 983l25 -25l-364 -426l362 -428l-23 -22l-403 450v3z" />
    <glyph glyph-name="registered" unicode="&#xae;" horiz-adv-x="1277" 
d="M639 1434q189 0 323 -134.5t134 -324.5q0 -92 -36.5 -177t-98 -146.5t-146 -98.5t-176.5 -37q-190 0 -324.5 135t-134.5 324q0 125 61.5 230.5t167 167t230.5 61.5zM639 1401q-175 0 -300.5 -125.5t-125.5 -300.5q0 -177 124.5 -301.5t301.5 -124.5q112 0 209.5 55.5
t157 154t59.5 216.5q0 175 -125.5 300.5t-300.5 125.5zM492 1210h190q54 0 91.5 -37.5t37.5 -91.5q0 -46 -29.5 -82t-74.5 -43l122 -215h-32l-123 211h-154v-211h-28v469zM520 1182v-201h162q41 0 69.5 30t28.5 70q0 44 -30.5 72.5t-73.5 28.5h-156z" />
    <glyph glyph-name="macron" unicode="&#xaf;" horiz-adv-x="933" 
d="M160 1292h583v-41h-583v41z" />
    <glyph glyph-name="degree" unicode="&#xb0;" horiz-adv-x="641" 
d="M137 1280q0 71 56 122.5t126 51.5q75 0 130 -50t55 -122q0 -76 -55 -127t-130 -51q-74 0 -128 50.5t-54 125.5zM176 1278q0 -54 44 -93.5t99 -39.5q59 0 101.5 37.5t42.5 95.5t-43.5 95.5t-100.5 37.5q-56 0 -99.5 -40t-43.5 -93z" />
    <glyph glyph-name="plusminus" unicode="&#xb1;" horiz-adv-x="991" 
d="M475 1067h41v-266h287v-41h-287v-266h-41v266h-287v41h287v266zM188 319h615v-40h-615v40z" />
    <glyph glyph-name="acute" unicode="&#xb4;" horiz-adv-x="501" 
d="M268 1499l64 -37l-148 -235h-24z" />
    <glyph glyph-name="paragraph" unicode="&#xb6;" horiz-adv-x="954" 
d="M709 -174h-41v1567h-93v-1567h-40v844h-74q-156 6 -245 120.5t-89 272.5q0 156 96 263.5t248 107.5h238v-1608z" />
    <glyph glyph-name="periodcentered" unicode="&#xb7;" horiz-adv-x="505" 
d="M252 692q35 0 60.5 -24.5t25.5 -59.5t-25.5 -59.5t-60.5 -24.5q-34 0 -59 24.5t-25 59.5t25 59.5t59 24.5z" />
    <glyph glyph-name="cedilla" unicode="&#xb8;" horiz-adv-x="653" 
d="M330 -172l-29 27l47 135h35l-27 -121q11 2 23 2q66 0 101.5 -36t35.5 -87q0 -69 -45.5 -104t-110.5 -35q-63 0 -120 31l10 30q48 -18 102 -18q49 0 84 23t35 71q0 40 -28.5 64t-75.5 24q-13 0 -37 -6z" />
    <glyph glyph-name="ordmasculine" unicode="&#xba;" horiz-adv-x="1230" 
d="M584 762q-166 0 -272.5 107t-106.5 259q0 155 106 263t273 108q169 0 278 -107t109 -264q0 -150 -109 -258t-278 -108zM217 596v39h754v-39h-754zM584 807q143 0 240.5 94.5t97.5 226.5q0 136 -97 231t-241 95q-141 0 -235.5 -95t-94.5 -231q0 -134 93.5 -227.5
t236.5 -93.5z" />
    <glyph glyph-name="guillemotright" unicode="&#xbb;" horiz-adv-x="1046" 
d="M492 958l24 25l404 -448v-3l-404 -450l-22 22l362 428zM141 958l21 25l405 -448v-3l-405 -450l-19 22l363 428z" />
    <glyph glyph-name="questiondown" unicode="&#xbf;" horiz-adv-x="974" 
d="M537 -37q-113 0 -202.5 35.5t-144.5 111.5t-55 183q0 58 22.5 109t58 89t78.5 73l86 70t78.5 72.5t58 87.5t22.5 107v176h39v-176q0 -64 -22 -118t-57.5 -92.5t-78 -73t-85 -68.5t-78 -69.5t-57.5 -84.5t-22 -106q0 -71 30.5 -127t81.5 -89.5t113.5 -51t131.5 -17.5
q72 0 151 22.5t141 61.5l23 -29q-58 -44 -145.5 -70t-167.5 -26zM559 1341q-24 0 -38.5 14t-14.5 38q0 22 14.5 35.5t38.5 13.5q22 0 35.5 -13.5t13.5 -35.5q0 -24 -13.5 -38t-35.5 -14z" />
    <glyph glyph-name="Agrave" unicode="&#xc0;" horiz-adv-x="1314" 
d="M494 1751l63 37l109 -272h-25zM633 1444h49l561 -1444h-45l-164 422h-753l-162 -422h-45zM657 1405l-360 -944h721z" />
    <glyph glyph-name="Aacute" unicode="&#xc1;" horiz-adv-x="1314" 
d="M760 1788l63 -37l-147 -235h-25zM633 1444h49l561 -1444h-45l-164 422h-753l-162 -422h-45zM657 1405l-360 -944h721z" />
    <glyph glyph-name="Acircumflex" unicode="&#xc2;" horiz-adv-x="1314" 
d="M508 1516h-45l176 192h39l176 -192h-45l-150 145zM633 1444h49l561 -1444h-45l-164 422h-753l-162 -422h-45zM657 1405l-360 -944h721z" />
    <glyph glyph-name="Atilde" unicode="&#xc3;" horiz-adv-x="1314" 
d="M412 1534l-27 18q60 97 150 97q50 0 121.5 -40t129.5 -40q73 0 117 61l27 -18q-27 -46 -68 -71t-86 -25q-49 0 -122 39.5t-130 39.5q-39 0 -63 -15.5t-49 -45.5zM633 1444h49l561 -1444h-45l-164 422h-753l-162 -422h-45zM657 1405l-360 -944h721z" />
    <glyph glyph-name="Adieresis" unicode="&#xc4;" horiz-adv-x="1314" 
d="M545 1571q0 -24 -16.5 -39.5t-45.5 -15.5q-25 0 -41 16t-16 39q0 25 17 42t40 17q29 0 45.5 -16t16.5 -43zM889 1571q0 -24 -16.5 -39.5t-45.5 -15.5q-25 0 -41 16t-16 39q0 25 17 42t40 17q29 0 45.5 -16t16.5 -43zM633 1444h49l561 -1444h-45l-164 422h-753l-162 -422
h-45zM657 1405l-360 -944h721z" />
    <glyph glyph-name="Aring" unicode="&#xc5;" horiz-adv-x="1314" 
d="M500 1667q0 62 46.5 106t110.5 44t111 -44t47 -106t-47 -105.5t-111 -43.5t-110.5 43.5t-46.5 105.5zM657 1786q-51 0 -90 -36t-39 -83t39 -83t90 -36q50 0 89.5 36t39.5 83t-39.5 83t-89.5 36zM633 1444h49l561 -1444h-45l-164 422h-753l-162 -422h-45zM657 1405
l-360 -944h721z" />
    <glyph glyph-name="AE" unicode="&#xc6;" horiz-adv-x="1896" 
d="M1778 0h-920v422h-549l-198 -422h-45l675 1434h996v-41h-838v-676h711v-41h-711v-635h879v-41zM858 1393h-96l-436 -930h532v930z" />
    <glyph glyph-name="Ccedilla" unicode="&#xc7;" horiz-adv-x="1402" 
d="M809 -172l-29 27l49 135q-185 7 -343.5 105.5t-252.5 263.5t-94 358q0 148 58.5 283t156 232t230 154.5t274.5 57.5q203 0 414 -98l-17 -35q-21 10 -57 25.5t-139 41t-195 25.5q-138 0 -264.5 -54t-218.5 -145.5t-146.5 -219t-54.5 -267.5t54.5 -267.5t146.5 -219
t218.5 -145.5t264.5 -54q92 0 190 23t150 46l51 23l17 -35q-205 -95 -410 -98l-26 -121q10 2 22 2q66 0 101.5 -36t35.5 -87q0 -69 -45 -104t-110 -35q-64 0 -121 31l10 30q48 -18 102 -18q49 0 84 23t35 71q0 40 -28.5 64t-75.5 24q-13 0 -37 -6z" />
    <glyph glyph-name="Egrave" unicode="&#xc8;" horiz-adv-x="1351" 
d="M236 1434h952v-41h-912v-676h785v-41h-785v-635h953v-41h-993v1434zM561 1751l64 37l108 -272h-24z" />
    <glyph glyph-name="Eacute" unicode="&#xc9;" horiz-adv-x="1351" 
d="M236 1434h952v-41h-912v-676h785v-41h-785v-635h953v-41h-993v1434zM754 1788l63 -37l-147 -235h-25z" />
    <glyph glyph-name="Ecircumflex" unicode="&#xca;" horiz-adv-x="1351" 
d="M236 1434h952v-41h-912v-676h785v-41h-785v-635h953v-41h-993v1434zM549 1516h-45l176 192h39l176 -192h-45l-150 145z" />
    <glyph glyph-name="Edieresis" unicode="&#xcb;" horiz-adv-x="1351" 
d="M236 1434h952v-41h-912v-676h785v-41h-785v-635h953v-41h-993v1434zM586 1571q0 -24 -16.5 -39.5t-45.5 -15.5q-25 0 -41 16t-16 39q0 25 17 42t40 17q29 0 45.5 -16t16.5 -43zM930 1571q0 -24 -16.5 -39.5t-45.5 -15.5q-25 0 -41 16t-16 39q0 25 17 42t40 17
q29 0 45.5 -16t16.5 -43z" />
    <glyph glyph-name="Igrave" unicode="&#xcc;" horiz-adv-x="512" 
d="M236 1434h40v-1434h-40v1434zM96 1751l64 37l108 -272h-24z" />
    <glyph glyph-name="Iacute" unicode="&#xcd;" horiz-adv-x="512" 
d="M236 1434h40v-1434h-40v1434zM350 1788l64 -37l-148 -235h-24z" />
    <glyph glyph-name="Icircumflex" unicode="&#xce;" horiz-adv-x="512" 
d="M236 1434h40v-1434h-40v1434zM106 1516h-45l177 192h38l177 -192h-45l-150 145z" />
    <glyph glyph-name="Idieresis" unicode="&#xcf;" horiz-adv-x="512" 
d="M236 1434h40v-1434h-40v1434zM143 1571q0 -24 -16.5 -39.5t-44.5 -15.5q-25 0 -41 16t-16 39q0 25 17 42t40 17q29 0 45 -16t16 -43zM487 1571q0 -24 -16.5 -39.5t-44.5 -15.5q-25 0 -41 16t-16 39q0 25 17 42t40 17q29 0 45 -16t16 -43z" />
    <glyph glyph-name="Eth" unicode="&#xd0;" horiz-adv-x="1480" 
d="M711 0h-471v696h-197v43h197v695h471q25 0 57.5 -3.5t108.5 -25.5t145 -62q161 -94 236 -259t75 -367t-75 -367.5t-236 -259.5q-158 -90 -311 -90zM281 1393v-654h395v-43h-395v-655h430q22 0 53.5 3.5t103.5 25t136 59.5q146 85 217 237t71 351t-71 351t-217 237
q-64 38 -136 59.5t-103.5 25t-53.5 3.5h-430z" />
    <glyph glyph-name="Ntilde" unicode="&#xd1;" horiz-adv-x="1497" 
d="M236 1434h40l496 -719l451 -658h2l-4 779v598h41v-1434h-48l-499 727l-436 645h-5l2 -616v-756h-40v1434zM516 1534l-27 18q60 97 152 97q43 0 122 -40t128 -40q73 0 117 61l26 -18q-58 -96 -151 -96q-44 0 -124 39.5t-130 39.5q-39 0 -64 -15.5t-49 -45.5z" />
    <glyph glyph-name="Ograve" unicode="&#xd2;" horiz-adv-x="1732" 
d="M705 1751l63 37l109 -272h-25zM139 715q0 198 97.5 366t264.5 265.5t363 97.5q148 0 283 -57.5t233 -155.5t155.5 -233t57.5 -283q0 -197 -97 -363.5t-265 -264t-367 -97.5q-197 0 -364 97.5t-264 264.5t-97 363zM180 713q0 -139 54 -265t145.5 -217.5t218 -145.5
t266.5 -54q141 0 268.5 54t219.5 145.5t146 217.5t54 265q0 138 -54.5 265t-146 220.5t-219.5 149t-268 55.5q-139 0 -265.5 -54.5t-218 -146.5t-146 -220t-54.5 -269z" />
    <glyph glyph-name="Oacute" unicode="&#xd3;" horiz-adv-x="1732" 
d="M969 1788l63 -37l-147 -235h-25zM139 715q0 198 97.5 366t264.5 265.5t363 97.5q148 0 283 -57.5t233 -155.5t155.5 -233t57.5 -283q0 -197 -97 -363.5t-265 -264t-367 -97.5q-197 0 -364 97.5t-264 264.5t-97 363zM180 713q0 -139 54 -265t145.5 -217.5t218 -145.5
t266.5 -54q141 0 268.5 54t219.5 145.5t146 217.5t54 265q0 138 -54.5 265t-146 220.5t-219.5 149t-268 55.5q-139 0 -265.5 -54.5t-218 -146.5t-146 -220t-54.5 -269z" />
    <glyph glyph-name="Ocircumflex" unicode="&#xd4;" horiz-adv-x="1732" 
d="M717 1516h-45l176 192h39l176 -192h-45l-150 145zM139 715q0 198 97.5 366t264.5 265.5t363 97.5q148 0 283 -57.5t233 -155.5t155.5 -233t57.5 -283q0 -197 -97 -363.5t-265 -264t-367 -97.5q-197 0 -364 97.5t-264 264.5t-97 363zM180 713q0 -139 54 -265t145.5 -217.5
t218 -145.5t266.5 -54q141 0 268.5 54t219.5 145.5t146 217.5t54 265q0 138 -54.5 265t-146 220.5t-219.5 149t-268 55.5q-139 0 -265.5 -54.5t-218 -146.5t-146 -220t-54.5 -269z" />
    <glyph glyph-name="Otilde" unicode="&#xd5;" horiz-adv-x="1755" 
d="M621 1534l-27 18q35 58 85.5 81t106.5 9q27 -6 90 -39.5t119 -33.5q73 0 117 61l27 -18q-33 -57 -86.5 -80.5t-110.5 -9.5q-27 6 -90.5 39.5t-118.5 33.5q-39 0 -63 -15.5t-49 -45.5zM139 715q0 198 97.5 366t264.5 265.5t363 97.5q148 0 283 -57.5t233 -155.5
t155.5 -233t57.5 -283q0 -197 -97 -363.5t-265 -264t-367 -97.5q-197 0 -364 97.5t-264 264.5t-97 363zM180 713q0 -139 54 -265t145.5 -217.5t218 -145.5t266.5 -54q141 0 268.5 54t219.5 145.5t146 217.5t54 265q0 138 -54.5 265t-146 220.5t-219.5 149t-268 55.5
q-139 0 -265.5 -54.5t-218 -146.5t-146 -220t-54.5 -269z" />
    <glyph glyph-name="Odieresis" unicode="&#xd6;" horiz-adv-x="1732" 
d="M754 1571q0 -24 -16.5 -39.5t-45.5 -15.5q-25 0 -41 16t-16 39q0 25 17 42t40 17q29 0 45.5 -16t16.5 -43zM1098 1571q0 -24 -16.5 -39.5t-45.5 -15.5q-25 0 -41 16t-16 39q0 25 17 42t40 17q29 0 45.5 -16t16.5 -43zM139 715q0 198 97.5 366t264.5 265.5t363 97.5
q148 0 283 -57.5t233 -155.5t155.5 -233t57.5 -283q0 -197 -97 -363.5t-265 -264t-367 -97.5q-197 0 -364 97.5t-264 264.5t-97 363zM180 713q0 -139 54 -265t145.5 -217.5t218 -145.5t266.5 -54q141 0 268.5 54t219.5 145.5t146 217.5t54 265q0 138 -54.5 265t-146 220.5
t-219.5 149t-268 55.5q-139 0 -265.5 -54.5t-218 -146.5t-146 -220t-54.5 -269z" />
    <glyph glyph-name="multiply" unicode="&#xd7;" horiz-adv-x="919" 
d="M217 932l242 -240l243 244l31 -31l-244 -243l242 -240l-31 -31l-241 242l-240 -242l-31 31l240 240l-240 241z" />
    <glyph glyph-name="Oslash" unicode="&#xd8;" horiz-adv-x="1734" 
d="M1384 1489l-108 -172q147 -100 233 -259t86 -343q0 -197 -97.5 -363.5t-266 -264t-367.5 -97.5q-196 0 -372 102l-97 -147h-45l109 168q-148 100 -234 258.5t-86 343.5q0 198 97.5 366t264.5 265.5t363 97.5q204 0 379 -107l98 152h43zM180 713q0 -175 80.5 -324.5
t218.5 -241.5l742 1156q-165 100 -357 100q-139 0 -265.5 -54.5t-218 -146.5t-146 -220t-54.5 -269zM1554 713q0 171 -81.5 321.5t-221.5 247.5l-741 -1155q158 -96 354 -96q141 0 269 54t220 145.5t146.5 217.5t54.5 265z" />
    <glyph glyph-name="Ugrave" unicode="&#xd9;" horiz-adv-x="1464" 
d="M621 1751l63 37l109 -272h-25zM223 1434h41v-992q0 -104 64 -196.5t173 -148.5t232 -56t232 56t173 148.5t64 196.5v992h41v-985q0 -122 -71.5 -226t-188.5 -163.5t-250 -59.5q-134 0 -251 59.5t-188 163.5t-71 226v985z" />
    <glyph glyph-name="Uacute" unicode="&#xda;" horiz-adv-x="1464" 
d="M762 1788l63 -37l-147 -235h-25zM223 1434h41v-992q0 -104 64 -196.5t173 -148.5t232 -56t232 56t173 148.5t64 196.5v992h41v-985q0 -122 -71.5 -226t-188.5 -163.5t-250 -59.5q-134 0 -251 59.5t-188 163.5t-71 226v985z" />
    <glyph glyph-name="Ucircumflex" unicode="&#xdb;" horiz-adv-x="1464" 
d="M584 1516h-45l176 192h39l176 -192h-45l-150 145zM223 1434h41v-992q0 -104 64 -196.5t173 -148.5t232 -56t232 56t173 148.5t64 196.5v992h41v-985q0 -122 -71.5 -226t-188.5 -163.5t-250 -59.5q-134 0 -251 59.5t-188 163.5t-71 226v985z" />
    <glyph glyph-name="Udieresis" unicode="&#xdc;" horiz-adv-x="1464" 
d="M621 1571q0 -24 -16.5 -39.5t-45.5 -15.5q-25 0 -41 16t-16 39q0 25 17 42t40 17q29 0 45.5 -16t16.5 -43zM965 1571q0 -24 -16.5 -39.5t-45.5 -15.5q-25 0 -41 16t-16 39q0 25 17 42t40 17q29 0 45.5 -16t16.5 -43zM223 1434h41v-992q0 -104 64 -196.5t173 -148.5
t232 -56t232 56t173 148.5t64 196.5v992h41v-985q0 -122 -71.5 -226t-188.5 -163.5t-250 -59.5q-134 0 -251 59.5t-188 163.5t-71 226v985z" />
    <glyph glyph-name="Yacute" unicode="&#xdd;" horiz-adv-x="1171" 
d="M55 1434h47l191 -318l291 -485h4l286 481l195 322h45l-508 -842v-592h-41v592zM635 1788l63 -37l-147 -235h-25z" />
    <glyph glyph-name="Thorn" unicode="&#xde;" horiz-adv-x="1306" 
d="M236 1434h40v-297h539q105 0 195 -58t142 -152t52 -198t-50.5 -198t-139 -153t-191.5 -59h-547v-319h-40v1434zM276 1096v-736h539q142 0 245 111.5t103 255.5q0 145 -103 257t-245 112h-539z" />
    <glyph glyph-name="germandbls" unicode="&#xdf;" horiz-adv-x="1198" 
d="M547 1434q166 0 262 -86.5t96 -251.5q0 -57 -18.5 -104.5t-44.5 -81.5t-52 -66.5t-44.5 -73.5t-18.5 -88q0 -35 21 -66t54.5 -56.5t73.5 -51t80.5 -55t74 -62.5t54.5 -79.5t21 -100.5q0 -156 -101 -245t-262 -89q-52 0 -101.5 10.5t-84 25.5t-62 30.5t-40.5 26.5l-13 10
l19 28q15 -10 40.5 -25t100.5 -40t143 -25q133 0 226.5 78t93.5 213q0 49 -21 91.5t-54.5 73t-73.5 58.5t-80.5 54t-74 53.5t-54.5 64t-21 78.5q0 50 18.5 94.5t44.5 79.5t52 69.5t44.5 78.5t18.5 92q0 34 -5.5 67t-25 76.5t-51.5 76t-92.5 55t-140.5 22.5q-17 0 -30 -0.5
t-47.5 -7.5t-61 -19.5t-61 -40t-57 -65t-38.5 -99t-16 -137.5v-1024h-41v1018q0 84 16.5 152t41 110t61 73.5t67 46.5t68.5 23t56.5 9.5t39.5 1.5z" />
    <glyph glyph-name="agrave" unicode="&#xe0;" horiz-adv-x="1161" 
d="M469 1423l63 37l109 -272h-25zM201 1022q191 53 366 53q201 0 293 -76.5t92 -259.5v-647q0 -53 68 -53l65 4v-35q-28 -8 -81 -8q-43 0 -68 25.5t-25 68.5v160q-48 -120 -165 -192t-271 -72q-71 0 -135.5 17t-120 52.5t-88.5 99t-33 148.5q0 73 25.5 129t68 91.5t103 58.5
t125 32t139.5 9q81 0 169 -10.5t136 -20.5l47 -10v159q0 161 -88 225t-262 64q-196 0 -350 -49zM911 543q-172 43 -356 43q-65 0 -122 -7.5t-112.5 -27.5t-94.5 -50.5t-63 -80.5t-24 -115q0 -73 30 -128.5t80 -86t106.5 -45t117.5 -14.5q179 0 308.5 107.5t129.5 254.5v150z
" />
    <glyph glyph-name="aacute" unicode="&#xe1;" horiz-adv-x="1161" 
d="M662 1460l63 -37l-147 -235h-25zM201 1022q191 53 366 53q201 0 293 -76.5t92 -259.5v-647q0 -53 68 -53l65 4v-35q-28 -8 -81 -8q-43 0 -68 25.5t-25 68.5v160q-48 -120 -165 -192t-271 -72q-71 0 -135.5 17t-120 52.5t-88.5 99t-33 148.5q0 73 25.5 129t68 91.5
t103 58.5t125 32t139.5 9q81 0 169 -10.5t136 -20.5l47 -10v159q0 161 -88 225t-262 64q-196 0 -350 -49zM911 543q-172 43 -356 43q-65 0 -122 -7.5t-112.5 -27.5t-94.5 -50.5t-63 -80.5t-24 -115q0 -73 30 -128.5t80 -86t106.5 -45t117.5 -14.5q179 0 308.5 107.5
t129.5 254.5v150z" />
    <glyph glyph-name="acircumflex" unicode="&#xe2;" horiz-adv-x="1161" 
d="M424 1188h-45l176 192h39l176 -192h-45l-150 145zM201 1022q191 53 366 53q201 0 293 -76.5t92 -259.5v-647q0 -53 68 -53l65 4v-35q-28 -8 -81 -8q-43 0 -68 25.5t-25 68.5v160q-48 -120 -165 -192t-271 -72q-71 0 -135.5 17t-120 52.5t-88.5 99t-33 148.5
q0 73 25.5 129t68 91.5t103 58.5t125 32t139.5 9q81 0 169 -10.5t136 -20.5l47 -10v159q0 161 -88 225t-262 64q-196 0 -350 -49zM911 543q-172 43 -356 43q-65 0 -122 -7.5t-112.5 -27.5t-94.5 -50.5t-63 -80.5t-24 -115q0 -73 30 -128.5t80 -86t106.5 -45t117.5 -14.5
q179 0 308.5 107.5t129.5 254.5v150z" />
    <glyph glyph-name="atilde" unicode="&#xe3;" horiz-adv-x="1161" 
d="M299 1206l-27 19q59 96 150 96q44 0 123.5 -40t128.5 -40q73 0 117 62l26 -19q-27 -46 -68.5 -71t-86.5 -25q-43 0 -122 40t-128 40q-39 0 -63.5 -16t-49.5 -46zM201 1022q191 53 366 53q201 0 293 -76.5t92 -259.5v-647q0 -53 68 -53l65 4v-35q-28 -8 -81 -8
q-43 0 -68 25.5t-25 68.5v160q-48 -120 -165 -192t-271 -72q-71 0 -135.5 17t-120 52.5t-88.5 99t-33 148.5q0 73 25.5 129t68 91.5t103 58.5t125 32t139.5 9q81 0 169 -10.5t136 -20.5l47 -10v159q0 161 -88 225t-262 64q-196 0 -350 -49zM911 543q-172 43 -356 43
q-65 0 -122 -7.5t-112.5 -27.5t-94.5 -50.5t-63 -80.5t-24 -115q0 -73 30 -128.5t80 -86t106.5 -45t117.5 -14.5q179 0 308.5 107.5t129.5 254.5v150z" />
    <glyph glyph-name="adieresis" unicode="&#xe4;" horiz-adv-x="1161" 
d="M467 1243q0 -24 -16.5 -39.5t-44.5 -15.5q-25 0 -41.5 16t-16.5 39q0 25 17.5 42.5t40.5 17.5q29 0 45 -16.5t16 -43.5zM811 1243q0 -24 -16.5 -39.5t-44.5 -15.5q-25 0 -41.5 16t-16.5 39q0 25 17.5 42.5t40.5 17.5q29 0 45 -16.5t16 -43.5zM201 1022q191 53 366 53
q201 0 293 -76.5t92 -259.5v-647q0 -53 68 -53l65 4v-35q-28 -8 -81 -8q-43 0 -68 25.5t-25 68.5v160q-48 -120 -165 -192t-271 -72q-71 0 -135.5 17t-120 52.5t-88.5 99t-33 148.5q0 73 25.5 129t68 91.5t103 58.5t125 32t139.5 9q81 0 169 -10.5t136 -20.5l47 -10v159
q0 161 -88 225t-262 64q-196 0 -350 -49zM911 543q-172 43 -356 43q-65 0 -122 -7.5t-112.5 -27.5t-94.5 -50.5t-63 -80.5t-24 -115q0 -73 30 -128.5t80 -86t106.5 -45t117.5 -14.5q179 0 308.5 107.5t129.5 254.5v150z" />
    <glyph glyph-name="aring" unicode="&#xe5;" horiz-adv-x="1161" 
d="M418 1339q0 62 46.5 106t110.5 44t111 -44t47 -106t-47 -105.5t-111 -43.5t-110.5 43.5t-46.5 105.5zM575 1458q-51 0 -90 -36t-39 -83t39 -82.5t90 -35.5q50 0 90 35.5t40 82.5t-40 83t-90 36zM201 1022q191 53 366 53q201 0 293 -76.5t92 -259.5v-647q0 -53 68 -53
l65 4v-35q-28 -8 -81 -8q-43 0 -68 25.5t-25 68.5v160q-48 -120 -165 -192t-271 -72q-71 0 -135.5 17t-120 52.5t-88.5 99t-33 148.5q0 73 25.5 129t68 91.5t103 58.5t125 32t139.5 9q81 0 169 -10.5t136 -20.5l47 -10v159q0 161 -88 225t-262 64q-196 0 -350 -49zM911 543
q-172 43 -356 43q-65 0 -122 -7.5t-112.5 -27.5t-94.5 -50.5t-63 -80.5t-24 -115q0 -73 30 -128.5t80 -86t106.5 -45t117.5 -14.5q179 0 308.5 107.5t129.5 254.5v150z" />
    <glyph glyph-name="ae" unicode="&#xe6;" horiz-adv-x="2002" 
d="M201 1022q191 53 366 53q190 0 282.5 -67.5t102.5 -227.5q65 132 188 213.5t273 81.5q108 0 201 -45.5t154 -120.5t95.5 -170t34.5 -194l-2 -31h-962q7 -131 70.5 -240t177.5 -176t256 -67q156 0 348 84l16 -33q-137 -60 -229 -79q-67 -13 -131 -13q-173 0 -306.5 90
t-195.5 233q-44 -153 -174 -238t-293 -85q-71 0 -134.5 17t-119 52.5t-88.5 99t-33 148.5q0 73 25.5 129t68 91.5t103 58.5t125 32t139.5 9q163 0 338 -39q2 30 14 88v69q0 161 -88 225t-262 64q-196 0 -350 -49zM893 532v15q-191 39 -336 39q-66 0 -123.5 -7.5t-113 -27.5
t-94.5 -50.5t-63 -80.5t-24 -115q0 -73 30 -128.5t80 -86t106.5 -45t117.5 -14.5q118 0 219 49t160 132t59 179q-18 67 -18 141zM934 553h921q0 69 -19 137.5t-57 130t-90 109.5t-123.5 76t-152.5 28q-128 0 -237.5 -67t-173.5 -177.5t-68 -236.5z" />
    <glyph glyph-name="ccedilla" unicode="&#xe7;" horiz-adv-x="1081" 
d="M559 -172l-29 27l52 143q-200 32 -329.5 182t-129.5 352q0 148 73.5 273t201.5 197.5t282 72.5q147 0 291 -61l-17 -35q-14 6 -38.5 15t-95.5 24.5t-136 15.5q-108 0 -205 -40.5t-166 -108.5t-109 -160t-40 -193q0 -135 68 -250t188 -183t264 -68q65 0 132.5 13.5
t102.5 27.5l35 14l17 -35q-144 -61 -291 -61q-26 0 -66 4l-28 -125q10 2 22 2q66 0 101.5 -36t35.5 -87q0 -69 -45 -104t-110 -35q-64 0 -121 31l10 30q48 -18 103 -18q49 0 83.5 23t34.5 71q0 40 -28.5 64t-75.5 24q-13 0 -37 -6z" />
    <glyph glyph-name="egrave" unicode="&#xe8;" horiz-adv-x="1232" 
d="M522 1423l64 37l108 -272h-24zM123 532q0 143 67.5 267.5t188 200t264.5 75.5q108 0 201 -45.5t154 -120.5t95.5 -170t34.5 -194l-2 -31h-962q5 -97 44 -185t103.5 -154t157.5 -105t201 -39q154 0 346 84l16 -33q-137 -60 -229 -79q-67 -13 -131 -13q-120 0 -224 44.5
t-174.5 119.5t-110.5 173.5t-40 204.5zM164 553h921q0 69 -19 137.5t-57 130t-90 109.5t-123.5 76t-152.5 28q-128 0 -237.5 -67t-173.5 -177.5t-68 -236.5z" />
    <glyph glyph-name="eacute" unicode="&#xe9;" horiz-adv-x="1232" 
d="M719 1460l63 -37l-147 -235h-25zM123 532q0 143 67.5 267.5t188 200t264.5 75.5q108 0 201 -45.5t154 -120.5t95.5 -170t34.5 -194l-2 -31h-962q5 -97 44 -185t103.5 -154t157.5 -105t201 -39q154 0 346 84l16 -33q-137 -60 -229 -79q-67 -13 -131 -13q-120 0 -224 44.5
t-174.5 119.5t-110.5 173.5t-40 204.5zM164 553h921q0 69 -19 137.5t-57 130t-90 109.5t-123.5 76t-152.5 28q-128 0 -237.5 -67t-173.5 -177.5t-68 -236.5z" />
    <glyph glyph-name="ecircumflex" unicode="&#xea;" horiz-adv-x="1232" 
d="M492 1190h-46l177 192h39l176 -192h-45l-150 145zM123 532q0 143 67.5 267.5t188 200t264.5 75.5q108 0 201 -45.5t154 -120.5t95.5 -170t34.5 -194l-2 -31h-962q5 -97 44 -185t103.5 -154t157.5 -105t201 -39q154 0 346 84l16 -33q-137 -60 -229 -79q-67 -13 -131 -13
q-120 0 -224 44.5t-174.5 119.5t-110.5 173.5t-40 204.5zM164 553h921q0 69 -19 137.5t-57 130t-90 109.5t-123.5 76t-152.5 28q-128 0 -237.5 -67t-173.5 -177.5t-68 -236.5z" />
    <glyph glyph-name="edieresis" unicode="&#xeb;" horiz-adv-x="1232" 
d="M532 1243q0 -24 -16.5 -39.5t-44.5 -15.5q-25 0 -41 16t-16 39q0 25 17 42.5t40 17.5q29 0 45 -16.5t16 -43.5zM877 1243q0 -24 -16.5 -39.5t-45.5 -15.5q-25 0 -41 16t-16 39q0 25 17 42.5t40 17.5q29 0 45.5 -16.5t16.5 -43.5zM123 532q0 143 67.5 267.5t188 200
t264.5 75.5q108 0 201 -45.5t154 -120.5t95.5 -170t34.5 -194l-2 -31h-962q5 -97 44 -185t103.5 -154t157.5 -105t201 -39q154 0 346 84l16 -33q-137 -60 -229 -79q-67 -13 -131 -13q-120 0 -224 44.5t-174.5 119.5t-110.5 173.5t-40 204.5zM164 553h921q0 69 -19 137.5
t-57 130t-90 109.5t-123.5 76t-152.5 28q-128 0 -237.5 -67t-173.5 -177.5t-68 -236.5z" />
    <glyph glyph-name="igrave" unicode="&#xec;" horiz-adv-x="440" 
d="M102 1065h142v-1065h-41v1018l-101 20v27zM41 1423l63 37l109 -272h-25z" />
    <glyph glyph-name="iacute" unicode="&#xed;" horiz-adv-x="440" 
d="M102 1065h142v-1065h-41v1018l-101 20v27zM289 1460l63 -37l-147 -235h-25z" />
    <glyph glyph-name="icircumflex" unicode="&#xee;" horiz-adv-x="440" 
d="M102 1065h142v-1065h-41v1018l-101 20v27zM37 1188h-45l176 192h39l176 -192h-45l-150 145z" />
    <glyph glyph-name="idieresis" unicode="&#xef;" horiz-adv-x="440" 
d="M102 1065h142v-1065h-41v1018l-101 20v27zM55 1243q0 -24 -16.5 -39.5t-44.5 -15.5q-25 0 -41 16t-16 39q0 25 17 42.5t40 17.5q29 0 45 -16.5t16 -43.5zM399 1243q0 -24 -16.5 -39.5t-44.5 -15.5q-25 0 -41 16t-16 39q0 25 17 42.5t40 17.5q29 0 45 -16.5t16 -43.5z" />
    <glyph glyph-name="eth" unicode="&#xf0;" horiz-adv-x="1153" 
d="M397 1468q186 -68 322 -172l192 131l19 -24l-187 -127q92 -80 156 -181t94 -204t42 -187t12 -169q0 -245 -122.5 -390t-324.5 -145q-139 0 -241.5 63t-152.5 163.5t-50 222.5q0 196 126 320t316 124q134 0 242 -67.5t164 -194.5h2q-15 194 -89 356.5t-202 265.5
l-219 -145l-19 27l211 141q-127 99 -301 166zM596 852q-177 0 -288 -117t-111 -291q0 -173 109.5 -288t293.5 -115q113 0 203.5 56.5t140 152t49.5 209.5q0 94 -33.5 170t-89.5 124t-126.5 73.5t-147.5 25.5z" />
    <glyph glyph-name="ntilde" unicode="&#xf1;" horiz-adv-x="1253" 
d="M389 1206l-27 19q35 58 86 81t107 9q27 -6 90 -40t119 -34q73 0 117 62l26 -19q-33 -57 -86 -80.5t-110 -9.5q-28 6 -91.5 40t-117.5 34q-39 0 -63.5 -16t-49.5 -46zM197 1065h30l11 -305q7 30 26 68t55.5 82.5t83 80.5t115 60t144.5 24q205 0 306 -125t101 -338v-612
h-41v618q0 193 -92 304.5t-270 111.5q-86 0 -159 -29t-121.5 -75t-82.5 -105.5t-49.5 -119.5t-15.5 -117v-588h-41v1065z" />
    <glyph glyph-name="ograve" unicode="&#xf2;" horiz-adv-x="1329" 
d="M123 530q0 148 73 273.5t197.5 198.5t270.5 73q148 0 273 -73t197 -198.5t72 -273.5q0 -110 -42.5 -209.5t-115 -172t-173 -115.5t-211.5 -43q-146 0 -270.5 72.5t-197.5 197t-73 270.5zM664 1034q-135 0 -250 -68t-182.5 -184t-67.5 -252q0 -135 67.5 -250t182.5 -182
t250 -67q102 0 194.5 39.5t159.5 106.5t107 159.5t40 193.5q0 136 -67 252t-182.5 184t-251.5 68zM541 1423l63 37l109 -272h-25z" />
    <glyph glyph-name="oacute" unicode="&#xf3;" horiz-adv-x="1329" 
d="M123 530q0 148 73 273.5t197.5 198.5t270.5 73q148 0 273 -73t197 -198.5t72 -273.5q0 -110 -42.5 -209.5t-115 -172t-173 -115.5t-211.5 -43q-146 0 -270.5 72.5t-197.5 197t-73 270.5zM664 1034q-135 0 -250 -68t-182.5 -184t-67.5 -252q0 -135 67.5 -250t182.5 -182
t250 -67q102 0 194.5 39.5t159.5 106.5t107 159.5t40 193.5q0 136 -67 252t-182.5 184t-251.5 68zM756 1460l63 -37l-147 -235h-25z" />
    <glyph glyph-name="ocircumflex" unicode="&#xf4;" horiz-adv-x="1329" 
d="M123 530q0 148 73 273.5t197.5 198.5t270.5 73q148 0 273 -73t197 -198.5t72 -273.5q0 -110 -42.5 -209.5t-115 -172t-173 -115.5t-211.5 -43q-146 0 -270.5 72.5t-197.5 197t-73 270.5zM664 1034q-135 0 -250 -68t-182.5 -184t-67.5 -252q0 -135 67.5 -250t182.5 -182
t250 -67q102 0 194.5 39.5t159.5 106.5t107 159.5t40 193.5q0 136 -67 252t-182.5 184t-251.5 68zM514 1188h-45l176 192h39l176 -192h-45l-149 145z" />
    <glyph glyph-name="otilde" unicode="&#xf5;" horiz-adv-x="1329" 
d="M123 530q0 148 73 273.5t197.5 198.5t270.5 73q148 0 273 -73t197 -198.5t72 -273.5q0 -110 -42.5 -209.5t-115 -172t-173 -115.5t-211.5 -43q-146 0 -270.5 72.5t-197.5 197t-73 270.5zM664 1034q-135 0 -250 -68t-182.5 -184t-67.5 -252q0 -135 67.5 -250t182.5 -182
t250 -67q102 0 194.5 39.5t159.5 106.5t107 159.5t40 193.5q0 136 -67 252t-182.5 184t-251.5 68zM418 1206l-27 19q35 58 86 81t107 9q27 -6 90 -40t119 -34q72 0 116 62l27 -19q-33 -57 -86.5 -80.5t-110.5 -9.5q-28 6 -91.5 40t-117.5 34q-39 0 -63 -15.5t-49 -46.5z" />
    <glyph glyph-name="odieresis" unicode="&#xf6;" horiz-adv-x="1329" 
d="M123 530q0 148 73 273.5t197.5 198.5t270.5 73q148 0 273 -73t197 -198.5t72 -273.5q0 -110 -42.5 -209.5t-115 -172t-173 -115.5t-211.5 -43q-146 0 -270.5 72.5t-197.5 197t-73 270.5zM664 1034q-135 0 -250 -68t-182.5 -184t-67.5 -252q0 -135 67.5 -250t182.5 -182
t250 -67q102 0 194.5 39.5t159.5 106.5t107 159.5t40 193.5q0 136 -67 252t-182.5 184t-251.5 68zM551 1243q0 -24 -16.5 -39.5t-45.5 -15.5q-25 0 -41 16t-16 39q0 25 17 42.5t40 17.5q29 0 45.5 -16.5t16.5 -43.5zM895 1243q0 -24 -16.5 -39.5t-44.5 -15.5q-25 0 -41.5 16
t-16.5 39q0 25 17.5 42.5t40.5 17.5q29 0 45 -16.5t16 -43.5z" />
    <glyph glyph-name="divide" unicode="&#xf7;" horiz-adv-x="1181" 
d="M592 1018q28 0 47.5 -20.5t19.5 -49.5t-19.5 -49t-47.5 -20q-29 0 -49.5 18.5t-20.5 50.5q0 29 20.5 49.5t49.5 20.5zM188 659h805v-43h-805v43zM592 399q28 0 47.5 -20t19.5 -49t-19.5 -49.5t-47.5 -20.5q-29 0 -49.5 19t-20.5 51q0 29 20.5 49t49.5 20z" />
    <glyph glyph-name="oslash" unicode="&#xf8;" horiz-adv-x="1329" 
d="M123 530q0 148 73 273.5t197.5 198.5t270.5 73q147 0 278 -78l84 133h45l-98 -153q107 -75 170 -193t63 -254q0 -110 -42.5 -209.5t-115 -172t-173 -115.5t-211.5 -43q-151 0 -275 76l-84 -132h-47l98 152q-108 75 -170.5 191.5t-62.5 252.5zM664 1034q-135 0 -250 -68
t-182.5 -184t-67.5 -252q0 -125 57 -232.5t156 -176.5l543 842q-120 71 -256 71zM1165 530q0 125 -58 234t-157 178l-538 -842q113 -69 252 -69q102 0 194.5 39.5t159.5 106.5t107 159.5t40 193.5z" />
    <glyph glyph-name="ugrave" unicode="&#xf9;" horiz-adv-x="1253" 
d="M483 1423l64 37l108 -272h-24zM184 1065h41v-619q0 -97 21 -171t66.5 -130t124 -85t188.5 -29q156 0 273.5 120t117.5 279v635h41v-1065h-31l-10 264q-45 -123 -155.5 -198.5t-235.5 -75.5q-223 0 -332 113.5t-109 328.5v633z" />
    <glyph glyph-name="uacute" unicode="&#xfa;" horiz-adv-x="1253" 
d="M678 1460l63 -37l-147 -235h-25zM184 1065h41v-619q0 -97 21 -171t66.5 -130t124 -85t188.5 -29q156 0 273.5 120t117.5 279v635h41v-1065h-31l-10 264q-45 -123 -155.5 -198.5t-235.5 -75.5q-223 0 -332 113.5t-109 328.5v633z" />
    <glyph glyph-name="ucircumflex" unicode="&#xfb;" horiz-adv-x="1253" 
d="M475 1188h-45l176 192h39l176 -192h-45l-149 145zM184 1065h41v-619q0 -97 21 -171t66.5 -130t124 -85t188.5 -29q156 0 273.5 120t117.5 279v635h41v-1065h-31l-10 264q-45 -123 -155.5 -198.5t-235.5 -75.5q-223 0 -332 113.5t-109 328.5v633z" />
    <glyph glyph-name="udieresis" unicode="&#xfc;" horiz-adv-x="1253" 
d="M512 1243q0 -24 -16.5 -39.5t-44.5 -15.5q-25 0 -41.5 16t-16.5 39q0 25 17.5 42.5t40.5 17.5q29 0 45 -16.5t16 -43.5zM856 1243q0 -24 -16.5 -39.5t-44.5 -15.5q-25 0 -41.5 16t-16.5 39q0 25 17.5 42.5t40.5 17.5q29 0 45 -16.5t16 -43.5zM184 1065h41v-619
q0 -97 21 -171t66.5 -130t124 -85t188.5 -29q156 0 273.5 120t117.5 279v635h41v-1065h-31l-10 264q-45 -123 -155.5 -198.5t-235.5 -75.5q-223 0 -332 113.5t-109 328.5v633z" />
    <glyph glyph-name="yacute" unicode="&#xfd;" horiz-adv-x="1015" 
d="M59 1065h43l406 -1012h4l397 1012h45l-428 -1081q-56 -140 -93 -198q-86 -134 -204 -134q-66 0 -147 31l14 36q73 -26 127 -26q42 0 79.5 19.5t63 46.5t51.5 73t40.5 80.5t34.5 87.5zM563 1460l64 -37l-148 -235h-24z" />
    <glyph glyph-name="thorn" unicode="&#xfe;" horiz-adv-x="1316" 
d="M692 1034q-133 0 -239 -69t-163 -184t-57 -253q0 -215 132.5 -356t324.5 -141q200 0 335.5 142.5t135.5 348.5q0 138 -63 256t-171 187t-235 69zM690 1075q138 0 256 -74.5t187 -202t69 -276.5q0 -140 -64 -261.5t-183 -196t-265 -74.5q-153 0 -278.5 88.5t-173.5 226.5
v-653h-41v1782h41v-689q61 154 179.5 242t272.5 88z" />
    <glyph glyph-name="ydieresis" unicode="&#xff;" horiz-adv-x="1015" 
d="M59 1065h43l406 -1012h4l397 1012h45l-428 -1081q-56 -140 -93 -198q-86 -134 -204 -134q-66 0 -147 31l14 36q73 -26 127 -26q42 0 79.5 19.5t63 46.5t51.5 73t40.5 80.5t34.5 87.5zM393 1243q0 -24 -16.5 -39.5t-44.5 -15.5q-25 0 -41.5 16t-16.5 39q0 25 17.5 42.5
t40.5 17.5q29 0 45 -16.5t16 -43.5zM737 1243q0 -24 -16.5 -39.5t-44.5 -15.5q-25 0 -41.5 16t-16.5 39q0 25 17.5 42.5t40.5 17.5q29 0 45 -16.5t16 -43.5z" />
    <glyph glyph-name="Amacron" unicode="&#x100;" horiz-adv-x="1314" 
d="M367 1556h583v-40h-583v40zM633 1444h49l561 -1444h-45l-164 422h-753l-162 -422h-45zM657 1405l-360 -944h721z" />
    <glyph glyph-name="amacron" unicode="&#x101;" horiz-adv-x="1161" 
d="M274 1229h584v-41h-584v41zM201 1022q191 53 366 53q201 0 293 -76.5t92 -259.5v-647q0 -53 68 -53l65 4v-35q-28 -8 -81 -8q-43 0 -68 25.5t-25 68.5v160q-48 -120 -165 -192t-271 -72q-71 0 -135.5 17t-120 52.5t-88.5 99t-33 148.5q0 73 25.5 129t68 91.5t103 58.5
t125 32t139.5 9q81 0 169 -10.5t136 -20.5l47 -10v159q0 161 -88 225t-262 64q-196 0 -350 -49zM911 543q-172 43 -356 43q-65 0 -122 -7.5t-112.5 -27.5t-94.5 -50.5t-63 -80.5t-24 -115q0 -73 30 -128.5t80 -86t106.5 -45t117.5 -14.5q179 0 308.5 107.5t129.5 254.5v150z
" />
    <glyph glyph-name="Abreve" unicode="&#x102;" horiz-adv-x="1314" 
d="M438 1698h31q27 -71 68 -104t122 -33t122 32t65 105h33q-18 -94 -68 -138t-152 -44q-104 0 -152.5 43t-68.5 139zM633 1444h49l561 -1444h-45l-164 422h-753l-162 -422h-45zM657 1405l-360 -944h721z" />
    <glyph glyph-name="abreve" unicode="&#x103;" horiz-adv-x="1161" 
d="M350 1370h31q27 -71 68 -104t122 -33t122 32t65 105h33q-18 -94 -68 -138t-152 -44q-104 0 -152.5 43t-68.5 139zM201 1022q191 53 366 53q201 0 293 -76.5t92 -259.5v-647q0 -53 68 -53l65 4v-35q-28 -8 -81 -8q-43 0 -68 25.5t-25 68.5v160q-48 -120 -165 -192
t-271 -72q-71 0 -135.5 17t-120 52.5t-88.5 99t-33 148.5q0 73 25.5 129t68 91.5t103 58.5t125 32t139.5 9q81 0 169 -10.5t136 -20.5l47 -10v159q0 161 -88 225t-262 64q-196 0 -350 -49zM911 543q-172 43 -356 43q-65 0 -122 -7.5t-112.5 -27.5t-94.5 -50.5t-63 -80.5
t-24 -115q0 -73 30 -128.5t80 -86t106.5 -45t117.5 -14.5q179 0 308.5 107.5t129.5 254.5v150z" />
    <glyph glyph-name="Aogonek" unicode="&#x104;" horiz-adv-x="1314" 
d="M633 1444h49l561 -1444h-4q-133 -48 -133 -147q0 -43 24 -62.5t56 -19.5t82 12l12 -39q-37 -21 -68 -27q-39 -6 -79 4q-84 24 -84 117q0 38 18 76q35 69 123 98h2l-158 410h-753l-162 -422h-45zM657 1405l-360 -944h721z" />
    <glyph glyph-name="aogonek" unicode="&#x105;" horiz-adv-x="1161" 
d="M201 1022q191 53 366 53q201 0 293 -76.5t92 -259.5v-647q0 -53 68 -53l65 4v-35q-28 -8 -81 -8q-134 -48 -134 -147q0 -43 24 -62.5t56 -19.5t82 12l12 -39q-38 -21 -67 -27q-67 -10 -115.5 20.5t-48.5 100.5q0 60 37.5 105t101.5 69q-41 21 -41 82v160
q-48 -120 -165 -192t-271 -72q-71 0 -135.5 17t-120 52.5t-88.5 99t-33 148.5q0 73 25.5 129t68 91.5t103 58.5t125 32t139.5 9q81 0 169 -10.5t136 -20.5l47 -10v159q0 161 -88 225t-262 64q-196 0 -350 -49zM911 543q-172 43 -356 43q-65 0 -122 -7.5t-112.5 -27.5
t-94.5 -50.5t-63 -80.5t-24 -115q0 -73 30 -128.5t80 -86t106.5 -45t117.5 -14.5q179 0 308.5 107.5t129.5 254.5v150z" />
    <glyph glyph-name="Cacute" unicode="&#x106;" horiz-adv-x="1402" 
d="M858 1444q203 0 414 -98l-17 -35q-21 10 -57 25.5t-139 41t-195 25.5q-138 0 -264.5 -54t-218.5 -145.5t-146.5 -219t-54.5 -267.5t54.5 -267.5t146.5 -219t218.5 -145.5t264.5 -54q92 0 190 23t150 46l51 23l17 -35q-211 -98 -414 -98q-142 0 -274.5 57.5t-230 154.5
t-156 232t-58.5 283t58.5 283t156 232t230 154.5t274.5 57.5zM920 1788l63 -37l-147 -235h-25z" />
    <glyph glyph-name="cacute" unicode="&#x107;" horiz-adv-x="1081" 
d="M719 1460l63 -37l-147 -235h-25zM680 -10q-154 0 -282 72.5t-201.5 197t-73.5 272.5t73.5 273t201.5 197.5t282 72.5q147 0 291 -61l-17 -35q-14 6 -38.5 15t-95.5 24.5t-136 15.5q-108 0 -205 -40.5t-166 -108.5t-109 -160t-40 -193q0 -135 68 -250t188 -183t264 -68
q65 0 132.5 13.5t102.5 27.5l35 14l17 -35q-144 -61 -291 -61z" />
    <glyph glyph-name="Ccircumflex" unicode="&#x108;" horiz-adv-x="1402" 
d="M858 1444q203 0 414 -98l-17 -35q-21 10 -57 25.5t-139 41t-195 25.5q-138 0 -264.5 -54t-218.5 -145.5t-146.5 -219t-54.5 -267.5t54.5 -267.5t146.5 -219t218.5 -145.5t264.5 -54q92 0 190 23t150 46l51 23l17 -35q-211 -98 -414 -98q-142 0 -274.5 57.5t-230 154.5
t-156 232t-58.5 283t58.5 283t156 232t230 154.5t274.5 57.5zM725 1516h-45l176 192h39l176 -192h-45l-149 145z" />
    <glyph glyph-name="ccircumflex" unicode="&#x109;" horiz-adv-x="1081" 
d="M524 1188h-45l176 192h39l176 -192h-45l-149 145zM680 -10q-154 0 -282 72.5t-201.5 197t-73.5 272.5t73.5 273t201.5 197.5t282 72.5q147 0 291 -61l-17 -35q-14 6 -38.5 15t-95.5 24.5t-136 15.5q-108 0 -205 -40.5t-166 -108.5t-109 -160t-40 -193q0 -135 68 -250
t188 -183t264 -68q65 0 132.5 13.5t102.5 27.5l35 14l17 -35q-144 -61 -291 -61z" />
    <glyph glyph-name="Cdotaccent" unicode="&#x10a;" horiz-adv-x="1402" 
d="M858 1444q203 0 414 -98l-17 -35q-21 10 -57 25.5t-139 41t-195 25.5q-138 0 -264.5 -54t-218.5 -145.5t-146.5 -219t-54.5 -267.5t54.5 -267.5t146.5 -219t218.5 -145.5t264.5 -54q92 0 190 23t150 46l51 23l17 -35q-211 -98 -414 -98q-142 0 -274.5 57.5t-230 154.5
t-156 232t-58.5 283t58.5 283t156 232t230 154.5t274.5 57.5zM932 1577q0 -27 -18 -44t-50 -17q-28 0 -45.5 17.5t-17.5 43.5q0 28 18.5 46.5t44.5 18.5q32 0 50 -17.5t18 -47.5z" />
    <glyph glyph-name="cdotaccent" unicode="&#x10b;" horiz-adv-x="1081" 
d="M739 1249q0 -27 -18 -44t-49 -17q-28 0 -46 17.5t-18 43.5q0 28 19 47t45 19q32 0 49.5 -18t17.5 -48zM680 -10q-154 0 -282 72.5t-201.5 197t-73.5 272.5t73.5 273t201.5 197.5t282 72.5q147 0 291 -61l-17 -35q-14 6 -38.5 15t-95.5 24.5t-136 15.5q-108 0 -205 -40.5
t-166 -108.5t-109 -160t-40 -193q0 -135 68 -250t188 -183t264 -68q65 0 132.5 13.5t102.5 27.5l35 14l17 -35q-144 -61 -291 -61z" />
    <glyph glyph-name="Ccaron" unicode="&#x10c;" horiz-adv-x="1402" 
d="M858 1444q203 0 414 -98l-17 -35q-21 10 -57 25.5t-139 41t-195 25.5q-138 0 -264.5 -54t-218.5 -145.5t-146.5 -219t-54.5 -267.5t54.5 -267.5t146.5 -219t218.5 -145.5t264.5 -54q92 0 190 23t150 46l51 23l17 -35q-211 -98 -414 -98q-142 0 -274.5 57.5t-230 154.5
t-156 232t-58.5 283t58.5 283t156 232t230 154.5t274.5 57.5zM674 1708h45l151 -145l150 145h45l-176 -192h-39z" />
    <glyph glyph-name="ccaron" unicode="&#x10d;" horiz-adv-x="1081" 
d="M475 1380h45l152 -145l149 145h45l-176 -192h-39zM680 -10q-154 0 -282 72.5t-201.5 197t-73.5 272.5t73.5 273t201.5 197.5t282 72.5q147 0 291 -61l-17 -35q-14 6 -38.5 15t-95.5 24.5t-136 15.5q-108 0 -205 -40.5t-166 -108.5t-109 -160t-40 -193q0 -135 68 -250
t188 -183t264 -68q65 0 132.5 13.5t102.5 27.5l35 14l17 -35q-144 -61 -291 -61z" />
    <glyph glyph-name="Dcaron" unicode="&#x10e;" horiz-adv-x="1478" 
d="M709 0h-473v1434h473q25 0 57.5 -3.5t108.5 -25.5t145 -62q161 -94 236 -259t75 -367t-75 -367.5t-236 -259.5q-158 -90 -311 -90zM279 1393v-1352h430q22 0 53.5 3.5t103 25t135.5 59.5q146 85 217.5 237t71.5 351t-71.5 351t-217.5 237q-64 38 -135.5 59.5t-103 25
t-53.5 3.5h-430zM446 1708h46l151 -145l150 145h45l-176 -192h-39z" />
    <glyph glyph-name="dcaron" unicode="&#x10f;" horiz-adv-x="1409" 
d="M1427 1475q34 0 53 -30t19 -65q0 -94 -119 -153l-10 20q40 20 68.5 65.5t9.5 84.5q-15 -15 -35 -15q-18 0 -28.5 12.5t-10.5 30.5q0 21 16.5 35.5t36.5 14.5zM1090 1499h40v-1499h-30l-10 311q-52 -145 -175 -233t-286 -88q-222 0 -363 155.5t-141 386.5
q0 151 62.5 274.5t178.5 196t263 72.5q152 0 278.5 -87.5t182.5 -225.5v737zM631 1034q-132 0 -238.5 -66.5t-166.5 -181.5t-60 -254t60 -253.5t166.5 -181t238.5 -66.5q133 0 239 67.5t164 182t58 251.5q0 215 -134.5 358.5t-326.5 143.5z" />
    <glyph glyph-name="Dcroat" unicode="&#x110;" horiz-adv-x="1480" 
d="M711 0h-471v696h-197v43h197v695h471q25 0 57.5 -3.5t108.5 -25.5t145 -62q161 -94 236 -259t75 -367t-75 -367.5t-236 -259.5q-158 -90 -311 -90zM281 1393v-654h395v-43h-395v-655h430q22 0 53.5 3.5t103.5 25t136 59.5q146 85 217 237t71 351t-71 351t-217 237
q-64 38 -136 59.5t-103.5 25t-53.5 3.5h-430z" />
    <glyph glyph-name="dcroat" unicode="&#x111;" horiz-adv-x="1327" 
d="M1090 1499h40v-215h191v-31h-191v-1253h-30l-10 311q-52 -145 -175 -233t-286 -88q-222 0 -363 155.5t-141 386.5q0 151 62.5 274.5t178.5 196t263 72.5q152 0 278.5 -87.5t182.5 -225.5v491h-361v31h361v215zM631 1034q-132 0 -238.5 -66.5t-166.5 -181.5t-60 -254
t60 -253.5t166.5 -181t238.5 -66.5q133 0 239 67.5t164 182t58 251.5q0 215 -134.5 358.5t-326.5 143.5z" />
    <glyph glyph-name="Emacron" unicode="&#x112;" horiz-adv-x="1351" 
d="M236 1434h952v-41h-912v-676h785v-41h-785v-635h953v-41h-993v1434zM434 1556h584v-40h-584v40z" />
    <glyph glyph-name="emacron" unicode="&#x113;" horiz-adv-x="1232" 
d="M346 1229h584v-41h-584v41zM123 532q0 143 67.5 267.5t188 200t264.5 75.5q108 0 201 -45.5t154 -120.5t95.5 -170t34.5 -194l-2 -31h-962q5 -97 44 -185t103.5 -154t157.5 -105t201 -39q154 0 346 84l16 -33q-137 -60 -229 -79q-67 -13 -131 -13q-120 0 -224 44.5
t-174.5 119.5t-110.5 173.5t-40 204.5zM164 553h921q0 69 -19 137.5t-57 130t-90 109.5t-123.5 76t-152.5 28q-128 0 -237.5 -67t-173.5 -177.5t-68 -236.5z" />
    <glyph glyph-name="Ebreve" unicode="&#x114;" horiz-adv-x="1351" 
d="M236 1434h952v-41h-912v-676h785v-41h-785v-635h953v-41h-993v1434zM485 1698h31q27 -70 68.5 -103.5t122.5 -33.5t121.5 32t64.5 105h33q-18 -94 -67.5 -138t-151.5 -44q-104 0 -153.5 43t-68.5 139z" />
    <glyph glyph-name="ebreve" unicode="&#x115;" horiz-adv-x="1232" 
d="M403 1370h31q27 -70 68.5 -103.5t122.5 -33.5t121.5 32t64.5 105h33q-18 -94 -67.5 -138t-151.5 -44q-104 0 -153.5 43t-68.5 139zM123 532q0 143 67.5 267.5t188 200t264.5 75.5q108 0 201 -45.5t154 -120.5t95.5 -170t34.5 -194l-2 -31h-962q5 -97 44 -185t103.5 -154
t157.5 -105t201 -39q154 0 346 84l16 -33q-137 -60 -229 -79q-67 -13 -131 -13q-120 0 -224 44.5t-174.5 119.5t-110.5 173.5t-40 204.5zM164 553h921q0 69 -19 137.5t-57 130t-90 109.5t-123.5 76t-152.5 28q-128 0 -237.5 -67t-173.5 -177.5t-68 -236.5z" />
    <glyph glyph-name="Edotaccent" unicode="&#x116;" horiz-adv-x="1351" 
d="M236 1434h952v-41h-912v-676h785v-41h-785v-635h953v-41h-993v1434zM801 1577q0 -27 -18 -44t-50 -17q-28 0 -45.5 17.5t-17.5 43.5q0 28 18.5 46.5t44.5 18.5q32 0 50 -17.5t18 -47.5z" />
    <glyph glyph-name="edotaccent" unicode="&#x117;" horiz-adv-x="1232" 
d="M713 1249q0 -27 -18 -44t-50 -17q-28 0 -45.5 17.5t-17.5 43.5q0 28 18.5 47t44.5 19q32 0 50 -18t18 -48zM123 532q0 143 67.5 267.5t188 200t264.5 75.5q108 0 201 -45.5t154 -120.5t95.5 -170t34.5 -194l-2 -31h-962q5 -97 44 -185t103.5 -154t157.5 -105t201 -39
q154 0 346 84l16 -33q-137 -60 -229 -79q-67 -13 -131 -13q-120 0 -224 44.5t-174.5 119.5t-110.5 173.5t-40 204.5zM164 553h921q0 69 -19 137.5t-57 130t-90 109.5t-123.5 76t-152.5 28q-128 0 -237.5 -67t-173.5 -177.5t-68 -236.5z" />
    <glyph glyph-name="Eogonek" unicode="&#x118;" horiz-adv-x="1351" 
d="M236 1434h952v-41h-912v-676h785v-41h-785v-635h953v-41h-41q-133 -48 -133 -147q0 -43 24 -62.5t56 -19.5q33 0 82 12l12 -39q-37 -21 -68 -27q-67 -10 -115.5 20.5t-48.5 100.5q0 55 33.5 96.5t91.5 65.5h-886v1434z" />
    <glyph glyph-name="eogonek" unicode="&#x119;" horiz-adv-x="1232" 
d="M123 532q0 143 67.5 267.5t188 200t264.5 75.5q108 0 201 -45.5t154 -120.5t95.5 -170t34.5 -194l-2 -31h-962q5 -97 44 -185t103.5 -154t157.5 -105t201 -39q154 0 346 84l16 -33q-76 -34 -133 -53q-127 -48 -127 -146q0 -43 24 -62.5t56 -19.5q28 0 82 13l12 -39
q-38 -21 -67 -27q-67 -10 -115.5 20.5t-48.5 100.5q0 77 61 129q-66 -8 -104 -8q-120 0 -224 44.5t-174.5 119.5t-110.5 173.5t-40 204.5zM164 553h921q0 69 -19 137.5t-57 130t-90 109.5t-123.5 76t-152.5 28q-128 0 -237.5 -67t-173.5 -177.5t-68 -236.5z" />
    <glyph glyph-name="Ecaron" unicode="&#x11a;" horiz-adv-x="1351" 
d="M236 1434h952v-41h-912v-676h785v-41h-785v-635h953v-41h-993v1434zM504 1708h45l151 -145l150 145h45l-176 -192h-39z" />
    <glyph glyph-name="ecaron" unicode="&#x11b;" horiz-adv-x="1232" 
d="M446 1380h46l151 -145l150 145h45l-176 -192h-39zM123 532q0 143 67.5 267.5t188 200t264.5 75.5q108 0 201 -45.5t154 -120.5t95.5 -170t34.5 -194l-2 -31h-962q5 -97 44 -185t103.5 -154t157.5 -105t201 -39q154 0 346 84l16 -33q-137 -60 -229 -79q-67 -13 -131 -13
q-120 0 -224 44.5t-174.5 119.5t-110.5 173.5t-40 204.5zM164 553h921q0 69 -19 137.5t-57 130t-90 109.5t-123.5 76t-152.5 28q-128 0 -237.5 -67t-173.5 -177.5t-68 -236.5z" />
    <glyph glyph-name="Gcircumflex" unicode="&#x11c;" horiz-adv-x="1556" 
d="M709 1516h-45l176 192h39l176 -192h-45l-150 145zM872 1444q213 0 439 -105l-17 -34q-2 0 -27.5 10.5t-66 25t-90 28.5t-112.5 24t-121 10q-192 0 -352.5 -91.5t-252.5 -249t-92 -345.5q0 -140 54.5 -267.5t146.5 -219t218.5 -145.5t264.5 -54q286 0 506 198v398h-420v41
h461v-451q-230 -227 -553 -227q-142 0 -274.5 57.5t-230 154t-156 231.5t-58.5 282q0 150 57 285t154.5 232.5t233.5 154.5t288 57z" />
    <glyph glyph-name="gcircumflex" unicode="&#x11d;" horiz-adv-x="1077" 
d="M379 1188h-45l176 192h39l176 -192h-45l-150 145zM975 1065v-16l-211 -17q168 -84 168 -284q0 -150 -97.5 -236t-283.5 -86q-141 0 -229 49q-107 -64 -107 -153q0 -24 9.5 -44t22.5 -32t26 -21t23 -13l9 -3q37 -13 91.5 -19.5t97.5 -8.5t124 -3q179 -2 270 -56t91 -188
q0 -282 -430 -282q-97 0 -172 14t-134.5 45.5t-91.5 87.5t-32 135q0 154 147 248q-92 45 -92 140q0 92 115 172q-56 40 -85.5 108t-29.5 148q0 154 103 239.5t276 85.5q57 0 115 -10h307zM555 1036q-158 0 -250 -74.5t-92 -213.5q0 -131 88 -207t254 -76q164 0 251 76
t87 207q0 139 -91.5 213.5t-246.5 74.5zM600 141q-192 0 -295 25q-149 -84 -149 -227q0 -245 393 -250q54 0 102.5 5t103.5 21.5t94.5 42.5t66 72.5t26.5 108.5q0 115 -83 158.5t-259 43.5z" />
    <glyph glyph-name="Gbreve" unicode="&#x11e;" horiz-adv-x="1556" 
d="M659 1698h31q27 -70 68.5 -103.5t122.5 -33.5t121.5 32t64.5 105h33q-18 -94 -67.5 -138t-151.5 -44q-104 0 -153.5 43t-68.5 139zM872 1444q213 0 439 -105l-17 -34q-2 0 -27.5 10.5t-66 25t-90 28.5t-112.5 24t-121 10q-192 0 -352.5 -91.5t-252.5 -249t-92 -345.5
q0 -140 54.5 -267.5t146.5 -219t218.5 -145.5t264.5 -54q286 0 506 198v398h-420v41h461v-451q-230 -227 -553 -227q-142 0 -274.5 57.5t-230 154t-156 231.5t-58.5 282q0 150 57 285t154.5 232.5t233.5 154.5t288 57z" />
    <glyph glyph-name="gbreve" unicode="&#x11f;" horiz-adv-x="1077" 
d="M356 1370h31q27 -70 68.5 -103.5t122.5 -33.5t121.5 32t64.5 105h33q-18 -94 -67.5 -138t-151.5 -44q-104 0 -153.5 43t-68.5 139zM975 1065v-16l-211 -17q168 -84 168 -284q0 -150 -97.5 -236t-283.5 -86q-141 0 -229 49q-107 -64 -107 -153q0 -24 9.5 -44t22.5 -32
t26 -21t23 -13l9 -3q37 -13 91.5 -19.5t97.5 -8.5t124 -3q179 -2 270 -56t91 -188q0 -282 -430 -282q-97 0 -172 14t-134.5 45.5t-91.5 87.5t-32 135q0 154 147 248q-92 45 -92 140q0 92 115 172q-56 40 -85.5 108t-29.5 148q0 154 103 239.5t276 85.5q57 0 115 -10h307z
M555 1036q-158 0 -250 -74.5t-92 -213.5q0 -131 88 -207t254 -76q164 0 251 76t87 207q0 139 -91.5 213.5t-246.5 74.5zM600 141q-192 0 -295 25q-149 -84 -149 -227q0 -245 393 -250q54 0 102.5 5t103.5 21.5t94.5 42.5t66 72.5t26.5 108.5q0 115 -83 158.5t-259 43.5z" />
    <glyph glyph-name="Gdotaccent" unicode="&#x120;" horiz-adv-x="1556" 
d="M940 1577q0 -27 -18 -44t-50 -17q-28 0 -45.5 17.5t-17.5 43.5q0 28 18.5 46.5t44.5 18.5q32 0 50 -17.5t18 -47.5zM872 1444q213 0 439 -105l-17 -34q-2 0 -27.5 10.5t-66 25t-90 28.5t-112.5 24t-121 10q-192 0 -352.5 -91.5t-252.5 -249t-92 -345.5
q0 -140 54.5 -267.5t146.5 -219t218.5 -145.5t264.5 -54q286 0 506 198v398h-420v41h461v-451q-230 -227 -553 -227q-142 0 -274.5 57.5t-230 154t-156 231.5t-58.5 282q0 150 57 285t154.5 232.5t233.5 154.5t288 57z" />
    <glyph glyph-name="gdotaccent" unicode="&#x121;" horiz-adv-x="1077" 
d="M621 1249q0 -27 -18 -44t-50 -17q-28 0 -46 17.5t-18 43.5q0 28 19 47t45 19q32 0 50 -18t18 -48zM975 1065v-16l-211 -17q168 -84 168 -284q0 -150 -97.5 -236t-283.5 -86q-141 0 -229 49q-107 -64 -107 -153q0 -24 9.5 -44t22.5 -32t26 -21t23 -13l9 -3
q37 -13 91.5 -19.5t97.5 -8.5t124 -3q179 -2 270 -56t91 -188q0 -282 -430 -282q-97 0 -172 14t-134.5 45.5t-91.5 87.5t-32 135q0 154 147 248q-92 45 -92 140q0 92 115 172q-56 40 -85.5 108t-29.5 148q0 154 103 239.5t276 85.5q57 0 115 -10h307zM555 1036
q-158 0 -250 -74.5t-92 -213.5q0 -131 88 -207t254 -76q164 0 251 76t87 207q0 139 -91.5 213.5t-246.5 74.5zM600 141q-192 0 -295 25q-149 -84 -149 -227q0 -245 393 -250q54 0 102.5 5t103.5 21.5t94.5 42.5t66 72.5t26.5 108.5q0 115 -83 158.5t-259 43.5z" />
    <glyph glyph-name="Gcommaaccent" unicode="&#x122;" horiz-adv-x="1556" 
d="M885 -143q34 0 52.5 -30t18.5 -65q0 -49 -33 -88t-85 -65l-11 20q40 20 68.5 65.5t9.5 84.5q-15 -15 -35 -15q-18 0 -28.5 12.5t-10.5 30.5q0 21 17 35.5t37 14.5zM872 1444q213 0 439 -105l-17 -34q-2 0 -27.5 10.5t-66 25t-90 28.5t-112.5 24t-121 10
q-192 0 -352.5 -91.5t-252.5 -249t-92 -345.5q0 -140 54.5 -267.5t146.5 -219t218.5 -145.5t264.5 -54q286 0 506 198v398h-420v41h461v-451q-230 -227 -553 -227q-142 0 -274.5 57.5t-230 154t-156 231.5t-58.5 282q0 150 57 285t154.5 232.5t233.5 154.5t288 57z" />
    <glyph glyph-name="gcommaaccent" unicode="&#x123;" horiz-adv-x="1077" 
d="M553 1188q-34 0 -53 29.5t-19 64.5q0 49 33.5 88.5t85.5 65.5l10 -21q-40 -20 -68.5 -65t-9.5 -84q14 14 35 14q18 0 28.5 -12.5t10.5 -30.5q0 -21 -16.5 -35t-36.5 -14zM975 1065v-16l-211 -17q168 -84 168 -284q0 -150 -97.5 -236t-283.5 -86q-141 0 -229 49
q-107 -64 -107 -153q0 -24 9.5 -44t22.5 -32t26 -21t23 -13l9 -3q37 -13 91.5 -19.5t97.5 -8.5t124 -3q179 -2 270 -56t91 -188q0 -282 -430 -282q-97 0 -172 14t-134.5 45.5t-91.5 87.5t-32 135q0 154 147 248q-92 45 -92 140q0 92 115 172q-56 40 -85.5 108t-29.5 148
q0 154 103 239.5t276 85.5q57 0 115 -10h307zM555 1036q-158 0 -250 -74.5t-92 -213.5q0 -131 88 -207t254 -76q164 0 251 76t87 207q0 139 -91.5 213.5t-246.5 74.5zM600 141q-192 0 -295 25q-149 -84 -149 -227q0 -245 393 -250q54 0 102.5 5t103.5 21.5t94.5 42.5
t66 72.5t26.5 108.5q0 115 -83 158.5t-259 43.5z" />
    <glyph glyph-name="Hcircumflex" unicode="&#x124;" horiz-adv-x="1533" 
d="M236 1434h40v-680h981v680h41v-1434h-41v717h-981v-717h-40v1434zM616 1516h-45l177 192h38l177 -192h-45l-150 145z" />
    <glyph glyph-name="hcircumflex" unicode="&#x125;" horiz-adv-x="1253" 
d="M68 1520h-45l176 192h39l176 -192h-45l-150 145zM197 1499h41v-739q7 30 26 68t55.5 82.5t83 80.5t115 60t144.5 24q205 0 306 -125t101 -338v-612h-41v618q0 193 -92 304.5t-270 111.5q-86 0 -159 -30t-121.5 -77.5t-82.5 -107.5t-49.5 -118.5t-15.5 -112.5v-588h-41
v1499z" />
    <glyph glyph-name="Hbar" unicode="&#x126;" horiz-adv-x="1533" 
d="M236 1434h40v-291h981v291h41v-291h129v-31h-129v-1112h-41v717h-981v-717h-40v1112h-130v31h130v291zM276 754h981v358h-981v-358z" />
    <glyph glyph-name="hbar" unicode="&#x127;" horiz-adv-x="1253" 
d="M197 1499h41v-215h360v-31h-360v-493q7 30 26 68t55.5 82.5t83 80.5t115 60t144.5 24q205 0 306 -125t101 -338v-612h-41v618q0 193 -92 304.5t-270 111.5q-86 0 -159 -30t-121.5 -77.5t-82.5 -107.5t-49.5 -118.5t-15.5 -112.5v-588h-41v1253h-191v31h191v215z" />
    <glyph glyph-name="Itilde" unicode="&#x128;" horiz-adv-x="512" 
d="M236 1434h40v-1434h-40v1434zM10 1534l-26 18q35 58 85.5 81t106.5 9q27 -6 90 -39.5t119 -33.5q73 0 117 61l26 -18q-33 -57 -86 -80.5t-110 -9.5q-27 6 -90.5 39.5t-118.5 33.5q-39 0 -64 -15.5t-49 -45.5z" />
    <glyph glyph-name="itilde" unicode="&#x129;" horiz-adv-x="440" 
d="M102 1065h142v-1065h-41v1018l-101 20v27zM-37 1206l-26 19q35 58 85.5 81t106.5 9q27 -6 90 -40t119 -34q73 0 117 62l26 -19q-33 -57 -86 -80.5t-110 -9.5q-28 6 -91.5 40t-117.5 34q-39 0 -63.5 -16t-49.5 -46z" />
    <glyph glyph-name="Imacron" unicode="&#x12a;" horiz-adv-x="512" 
d="M236 1434h40v-1434h-40v1434zM-35 1556h584v-40h-584v40z" />
    <glyph glyph-name="imacron" unicode="&#x12b;" horiz-adv-x="440" 
d="M102 1065h142v-1065h-41v1018l-101 20v27zM-100 1229h583v-41h-583v41z" />
    <glyph glyph-name="Ibreve" unicode="&#x12c;" horiz-adv-x="512" 
d="M236 1434h40v-1434h-40v1434zM-6 1698h31q27 -71 68 -104t122 -33t121.5 32t64.5 105h33q-18 -94 -67.5 -138t-151.5 -44q-104 0 -152.5 43t-68.5 139z" />
    <glyph glyph-name="ibreve" unicode="&#x12d;" horiz-adv-x="440" 
d="M102 1065h142v-1065h-41v1018l-101 20v27zM-8 1370h31q27 -71 68 -104t122 -33t121.5 32t64.5 105h33q-18 -94 -67.5 -138t-151.5 -44q-104 0 -152.5 43t-68.5 139z" />
    <glyph glyph-name="Iogonek" unicode="&#x12e;" horiz-adv-x="512" 
d="M236 1434h40v-1434h-2q-133 -48 -133 -147q0 -43 24 -62.5t56 -19.5q33 0 82 12l12 -39q-38 -21 -67 -27q-67 -10 -115.5 20.5t-48.5 100.5q0 62 41.5 109t110.5 69v1418z" />
    <glyph glyph-name="iogonek" unicode="&#x12f;" horiz-adv-x="440" 
d="M102 1065h142v-1065q-42 -14 -74 -37q-59 -44 -59 -110q0 -43 24 -62.5t55 -19.5q32 0 82 12l13 -39q-37 -21 -68 -27q-67 -10 -115.5 20.5t-48.5 100.5q0 64 40 109.5t108 66.5h2v1004l-101 20v27zM203 1399q25 0 45 -18t20 -42q0 -27 -19 -45t-46 -18q-26 0 -44 17.5
t-18 43.5t18 44t44 18z" />
    <glyph glyph-name="Idotaccent" unicode="&#x130;" horiz-adv-x="514" 
d="M236 1434h40v-1434h-40v1434zM322 1577q0 -27 -18 -44t-50 -17q-28 0 -46 17.5t-18 43.5q0 27 19 46t45 19q32 0 50 -17.5t18 -47.5z" />
    <glyph glyph-name="dotlessi" unicode="&#x131;" horiz-adv-x="442" 
d="M104 1065h142v-1065h-41v1018l-101 20v27z" />
    <glyph glyph-name="Jcircumflex" unicode="&#x134;" horiz-adv-x="520" 
d="M35 -287l-12 29q25 11 57.5 33t71 57t64.5 83.5t26 98.5v1372l-121 21v27h164v-1403q0 -65 -24 -120.5t-64.5 -93.5t-79 -62t-82.5 -42zM74 1516h-45l176 192h39l176 -192h-45l-150 145z" />
    <glyph glyph-name="jcircumflex" unicode="&#x135;" horiz-adv-x="440" 
d="M98 -348l-12 29q117 51 117 190v1147l-101 20v27h142v-1071q0 -54 -1 -87t-5.5 -72.5t-14 -64t-25.5 -49.5t-41 -41.5t-59 -27.5zM29 1188h-45l176 192h39l176 -192h-45l-150 145z" />
    <glyph glyph-name="Kcommaaccent" unicode="&#x136;" horiz-adv-x="1255" 
d="M236 0v1434h40v-965l144 170l667 795h56l-535 -641l619 -793h-53l-594 764l-304 -354v-410h-40zM666 -143q34 0 52.5 -30t18.5 -65q0 -94 -119 -153l-10 20q40 20 68.5 65.5t9.5 84.5q-15 -15 -35 -15q-18 0 -28.5 12.5t-10.5 30.5q0 21 17 35.5t37 14.5z" />
    <glyph glyph-name="kcommaaccent" unicode="&#x137;" horiz-adv-x="952" 
d="M197 1499h41v-1100l297 338l288 328h56l-430 -485l444 -580h-51l-420 549l-184 -211v-338h-41v1499zM508 -143q34 0 53 -30t19 -65q0 -94 -119 -153l-10 20q39 20 67.5 65.5t9.5 84.5q-15 -15 -34 -15q-18 0 -28.5 12.5t-10.5 30.5q0 21 16.5 35.5t36.5 14.5z" />
    <glyph glyph-name="kgreenlandic" unicode="&#x138;" horiz-adv-x="952" 
d="M197 1065h41v-666l297 338l288 328h56l-430 -485l444 -580h-51l-420 549l-184 -211v-338h-41v1065z" />
    <glyph glyph-name="Lacute" unicode="&#x139;" horiz-adv-x="1243" 
d="M236 1434h40v-1393h898v-41h-938v1434zM354 1788l64 -37l-148 -235h-24z" />
    <glyph glyph-name="lacute" unicode="&#x13a;" horiz-adv-x="475" 
d="M207 1499h41v-1397q0 -63 67 -63l62 6v-35q-33 -10 -82 -10q-92 1 -88 111v1388zM324 1808l63 -36l-147 -236h-25z" />
    <glyph glyph-name="Lcommaaccent" unicode="&#x13b;" horiz-adv-x="1249" 
d="M236 1434h40v-1393h898v-41h-938v1434zM639 -139q34 0 53 -29.5t19 -64.5q0 -49 -33.5 -88.5t-85.5 -65.5l-10 20q39 20 67.5 65.5t9.5 84.5q-14 -14 -34 -14q-18 0 -28.5 12.5t-10.5 30.5q0 21 16.5 35t36.5 14z" />
    <glyph glyph-name="lcommaaccent" unicode="&#x13c;" horiz-adv-x="475" 
d="M203 1499h41v-1397q0 -63 67 -63l62 6v-35q-33 -10 -82 -10q-92 1 -88 111v1388zM262 -139q34 0 53 -29.5t19 -64.5q0 -49 -33.5 -88.5t-85.5 -65.5l-10 20q40 20 68.5 65.5t9.5 84.5q-14 -14 -35 -14q-18 0 -28.5 12.5t-10.5 30.5q0 21 16.5 35t36.5 14z" />
    <glyph glyph-name="Lcaron" unicode="&#x13d;" horiz-adv-x="1243" 
d="M236 1434h40v-1393h898v-41h-938v1434zM682 1413q34 0 53 -29.5t19 -64.5q0 -49 -33.5 -88.5t-85.5 -65.5l-10 21q40 20 68 65t9 84q-14 -14 -34 -14q-18 0 -28.5 12.5t-10.5 30.5q0 21 16.5 35t36.5 14z" />
    <glyph glyph-name="lcaron" unicode="&#x13e;" horiz-adv-x="548" 
d="M203 1499h41v-1397q0 -63 67 -63l62 6v-35q-33 -10 -82 -10q-92 1 -88 111v1388zM524 1475q34 0 53 -30t19 -65q0 -94 -119 -153l-10 20q40 20 68.5 65.5t9.5 84.5q-15 -15 -35 -15q-18 0 -28.5 12.5t-10.5 30.5q0 21 16.5 35.5t36.5 14.5z" />
    <glyph glyph-name="Lslash" unicode="&#x141;" horiz-adv-x="1214" 
d="M31 506l213 127v801h41v-777l307 185l16 -31l-323 -195v-575h811v-41h-852v592l-199 -117z" />
    <glyph glyph-name="lslash" unicode="&#x142;" horiz-adv-x="573" 
d="M221 1499h41v-842l234 142l16 -31l-250 -152v-514q0 -63 68 -63l61 6v-35q-33 -10 -82 -10q-88 0 -88 111v481l-166 -100l-18 30l184 111v866z" />
    <glyph glyph-name="Nacute" unicode="&#x143;" horiz-adv-x="1497" 
d="M236 1434h40l496 -719l451 -658h2l-4 779v598h41v-1434h-48l-499 727l-436 645h-5l2 -616v-756h-40v1434zM838 1788l63 -37l-147 -235h-25z" />
    <glyph glyph-name="nacute" unicode="&#x144;" horiz-adv-x="1253" 
d="M756 1460l63 -37l-147 -235h-25zM197 1065h30l11 -305q7 30 26 68t55.5 82.5t83 80.5t115 60t144.5 24q205 0 306 -125t101 -338v-612h-41v618q0 193 -92 304.5t-270 111.5q-86 0 -159 -29t-121.5 -75t-82.5 -105.5t-49.5 -119.5t-15.5 -117v-588h-41v1065z" />
    <glyph glyph-name="Ncommaaccent" unicode="&#x145;" horiz-adv-x="1497" 
d="M236 1434h40l496 -719l451 -658h2l-4 779v598h41v-1434h-48l-499 727l-436 645h-5l2 -616v-756h-40v1434zM700 -143q34 0 53 -30t19 -65q0 -94 -119 -153l-10 20q40 20 68.5 65.5t9.5 84.5q-15 -15 -35 -15q-18 0 -28.5 12.5t-10.5 30.5q0 21 16.5 35.5t36.5 14.5z" />
    <glyph glyph-name="ncommaaccent" unicode="&#x146;" horiz-adv-x="1253" 
d="M616 -139q34 0 53 -29.5t19 -64.5q0 -49 -33.5 -88.5t-85.5 -65.5l-10 20q40 20 68.5 65.5t9.5 84.5q-14 -14 -35 -14q-18 0 -28.5 12.5t-10.5 30.5q0 21 16.5 35t36.5 14zM197 1065h30l11 -305q7 30 26 68t55.5 82.5t83 80.5t115 60t144.5 24q205 0 306 -125t101 -338
v-612h-41v618q0 193 -92 304.5t-270 111.5q-86 0 -159 -29t-121.5 -75t-82.5 -105.5t-49.5 -119.5t-15.5 -117v-588h-41v1065z" />
    <glyph glyph-name="Ncaron" unicode="&#x147;" horiz-adv-x="1497" 
d="M236 1434h40l496 -719l451 -658h2l-4 779v598h41v-1434h-48l-499 727l-436 645h-5l2 -616v-756h-40v1434zM571 1708h45l152 -145l150 145h45l-177 -192h-38z" />
    <glyph glyph-name="ncaron" unicode="&#x148;" horiz-adv-x="1253" 
d="M403 1380h46l151 -145l150 145h45l-177 -192h-38zM197 1065h30l11 -305q7 30 26 68t55.5 82.5t83 80.5t115 60t144.5 24q205 0 306 -125t101 -338v-612h-41v618q0 193 -92 304.5t-270 111.5q-86 0 -159 -29t-121.5 -75t-82.5 -105.5t-49.5 -119.5t-15.5 -117v-588h-41
v1065z" />
    <glyph glyph-name="Eng" unicode="&#x14a;" horiz-adv-x="1511" 
d="M1087 -287l-10 29q5 2 25.5 10.5t26.5 11.5t23 11t23.5 13.5t19 15.5t17.5 20l11.5 23t9 29t2.5 34v90l-956 1372l-3 -1372h-40v1434h55l944 -1362v1362h41v-1518q0 -39 -5 -63t-23 -52t-57.5 -49t-103.5 -39z" />
    <glyph glyph-name="eng" unicode="&#x14b;" horiz-adv-x="1253" 
d="M881 -287l-11 29q5 2 25.5 10.5t26.5 11.5t23 11t23.5 13.5t19 15.5t17.5 20l11.5 23t9 29t2.5 34v698q0 193 -92 304.5t-270 111.5q-86 0 -159 -29t-121.5 -75t-82.5 -105.5t-49.5 -119.5t-15.5 -117v-578h-41v1065h30l11 -315q7 30 26 68t55.5 82.5t83 80.5t115 60
t144.5 24q205 0 306 -125t101 -338v-686q0 -39 -5 -63t-22.5 -52t-57 -49t-103.5 -39z" />
    <glyph glyph-name="Omacron" unicode="&#x14c;" horiz-adv-x="1732" 
d="M575 1556h584v-40h-584v40zM139 715q0 198 97.5 366t264.5 265.5t363 97.5q148 0 283 -57.5t233 -155.5t155.5 -233t57.5 -283q0 -197 -97 -363.5t-265 -264t-367 -97.5q-197 0 -364 97.5t-264 264.5t-97 363zM180 713q0 -139 54 -265t145.5 -217.5t218 -145.5t266.5 -54
q141 0 268.5 54t219.5 145.5t146 217.5t54 265q0 138 -54.5 265t-146 220.5t-219.5 149t-268 55.5q-139 0 -265.5 -54.5t-218 -146.5t-146 -220t-54.5 -269z" />
    <glyph glyph-name="omacron" unicode="&#x14d;" horiz-adv-x="1329" 
d="M123 530q0 148 73 273.5t197.5 198.5t270.5 73q148 0 273 -73t197 -198.5t72 -273.5q0 -110 -42.5 -209.5t-115 -172t-173 -115.5t-211.5 -43q-146 0 -270.5 72.5t-197.5 197t-73 270.5zM664 1034q-135 0 -250 -68t-182.5 -184t-67.5 -252q0 -135 67.5 -250t182.5 -182
t250 -67q102 0 194.5 39.5t159.5 106.5t107 159.5t40 193.5q0 136 -67 252t-182.5 184t-251.5 68zM373 1229h583v-41h-583v41z" />
    <glyph glyph-name="Obreve" unicode="&#x14e;" horiz-adv-x="1732" 
d="M647 1698h31q27 -71 68 -104t122 -33t122 32t65 105h32q-18 -94 -67.5 -138t-151.5 -44q-104 0 -152.5 43t-68.5 139zM139 715q0 198 97.5 366t264.5 265.5t363 97.5q148 0 283 -57.5t233 -155.5t155.5 -233t57.5 -283q0 -197 -97 -363.5t-265 -264t-367 -97.5
q-197 0 -364 97.5t-264 264.5t-97 363zM180 713q0 -139 54 -265t145.5 -217.5t218 -145.5t266.5 -54q141 0 268.5 54t219.5 145.5t146 217.5t54 265q0 138 -54.5 265t-146 220.5t-219.5 149t-268 55.5q-139 0 -265.5 -54.5t-218 -146.5t-146 -220t-54.5 -269z" />
    <glyph glyph-name="obreve" unicode="&#x14f;" horiz-adv-x="1329" 
d="M123 530q0 148 73 273.5t197.5 198.5t270.5 73q148 0 273 -73t197 -198.5t72 -273.5q0 -110 -42.5 -209.5t-115 -172t-173 -115.5t-211.5 -43q-146 0 -270.5 72.5t-197.5 197t-73 270.5zM664 1034q-135 0 -250 -68t-182.5 -184t-67.5 -252q0 -135 67.5 -250t182.5 -182
t250 -67q102 0 194.5 39.5t159.5 106.5t107 159.5t40 193.5q0 136 -67 252t-182.5 184t-251.5 68zM444 1370h31q27 -70 68.5 -103.5t122.5 -33.5t121.5 32t64.5 105h33q-18 -94 -67.5 -138t-151.5 -44q-104 0 -153.5 43t-68.5 139z" />
    <glyph glyph-name="Ohungarumlaut" unicode="&#x150;" horiz-adv-x="1732" 
d="M848 1788l63 -37l-147 -235h-25zM1053 1788l63 -37l-147 -235h-25zM139 715q0 198 97.5 366t264.5 265.5t363 97.5q148 0 283 -57.5t233 -155.5t155.5 -233t57.5 -283q0 -197 -97 -363.5t-265 -264t-367 -97.5q-197 0 -364 97.5t-264 264.5t-97 363zM180 713
q0 -139 54 -265t145.5 -217.5t218 -145.5t266.5 -54q141 0 268.5 54t219.5 145.5t146 217.5t54 265q0 138 -54.5 265t-146 220.5t-219.5 149t-268 55.5q-139 0 -265.5 -54.5t-218 -146.5t-146 -220t-54.5 -269z" />
    <glyph glyph-name="ohungarumlaut" unicode="&#x151;" horiz-adv-x="1329" 
d="M123 530q0 148 73 273.5t197.5 198.5t270.5 73q148 0 273 -73t197 -198.5t72 -273.5q0 -110 -42.5 -209.5t-115 -172t-173 -115.5t-211.5 -43q-146 0 -270.5 72.5t-197.5 197t-73 270.5zM664 1034q-135 0 -250 -68t-182.5 -184t-67.5 -252q0 -135 67.5 -250t182.5 -182
t250 -67q102 0 194.5 39.5t159.5 106.5t107 159.5t40 193.5q0 136 -67 252t-182.5 184t-251.5 68zM643 1460l64 -37l-148 -235h-24zM848 1460l63 -37l-147 -235h-25z" />
    <glyph glyph-name="OE" unicode="&#x152;" horiz-adv-x="1998" 
d="M868 0q-199 0 -366 95t-264 260t-97 362t97.5 362t264.5 260t365 95h969v-41h-879v-676h752v-41h-752v-635h920v-41h-1010zM182 715q0 -112 34.5 -215.5t97.5 -186.5t147.5 -145t189 -95.5t217.5 -33.5h50v1354h-50q-187 0 -344.5 -89.5t-249.5 -245.5t-92 -343z" />
    <glyph glyph-name="oe" unicode="&#x153;" horiz-adv-x="2275" 
d="M123 530q0 148 73 273.5t197.5 198.5t270.5 73q184 0 328 -111.5t192 -283.5q47 171 185 283t317 112q108 0 201 -45.5t154 -120.5t95.5 -170t34.5 -194l-2 -31h-963q9 -159 100.5 -284.5t241.5 -174.5q76 -24 164 -24q154 0 346 84l17 -33q-37 -16 -49 -21.5
t-58.5 -22.5t-78 -25t-81 -15.5t-94.5 -7.5q-196 0 -338 111t-190 282q-50 -172 -194 -282.5t-328 -110.5q-146 0 -270.5 72.5t-197.5 197t-73 270.5zM664 1034q-135 0 -250 -68t-182.5 -184t-67.5 -252q0 -135 67.5 -250t182.5 -182t250 -67q102 0 194.5 39.5t159.5 106.5
t107 159.5t40 193.5q1 134 -67 250.5t-184 185t-250 68.5zM1206 553h922q0 69 -19 137.5t-57 130t-90 109.5t-123.5 76t-152.5 28q-128 0 -237.5 -67t-174 -177.5t-68.5 -236.5z" />
    <glyph glyph-name="Racute" unicode="&#x154;" horiz-adv-x="1386" 
d="M236 1434h595q161 0 274.5 -112.5t113.5 -270.5q0 -144 -94.5 -253.5t-235.5 -129.5l385 -668h-49l-381 664h-568v-664h-40v1434zM276 1393v-688h555q144 0 245.5 102t101.5 244q0 141 -101.5 241.5t-245.5 100.5h-555zM657 1788l64 -37l-148 -235h-24z" />
    <glyph glyph-name="racute" unicode="&#x155;" horiz-adv-x="653" 
d="M430 1460l64 -37l-148 -235h-24zM197 1065h28l13 -215q31 101 125.5 158t205.5 57v-41q-65 0 -123.5 -21t-105.5 -61t-74.5 -103.5t-27.5 -142.5v-696h-41v1065z" />
    <glyph glyph-name="Rcommaaccent" unicode="&#x156;" horiz-adv-x="1384" 
d="M236 1434h595q161 0 274.5 -112.5t113.5 -270.5q0 -144 -94.5 -253.5t-235.5 -129.5l385 -668h-49l-381 664h-568v-664h-40v1434zM276 1393v-688h555q144 0 245.5 102t101.5 244q0 141 -101.5 241.5t-245.5 100.5h-555zM690 -143q34 0 53 -30t19 -65q0 -94 -119 -153
l-10 20q40 20 68.5 65.5t9.5 84.5q-15 -15 -35 -15q-18 0 -28.5 12.5t-10.5 30.5q0 21 16.5 35.5t36.5 14.5z" />
    <glyph glyph-name="rcommaaccent" unicode="&#x157;" horiz-adv-x="653" 
d="M219 -143q34 0 53 -30t19 -65q0 -94 -119 -153l-10 20q40 20 68.5 65.5t9.5 84.5q-15 -15 -35 -15q-18 0 -28.5 12.5t-10.5 30.5q0 21 16.5 35.5t36.5 14.5zM197 1065h28l13 -215q31 101 125.5 158t205.5 57v-41q-65 0 -123.5 -21t-105.5 -61t-74.5 -103.5t-27.5 -142.5
v-696h-41v1065z" />
    <glyph glyph-name="Rcaron" unicode="&#x158;" horiz-adv-x="1386" 
d="M236 1434h595q161 0 274.5 -112.5t113.5 -270.5q0 -144 -94.5 -253.5t-235.5 -129.5l385 -668h-49l-381 664h-568v-664h-40v1434zM276 1393v-688h555q144 0 245.5 102t101.5 244q0 141 -101.5 241.5t-245.5 100.5h-555zM430 1708h45l152 -145l149 145h45l-176 -192h-39z
" />
    <glyph glyph-name="rcaron" unicode="&#x159;" horiz-adv-x="653" 
d="M176 1380h45l152 -145l149 145h45l-176 -192h-39zM197 1065h28l13 -215q31 101 125.5 158t205.5 57v-41q-65 0 -123.5 -21t-105.5 -61t-74.5 -103.5t-27.5 -142.5v-696h-41v1065z" />
    <glyph glyph-name="Sacute" unicode="&#x15a;" horiz-adv-x="1218" 
d="M670 1788l63 -37l-147 -235h-25zM627 -10q-241 0 -488 110l19 37q21 -10 53.5 -22.5t98 -34t151.5 -35.5t170 -14q205 0 315.5 82.5t110.5 238.5q0 74 -31 131t-83 92.5t-120 63t-143 48.5t-149.5 42.5t-142.5 51t-120 69t-83 101.5t-31 143q0 163 120.5 256.5
t337.5 93.5q122 0 234.5 -27t181.5 -57l-16 -37q-21 9 -58.5 22.5t-142 35.5t-197.5 22q-89 0 -163.5 -18t-133 -53.5t-91.5 -95.5t-33 -138q0 -75 31 -132.5t83.5 -93.5t120 -64t142.5 -49.5t150.5 -43.5t143 -51.5t120 -68.5t83.5 -100t31 -141q0 -173 -126 -268.5
t-345 -95.5z" />
    <glyph glyph-name="sacute" unicode="&#x15b;" horiz-adv-x="970" 
d="M557 1460l64 -37l-148 -235h-24zM496 -10q-179 0 -373 84l18 37q17 -10 60 -26.5t129 -35t168 -18.5q152 0 236.5 60t84.5 169q0 69 -38 117.5t-98.5 75t-133.5 47t-146 42.5t-133.5 51.5t-98.5 84t-38 131.5q0 123 93 194.5t261 71.5q94 0 184 -20.5t140 -42.5l-18 -37
q-16 7 -44.5 16.5t-109 26t-152.5 16.5q-139 0 -226 -56.5t-87 -166.5q0 -68 38 -116t98.5 -75t133.5 -47.5t146 -43t133.5 -52.5t98.5 -85t38 -132q0 -126 -97 -198t-267 -72z" />
    <glyph glyph-name="Scircumflex" unicode="&#x15c;" horiz-adv-x="1218" 
d="M477 1516h-45l176 192h39l176 -192h-45l-149 145zM627 -10q-241 0 -488 110l19 37q21 -10 53.5 -22.5t98 -34t151.5 -35.5t170 -14q205 0 315.5 82.5t110.5 238.5q0 74 -31 131t-83 92.5t-120 63t-143 48.5t-149.5 42.5t-142.5 51t-120 69t-83 101.5t-31 143
q0 163 120.5 256.5t337.5 93.5q122 0 234.5 -27t181.5 -57l-16 -37q-21 9 -58.5 22.5t-142 35.5t-197.5 22q-89 0 -163.5 -18t-133 -53.5t-91.5 -95.5t-33 -138q0 -75 31 -132.5t83.5 -93.5t120 -64t142.5 -49.5t150.5 -43.5t143 -51.5t120 -68.5t83.5 -100t31 -141
q0 -173 -126 -268.5t-345 -95.5z" />
    <glyph glyph-name="scircumflex" unicode="&#x15d;" horiz-adv-x="970" 
d="M346 1188h-45l176 192h39l176 -192h-45l-149 145zM496 -10q-179 0 -373 84l18 37q17 -10 60 -26.5t129 -35t168 -18.5q152 0 236.5 60t84.5 169q0 69 -38 117.5t-98.5 75t-133.5 47t-146 42.5t-133.5 51.5t-98.5 84t-38 131.5q0 123 93 194.5t261 71.5q94 0 184 -20.5
t140 -42.5l-18 -37q-16 7 -44.5 16.5t-109 26t-152.5 16.5q-139 0 -226 -56.5t-87 -166.5q0 -68 38 -116t98.5 -75t133.5 -47.5t146 -43t133.5 -52.5t98.5 -85t38 -132q0 -126 -97 -198t-267 -72z" />
    <glyph glyph-name="Scedilla" unicode="&#x15e;" horiz-adv-x="1218" 
d="M567 -172l-28 27l49 137q-101 4 -207 28.5t-157 43.5t-85 36l19 37q21 -10 53.5 -22.5t98 -34t151.5 -35.5t170 -14q205 0 315.5 82.5t110.5 238.5q0 74 -31 131t-83 92.5t-120 63t-143 48.5t-149.5 42.5t-142.5 51t-120 69t-83 101.5t-31 143q0 163 120.5 256.5
t337.5 93.5q122 0 234.5 -27t181.5 -57l-16 -37q-21 9 -58.5 22.5t-142 35.5t-197.5 22q-89 0 -163.5 -18t-133 -53.5t-91.5 -95.5t-33 -138q0 -75 31 -132.5t83.5 -93.5t120 -64t142.5 -49.5t150.5 -43.5t143 -51.5t120 -68.5t83.5 -100t31 -141q0 -173 -126 -268.5
t-345 -95.5h-6l-27 -121q10 2 22 2q67 0 102.5 -36t35.5 -87q0 -69 -45.5 -104t-110.5 -35q-64 0 -121 31l10 30q48 -18 103 -18q49 0 84 23t35 71q0 40 -29 64t-76 24q-13 0 -37 -6z" />
    <glyph glyph-name="scedilla" unicode="&#x15f;" horiz-adv-x="970" 
d="M457 -172l-29 27l49 135q-179 4 -354 84l18 37q17 -10 60 -26.5t129 -35t168 -18.5q152 0 236.5 60t84.5 169q0 69 -38 117.5t-98.5 75t-133.5 47t-146 42.5t-133.5 51.5t-98.5 84t-38 131.5q0 123 93 194.5t261 71.5q94 0 184 -20.5t140 -42.5l-18 -37q-16 7 -44.5 16.5
t-109 26t-152.5 16.5q-139 0 -226 -56.5t-87 -166.5q0 -68 38 -116t98.5 -75t133.5 -47.5t146 -43t133.5 -52.5t98.5 -85t38 -132q0 -123 -93.5 -194t-256.5 -76l-27 -121q11 2 23 2q66 0 101.5 -36t35.5 -87q0 -69 -45.5 -104t-110.5 -35q-63 0 -120 31l10 30
q48 -18 102 -18q49 0 84 23t35 71q0 40 -28.5 64t-75.5 24q-13 0 -37 -6z" />
    <glyph glyph-name="Scaron" unicode="&#x160;" horiz-adv-x="1218" 
d="M436 1708h45l152 -145l149 145h45l-176 -192h-39zM627 -10q-241 0 -488 110l19 37q21 -10 53.5 -22.5t98 -34t151.5 -35.5t170 -14q205 0 315.5 82.5t110.5 238.5q0 74 -31 131t-83 92.5t-120 63t-143 48.5t-149.5 42.5t-142.5 51t-120 69t-83 101.5t-31 143
q0 163 120.5 256.5t337.5 93.5q122 0 234.5 -27t181.5 -57l-16 -37q-21 9 -58.5 22.5t-142 35.5t-197.5 22q-89 0 -163.5 -18t-133 -53.5t-91.5 -95.5t-33 -138q0 -75 31 -132.5t83.5 -93.5t120 -64t142.5 -49.5t150.5 -43.5t143 -51.5t120 -68.5t83.5 -100t31 -141
q0 -173 -126 -268.5t-345 -95.5z" />
    <glyph glyph-name="scaron" unicode="&#x161;" horiz-adv-x="970" 
d="M279 1380h45l151 -145l150 145h45l-176 -192h-39zM496 -10q-179 0 -373 84l18 37q17 -10 60 -26.5t129 -35t168 -18.5q152 0 236.5 60t84.5 169q0 69 -38 117.5t-98.5 75t-133.5 47t-146 42.5t-133.5 51.5t-98.5 84t-38 131.5q0 123 93 194.5t261 71.5q94 0 184 -20.5
t140 -42.5l-18 -37q-16 7 -44.5 16.5t-109 26t-152.5 16.5q-139 0 -226 -56.5t-87 -166.5q0 -68 38 -116t98.5 -75t133.5 -47.5t146 -43t133.5 -52.5t98.5 -85t38 -132q0 -126 -97 -198t-267 -72z" />
    <glyph glyph-name="Tcommaaccent" unicode="&#x162;" horiz-adv-x="1247" 
d="M55 1434h1137v-41h-549v-1393h-41v1393h-547v41zM616 -143q34 0 53 -30t19 -65q0 -94 -119 -153l-10 20q40 20 68.5 65.5t9.5 84.5q-15 -15 -35 -15q-18 0 -28.5 12.5t-10.5 30.5q0 21 16.5 35.5t36.5 14.5z" />
    <glyph glyph-name="tcommaaccent" unicode="&#x163;" horiz-adv-x="667" 
d="M256 1372h31v-307h315v-41h-315v-688q0 -151 49 -223t168 -72q71 0 149 16l9 -32q-90 -25 -160 -25q-144 0 -200 83.5t-56 246.5v694h-168v31l168 10zM379 -143q34 0 53 -30t19 -65q0 -94 -119 -153l-10 20q39 20 67.5 65.5t9.5 84.5q-15 -15 -34 -15q-18 0 -28.5 12.5
t-10.5 30.5q0 21 16.5 35.5t36.5 14.5z" />
    <glyph glyph-name="Tcaron" unicode="&#x164;" horiz-adv-x="1247" 
d="M55 1434h1137v-41h-549v-1393h-41v1393h-547v41zM428 1708h45l152 -145l149 145h45l-176 -192h-39z" />
    <glyph glyph-name="tcaron" unicode="&#x165;" horiz-adv-x="669" 
d="M256 1372h31v-307h315v-41h-315v-688q0 -151 49 -223t168 -72q71 0 149 16l9 -32q-90 -25 -160 -25q-144 0 -200 83.5t-56 246.5v694h-168v31l168 10zM565 1475q34 0 53 -30t19 -65q0 -94 -119 -153l-10 20q40 20 68.5 65.5t9.5 84.5q-15 -15 -35 -15q-18 0 -28.5 12.5
t-10.5 30.5q0 21 16.5 35.5t36.5 14.5z" />
    <glyph glyph-name="Tbar" unicode="&#x166;" horiz-adv-x="1247" 
d="M1057 729h-414v-729h-41v729h-416v37h416v627h-547v41h1137v-41h-549v-627h414v-37z" />
    <glyph glyph-name="tbar" unicode="&#x167;" horiz-adv-x="671" 
d="M80 868h168v156h-168v31l168 10l10 307h31v-307h315v-41h-315v-156h315v-30h-315v-502q0 -151 49 -223t168 -72q71 0 149 16l9 -32q-90 -25 -160 -25q-144 0 -200 83.5t-56 246.5v508h-168v30z" />
    <glyph glyph-name="Utilde" unicode="&#x168;" horiz-adv-x="1464" 
d="M487 1534l-26 18q60 97 151 97q41 0 80 -20t81 -40t89 -20q73 0 117 61l27 -18q-27 -46 -68 -71t-86 -25q-49 0 -122 39.5t-130 39.5q-39 0 -64 -15.5t-49 -45.5zM223 1434h41v-992q0 -104 64 -196.5t173 -148.5t232 -56t232 56t173 148.5t64 196.5v992h41v-985
q0 -122 -71.5 -226t-188.5 -163.5t-250 -59.5q-134 0 -251 59.5t-188 163.5t-71 226v985z" />
    <glyph glyph-name="utilde" unicode="&#x169;" horiz-adv-x="1253" 
d="M379 1206l-27 19q35 58 86 81t107 9q27 -6 90 -40t119 -34q72 0 116 62l27 -19q-33 -57 -86.5 -80.5t-110.5 -9.5q-28 6 -91 40t-117 34q-39 0 -63.5 -16t-49.5 -46zM184 1065h41v-619q0 -97 21 -171t66.5 -130t124 -85t188.5 -29q156 0 273.5 120t117.5 279v635h41
v-1065h-31l-10 264q-45 -123 -155.5 -198.5t-235.5 -75.5q-223 0 -332 113.5t-109 328.5v633z" />
    <glyph glyph-name="Umacron" unicode="&#x16a;" horiz-adv-x="1464" 
d="M442 1556h584v-40h-584v40zM223 1434h41v-992q0 -104 64 -196.5t173 -148.5t232 -56t232 56t173 148.5t64 196.5v992h41v-985q0 -122 -71.5 -226t-188.5 -163.5t-250 -59.5q-134 0 -251 59.5t-188 163.5t-71 226v985z" />
    <glyph glyph-name="umacron" unicode="&#x16b;" horiz-adv-x="1253" 
d="M336 1229h584v-41h-584v41zM184 1065h41v-619q0 -97 21 -171t66.5 -130t124 -85t188.5 -29q156 0 273.5 120t117.5 279v635h41v-1065h-31l-10 264q-45 -123 -155.5 -198.5t-235.5 -75.5q-223 0 -332 113.5t-109 328.5v633z" />
    <glyph glyph-name="Ubreve" unicode="&#x16c;" horiz-adv-x="1464" 
d="M514 1698h31q27 -71 68 -104t122 -33t122 32t65 105h32q-18 -94 -67.5 -138t-151.5 -44q-104 0 -152.5 43t-68.5 139zM223 1434h41v-992q0 -104 64 -196.5t173 -148.5t232 -56t232 56t173 148.5t64 196.5v992h41v-985q0 -122 -71.5 -226t-188.5 -163.5t-250 -59.5
q-134 0 -251 59.5t-188 163.5t-71 226v985z" />
    <glyph glyph-name="ubreve" unicode="&#x16d;" horiz-adv-x="1253" 
d="M416 1370h30q27 -70 68.5 -103.5t122.5 -33.5t121.5 32t64.5 105h33q-18 -94 -67.5 -138t-151.5 -44q-104 0 -152.5 43t-68.5 139zM184 1065h41v-619q0 -97 21 -171t66.5 -130t124 -85t188.5 -29q156 0 273.5 120t117.5 279v635h41v-1065h-31l-10 264
q-45 -123 -155.5 -198.5t-235.5 -75.5q-223 0 -332 113.5t-109 328.5v633z" />
    <glyph glyph-name="Uring" unicode="&#x16e;" horiz-adv-x="1464" 
d="M575 1667q0 62 47 106t111 44t111 -44t47 -106t-47 -105.5t-111 -43.5t-111 43.5t-47 105.5zM733 1786q-51 0 -90 -36t-39 -83t39 -83t90 -36q50 0 89.5 36t39.5 83t-39.5 83t-89.5 36zM223 1434h41v-992q0 -104 64 -196.5t173 -148.5t232 -56t232 56t173 148.5t64 196.5
v992h41v-985q0 -122 -71.5 -226t-188.5 -163.5t-250 -59.5q-134 0 -251 59.5t-188 163.5t-71 226v985z" />
    <glyph glyph-name="uring" unicode="&#x16f;" horiz-adv-x="1253" 
d="M446 1339q0 62 47 106t111 44t111 -44t47 -106t-47 -105.5t-111 -43.5t-111 43.5t-47 105.5zM604 1458q-51 0 -90 -36t-39 -83t39 -82.5t90 -35.5q50 0 89.5 35.5t39.5 82.5t-39.5 83t-89.5 36zM184 1065h41v-619q0 -97 21 -171t66.5 -130t124 -85t188.5 -29
q156 0 273.5 120t117.5 279v635h41v-1065h-31l-10 264q-45 -123 -155.5 -198.5t-235.5 -75.5q-223 0 -332 113.5t-109 328.5v633z" />
    <glyph glyph-name="Uhungarumlaut" unicode="&#x170;" horiz-adv-x="1464" 
d="M702 1788l64 -37l-148 -235h-24zM907 1788l64 -37l-148 -235h-24zM223 1434h41v-992q0 -104 64 -196.5t173 -148.5t232 -56t232 56t173 148.5t64 196.5v992h41v-985q0 -122 -71.5 -226t-188.5 -163.5t-250 -59.5q-134 0 -251 59.5t-188 163.5t-71 226v985z" />
    <glyph glyph-name="uhungarumlaut" unicode="&#x171;" horiz-adv-x="1253" 
d="M580 1460l63 -37l-147 -235h-25zM784 1460l64 -37l-148 -235h-24zM184 1065h41v-619q0 -97 21 -171t66.5 -130t124 -85t188.5 -29q156 0 273.5 120t117.5 279v635h41v-1065h-31l-10 264q-45 -123 -155.5 -198.5t-235.5 -75.5q-223 0 -332 113.5t-109 328.5v633z" />
    <glyph glyph-name="Uogonek" unicode="&#x172;" horiz-adv-x="1466" 
d="M223 1434h41v-992q0 -104 64 -196.5t173 -148.5t232 -56t232 56t173 148.5t64 196.5v992h41v-985q0 -91 -41 -174t-109.5 -142.5t-160 -95.5t-189.5 -37q-133 -48 -133 -147q0 -43 24 -62.5t56 -19.5t82 12l12 -39q-38 -21 -67 -27q-67 -10 -115.5 20.5t-48.5 100.5
q0 55 32 98.5t87 65.5q-122 14 -224.5 76t-163.5 160t-61 211v985z" />
    <glyph glyph-name="uogonek" unicode="&#x173;" horiz-adv-x="1253" 
d="M184 1065h41v-619q0 -97 21 -171t66.5 -130t124 -85t188.5 -29q156 0 273.5 120t117.5 279v635h41v-1065h-2q-131 -51 -131 -147q0 -43 24 -62.5t56 -19.5t81 12l13 -39q-37 -21 -68 -27q-67 -10 -115.5 20.5t-48.5 100.5q0 64 43.5 111.5t114.5 68.5l-8 246
q-45 -123 -155.5 -198.5t-235.5 -75.5q-223 0 -332 113.5t-109 328.5v633z" />
    <glyph glyph-name="Wcircumflex" unicode="&#x174;" horiz-adv-x="1894" 
d="M793 1516h-45l176 192h39l176 -192h-45l-150 145zM78 1434h41l401 -1362h4l400 1362h45l399 -1362h4l402 1362h41l-426 -1434h-39l-404 1366l-403 -1366h-39z" />
    <glyph glyph-name="wcircumflex" unicode="&#x175;" horiz-adv-x="1556" 
d="M68 1065h41l335 -993h5l307 993h45l307 -993h4l336 993h41l-361 -1065h-38l-312 997l-311 -997h-39zM629 1188h-45l176 192h39l176 -192h-45l-150 145z" />
    <glyph glyph-name="Ycircumflex" unicode="&#x176;" horiz-adv-x="1171" 
d="M55 1434h47l191 -318l291 -485h4l286 481l195 322h45l-508 -842v-592h-41v592zM434 1516h-45l176 192h39l176 -192h-45l-149 145z" />
    <glyph glyph-name="ycircumflex" unicode="&#x177;" horiz-adv-x="1015" 
d="M59 1065h43l406 -1012h4l397 1012h45l-428 -1081q-56 -140 -93 -198q-86 -134 -204 -134q-66 0 -147 31l14 36q73 -26 127 -26q42 0 79.5 19.5t63 46.5t51.5 73t40.5 80.5t34.5 87.5zM365 1188h-46l177 192h39l176 -192h-45l-150 145z" />
    <glyph glyph-name="Ydieresis" unicode="&#x178;" horiz-adv-x="1171" 
d="M55 1434h47l191 -318l291 -485h4l286 481l195 322h45l-508 -842v-592h-41v592zM471 1571q0 -24 -16.5 -39.5t-44.5 -15.5q-25 0 -41.5 16t-16.5 39q0 25 17 42t41 17q29 0 45 -16t16 -43zM815 1571q0 -24 -16.5 -39.5t-44.5 -15.5q-25 0 -41.5 16t-16.5 39q0 25 17 42
t41 17q29 0 45 -16t16 -43z" />
    <glyph glyph-name="Zacute" unicode="&#x179;" horiz-adv-x="1241" 
d="M682 1788l63 -37l-147 -235h-25zM109 1434h1034v-50l-1002 -1343l2 -4l250 2h748v-39h-1055v37l1010 1354q0 1 -1 2t-1 2h-355h-630v39z" />
    <glyph glyph-name="zacute" unicode="&#x17a;" horiz-adv-x="1036" 
d="M561 1460l64 -37l-148 -235h-24zM106 1065h840v-33l-807 -993v-2l234 2h573v-39h-862v31l809 995v2l-281 -2h-506v39z" />
    <glyph glyph-name="Zdotaccent" unicode="&#x17b;" horiz-adv-x="1241" 
d="M680 1577q0 -27 -18 -44t-50 -17q-28 0 -45.5 17.5t-17.5 43.5q0 28 18.5 46.5t44.5 18.5q32 0 50 -17.5t18 -47.5zM109 1434h1034v-50l-1002 -1343l2 -4l250 2h748v-39h-1055v37l1010 1354q0 1 -1 2t-1 2h-355h-630v39z" />
    <glyph glyph-name="zdotaccent" unicode="&#x17c;" horiz-adv-x="1036" 
d="M580 1249q0 -27 -18 -44t-50 -17q-28 0 -45.5 17.5t-17.5 43.5q0 28 18.5 47t44.5 19q32 0 50 -18t18 -48zM106 1065h840v-33l-807 -993v-2l234 2h573v-39h-862v31l809 995v2l-281 -2h-506v39z" />
    <glyph glyph-name="Zcaron" unicode="&#x17d;" horiz-adv-x="1241" 
d="M444 1708h45l152 -145l150 145h45l-177 -192h-38zM109 1434h1034v-50l-1002 -1343l2 -4l250 2h748v-39h-1055v37l1010 1354q0 1 -1 2t-1 2h-355h-630v39z" />
    <glyph glyph-name="zcaron" unicode="&#x17e;" horiz-adv-x="1036" 
d="M334 1380h45l151 -145l150 145h45l-176 -192h-39zM106 1065h840v-33l-807 -993v-2l234 2h573v-39h-862v31l809 995v2l-281 -2h-506v39z" />
    <glyph glyph-name="AEacute" unicode="&#x1fc;" horiz-adv-x="1896" 
d="M1249 1788l64 -37l-148 -235h-24zM1778 0h-920v422h-549l-198 -422h-45l675 1434h996v-41h-838v-676h711v-41h-711v-635h879v-41zM858 1393h-96l-436 -930h532v930z" />
    <glyph glyph-name="aeacute" unicode="&#x1fd;" horiz-adv-x="2002" 
d="M1067 1460l63 -37l-147 -235h-25zM201 1022q191 53 366 53q190 0 282.5 -67.5t102.5 -227.5q65 132 188 213.5t273 81.5q108 0 201 -45.5t154 -120.5t95.5 -170t34.5 -194l-2 -31h-962q7 -131 70.5 -240t177.5 -176t256 -67q156 0 348 84l16 -33q-137 -60 -229 -79
q-67 -13 -131 -13q-173 0 -306.5 90t-195.5 233q-44 -153 -174 -238t-293 -85q-71 0 -134.5 17t-119 52.5t-88.5 99t-33 148.5q0 73 25.5 129t68 91.5t103 58.5t125 32t139.5 9q163 0 338 -39q2 30 14 88v69q0 161 -88 225t-262 64q-196 0 -350 -49zM893 532v15
q-191 39 -336 39q-66 0 -123.5 -7.5t-113 -27.5t-94.5 -50.5t-63 -80.5t-24 -115q0 -73 30 -128.5t80 -86t106.5 -45t117.5 -14.5q118 0 219 49t160 132t59 179q-18 67 -18 141zM934 553h921q0 69 -19 137.5t-57 130t-90 109.5t-123.5 76t-152.5 28q-128 0 -237.5 -67
t-173.5 -177.5t-68 -236.5z" />
    <glyph glyph-name="Oslashacute" unicode="&#x1fe;" horiz-adv-x="1734" 
d="M1384 1489l-108 -172q147 -100 233 -259t86 -343q0 -197 -97.5 -363.5t-266 -264t-367.5 -97.5q-196 0 -372 102l-97 -147h-45l109 168q-148 100 -234 258.5t-86 343.5q0 198 97.5 366t264.5 265.5t363 97.5q204 0 379 -107l98 152h43zM180 713q0 -175 80.5 -324.5
t218.5 -241.5l742 1156q-165 100 -357 100q-139 0 -265.5 -54.5t-218 -146.5t-146 -220t-54.5 -269zM1554 713q0 171 -81.5 321.5t-221.5 247.5l-741 -1155q158 -96 354 -96q141 0 269 54t220 145.5t146.5 217.5t54.5 265zM969 1788l63 -37l-147 -235h-25z" />
    <glyph glyph-name="oslashacute" unicode="&#x1ff;" horiz-adv-x="1329" 
d="M123 530q0 148 73 273.5t197.5 198.5t270.5 73q147 0 278 -78l84 133h45l-98 -153q107 -75 170 -193t63 -254q0 -110 -42.5 -209.5t-115 -172t-173 -115.5t-211.5 -43q-151 0 -275 76l-84 -132h-47l98 152q-108 75 -170.5 191.5t-62.5 252.5zM664 1034q-135 0 -250 -68
t-182.5 -184t-67.5 -252q0 -125 57 -232.5t156 -176.5l543 842q-120 71 -256 71zM1165 530q0 125 -58 234t-157 178l-538 -842q113 -69 252 -69q102 0 194.5 39.5t159.5 106.5t107 159.5t40 193.5zM756 1460l63 -37l-147 -235h-25z" />
    <glyph glyph-name="Scommaaccent" unicode="&#x218;" horiz-adv-x="1218" 
d="M586 -143q34 0 52.5 -30t18.5 -65q0 -49 -33 -88t-85 -65l-11 20q40 20 68.5 65.5t9.5 84.5q-15 -15 -35 -15q-18 0 -28.5 12.5t-10.5 30.5q0 21 17 35.5t37 14.5zM627 -10q-241 0 -488 110l19 37q21 -10 53.5 -22.5t98 -34t151.5 -35.5t170 -14q205 0 315.5 82.5
t110.5 238.5q0 74 -31 131t-83 92.5t-120 63t-143 48.5t-149.5 42.5t-142.5 51t-120 69t-83 101.5t-31 143q0 163 120.5 256.5t337.5 93.5q122 0 234.5 -27t181.5 -57l-16 -37q-21 9 -58.5 22.5t-142 35.5t-197.5 22q-89 0 -163.5 -18t-133 -53.5t-91.5 -95.5t-33 -138
q0 -75 31 -132.5t83.5 -93.5t120 -64t142.5 -49.5t150.5 -43.5t143 -51.5t120 -68.5t83.5 -100t31 -141q0 -173 -126 -268.5t-345 -95.5z" />
    <glyph glyph-name="scommaaccent" unicode="&#x219;" horiz-adv-x="972" 
d="M483 -143q34 0 53 -30t19 -65q0 -94 -119 -153l-10 20q40 20 68.5 65.5t9.5 84.5q-15 -15 -35 -15q-18 0 -28.5 12.5t-10.5 30.5q0 21 16.5 35.5t36.5 14.5zM496 -10q-179 0 -373 84l18 37q17 -10 60 -26.5t129 -35t168 -18.5q152 0 236.5 60t84.5 169q0 69 -38 117.5
t-98.5 75t-133.5 47t-146 42.5t-133.5 51.5t-98.5 84t-38 131.5q0 123 93 194.5t261 71.5q94 0 184 -20.5t140 -42.5l-18 -37q-16 7 -44.5 16.5t-109 26t-152.5 16.5q-139 0 -226 -56.5t-87 -166.5q0 -68 38 -116t98.5 -75t133.5 -47.5t146 -43t133.5 -52.5t98.5 -85
t38 -132q0 -126 -97 -198t-267 -72z" />
    <glyph glyph-name="circumflex" unicode="&#x2c6;" horiz-adv-x="710" 
d="M205 1307h-45l176 192h39l176 -192h-45l-150 145z" />
    <glyph glyph-name="caron" unicode="&#x2c7;" horiz-adv-x="710" 
d="M160 1499h45l151 -145l150 145h45l-176 -192h-39z" />
    <glyph glyph-name="breve" unicode="&#x2d8;" horiz-adv-x="759" 
d="M160 1499h30q27 -70 68.5 -103.5t122.5 -33.5t121.5 32t64.5 105h33q-18 -94 -67.5 -138t-151.5 -44q-104 0 -152.5 43t-68.5 139z" />
    <glyph glyph-name="dotaccent" unicode="&#x2d9;" horiz-adv-x="622" 
d="M295 1440q0 -27 -18.5 -44.5t-49.5 -17.5q-27 0 -45 18t-18 44q0 28 18.5 46.5t44.5 18.5q32 0 50 -17.5t18 -47.5z" />
    <glyph glyph-name="ring" unicode="&#x2da;" horiz-adv-x="634" 
d="M160 1348q0 62 46.5 105.5t110.5 43.5t111 -43.5t47 -105.5t-47 -106t-111 -44t-110.5 44t-46.5 106zM317 1466q-51 0 -90 -35.5t-39 -82.5t39 -83t90 -36q50 0 89.5 36t39.5 83t-39.5 82.5t-89.5 35.5z" />
    <glyph glyph-name="ogonek" unicode="&#x2db;" horiz-adv-x="514" 
d="M326 25l6 -25q-133 -48 -133 -147q0 -43 24 -62.5t56 -19.5q31 0 81 12l13 -39q-37 -21 -68 -27q-67 -10 -115.5 20.5t-48.5 100.5q0 69 51.5 119t133.5 68z" />
    <glyph glyph-name="tilde" unicode="&#x2dc;" horiz-adv-x="864" 
d="M166 1319l-27 18q35 58 86 81t107 9q27 -6 90 -39.5t119 -33.5q72 0 116 61l27 -18q-33 -57 -86.5 -80.5t-110.5 -9.5q-27 6 -90 39.5t-118 33.5q-39 0 -64 -15.5t-49 -45.5z" />
    <glyph glyph-name="hungarumlaut" unicode="&#x2dd;" horiz-adv-x="706" 
d="M268 1499l64 -37l-148 -235h-24zM473 1499l64 -37l-148 -235h-24z" />
    <glyph glyph-name="mu" unicode="&#x3bc;" horiz-adv-x="1273" 
d="M197 1065h43v-637q0 -170 107.5 -278.5t273.5 -108.5q202 0 307.5 99.5t105.5 297.5v627h43v-1065h-33l-10 217q-55 -110 -162 -163.5t-247 -53.5q-141 0 -246 63.5t-139 167.5v-579h-43v1413z" />
    <glyph glyph-name="Wgrave" unicode="&#x1e80;" horiz-adv-x="1894" 
d="M784 1751l64 37l108 -272h-24zM78 1434h41l401 -1362h4l400 1362h45l399 -1362h4l402 1362h41l-426 -1434h-39l-404 1366l-403 -1366h-39z" />
    <glyph glyph-name="wgrave" unicode="&#x1e81;" horiz-adv-x="1556" 
d="M68 1065h41l335 -993h5l307 993h45l307 -993h4l336 993h41l-361 -1065h-38l-312 997l-311 -997h-39zM616 1423l64 37l108 -272h-24z" />
    <glyph glyph-name="Wacute" unicode="&#x1e82;" horiz-adv-x="1894" 
d="M1051 1788l63 -37l-147 -235h-25zM78 1434h41l401 -1362h4l400 1362h45l399 -1362h4l402 1362h41l-426 -1434h-39l-404 1366l-403 -1366h-39z" />
    <glyph glyph-name="wacute" unicode="&#x1e83;" horiz-adv-x="1556" 
d="M68 1065h41l335 -993h5l307 993h45l307 -993h4l336 993h41l-361 -1065h-38l-312 997l-311 -997h-39zM883 1460l63 -37l-147 -235h-25z" />
    <glyph glyph-name="Wdieresis" unicode="&#x1e84;" horiz-adv-x="1894" 
d="M834 1571q0 -24 -16.5 -39.5t-45.5 -15.5q-25 0 -41 16t-16 39q0 25 17 42t40 17q29 0 45.5 -16t16.5 -43zM1178 1571q0 -24 -16.5 -39.5t-45.5 -15.5q-25 0 -41 16t-16 39q0 25 17 42t40 17q29 0 45.5 -16t16.5 -43zM78 1434h41l401 -1362h4l400 1362h45l399 -1362h4
l402 1362h41l-426 -1434h-39l-404 1366l-403 -1366h-39z" />
    <glyph glyph-name="wdieresis" unicode="&#x1e85;" horiz-adv-x="1556" 
d="M68 1065h41l335 -993h5l307 993h45l307 -993h4l336 993h41l-361 -1065h-38l-312 997l-311 -997h-39zM666 1243q0 -24 -16.5 -39.5t-45.5 -15.5q-25 0 -41 16t-16 39q0 25 17 42.5t40 17.5q29 0 45.5 -16.5t16.5 -43.5zM1010 1243q0 -24 -16.5 -39.5t-45.5 -15.5
q-25 0 -41 16t-16 39q0 25 17 42.5t40 17.5q29 0 45.5 -16.5t16.5 -43.5z" />
    <glyph glyph-name="germandbls.case" unicode="&#x1e9e;" horiz-adv-x="1495" 
d="M236 950q0 101 27.5 189.5t81.5 160t144 113t207 41.5q109 0 223.5 -40t196.5 -128l-287 -463q72 -10 130.5 -23.5t119 -35.5t105 -54t80.5 -75t54.5 -103.5t18.5 -134.5q0 -124 -67.5 -224.5t-178 -155t-239.5 -54.5q-168 0 -307 68l18 37q51 -27 132 -45.5t157 -18.5
q79 0 157 27t142.5 76t104.5 125t40 165q0 61 -14.5 112t-38 87.5t-61.5 66t-76.5 48.5t-92.5 34.5t-100 24.5t-108 18l-21 37l281 455q-54 60 -163.5 96.5t-205.5 36.5q-112 0 -195.5 -38t-131 -104.5t-70.5 -146.5t-23 -174v-950h-40v950z" />
    <glyph glyph-name="Ygrave" unicode="&#x1ef2;" horiz-adv-x="1171" 
d="M55 1434h47l191 -318l291 -485h4l286 481l195 322h45l-508 -842v-592h-41v592zM451 1751l63 37l109 -272h-25z" />
    <glyph glyph-name="ygrave" unicode="&#x1ef3;" horiz-adv-x="1015" 
d="M59 1065h43l406 -1012h4l397 1012h45l-428 -1081q-56 -140 -93 -198q-86 -134 -204 -134q-66 0 -147 31l14 36q73 -26 127 -26q42 0 79.5 19.5t63 46.5t51.5 73t40.5 80.5t34.5 87.5zM365 1423l63 37l109 -272h-25z" />
    <glyph glyph-name="endash" unicode="&#x2013;" horiz-adv-x="1456" 
d="M168 659h1120v-43h-1120v43z" />
    <glyph glyph-name="emdash" unicode="&#x2014;" horiz-adv-x="1456" 
d="M168 659h1120v-43h-1120v43z" />
    <glyph glyph-name="quoteleft" unicode="&#x2018;" horiz-adv-x="448" 
d="M227 1110q-39 0 -63.5 41t-24.5 88q0 62 48 116t114 85l8 -15q-44 -25 -77 -63t-45.5 -83t18.5 -85q1 3 3 7t13 11t27 7q27 0 37 -16.5t10 -35.5q0 -28 -22.5 -42.5t-45.5 -14.5z" />
    <glyph glyph-name="quoteright" unicode="&#x2019;" horiz-adv-x="452" 
d="M233 1440q39 0 64 -41t25 -88q0 -62 -48 -116t-114 -85l-8 14q44 25 77 63t45.5 83.5t-18.5 85.5q-1 -3 -3 -7t-13 -11t-27 -7q-27 0 -37 16.5t-10 34.5q0 28 22 43t45 15z" />
    <glyph glyph-name="quotesinglbase" unicode="&#x201a;" horiz-adv-x="456" 
d="M225 109q39 0 63.5 -41t24.5 -88q0 -62 -47.5 -116t-113.5 -85l-9 14q44 25 77.5 63t46 83.5t-18.5 85.5q-1 -3 -3 -7t-13 -11t-27 -7q-27 0 -37 16.5t-10 34.5q0 28 22 43t45 15z" />
    <glyph glyph-name="quotedblleft" unicode="&#x201c;" horiz-adv-x="724" 
d="M506 1112q-39 0 -63.5 41t-24.5 88q0 62 48 116t114 85l8 -15q-44 -25 -77.5 -63t-46 -83t18.5 -85q1 3 3 7t13 11t27 7q27 0 37 -16.5t10 -35.5q0 -28 -22 -42.5t-45 -14.5zM227 1112q-39 0 -63.5 41t-24.5 88q0 62 48 116t114 85l8 -15q-44 -25 -77 -63t-45.5 -83
t18.5 -85q1 3 3 7t13 11t27 7q27 0 37 -16.5t10 -35.5q0 -28 -22.5 -42.5t-45.5 -14.5z" />
    <glyph glyph-name="quotedblright" unicode="&#x201d;" horiz-adv-x="731" 
d="M233 1442q39 0 64 -41t25 -88q0 -62 -48 -116t-114 -85l-8 14q44 25 77 63t45.5 83.5t-18.5 85.5q-1 -3 -3 -7t-13 -11t-27 -7q-27 0 -37 16.5t-10 34.5q0 28 22 43t45 15zM512 1442q39 0 63.5 -41t24.5 -88q0 -62 -48 -116t-114 -85l-8 14q44 25 77.5 63t46 83.5
t-18.5 85.5q-1 -3 -3 -7t-13 -11t-27 -7q-27 0 -37.5 16.5t-10.5 34.5q0 28 22.5 43t45.5 15z" />
    <glyph glyph-name="quotedblbase" unicode="&#x201e;" horiz-adv-x="735" 
d="M225 109q39 0 63.5 -41t24.5 -88q0 -62 -47.5 -116t-113.5 -85l-9 14q44 25 77.5 63t46 83.5t-18.5 85.5q-1 -3 -3 -7t-13 -11t-27 -7q-27 0 -37 16.5t-10 34.5q0 28 22 43t45 15zM504 109q39 0 63.5 -41t24.5 -88q0 -62 -48 -116t-114 -85l-8 14q44 25 77 63t45.5 83.5
t-18.5 85.5q-1 -3 -3 -7t-13 -11t-27 -7q-27 0 -37 16.5t-10 34.5q0 28 22.5 43t45.5 15z" />
    <glyph glyph-name="dagger" unicode="&#x2020;" horiz-adv-x="940" 
d="M440 1434h60l-11 -1225h-38zM135 1085l252 -18v-39l-252 -14v71zM805 1085v-71l-252 14v39z" />
    <glyph glyph-name="daggerdbl" unicode="&#x2021;" horiz-adv-x="972" 
d="M457 1434h59l-10 -1434h-39zM821 1085v-71l-252 14v39zM152 1085l251 -18v-39l-251 -14v71zM821 489v-71l-252 14v39zM152 489l251 -18v-39l-251 -14v71z" />
    <glyph glyph-name="bullet" unicode="&#x2022;" horiz-adv-x="565" 
d="M283 842q50 0 84 -35t34 -86q0 -48 -34.5 -82.5t-83.5 -34.5q-50 0 -84.5 35t-34.5 86q0 48 35 82.5t84 34.5z" />
    <glyph glyph-name="ellipsis" unicode="&#x2026;" horiz-adv-x="1144" 
d="M231 127q28 0 47 -19t19 -47q0 -26 -19 -43.5t-47 -17.5q-26 0 -44.5 18t-18.5 43q0 28 18.5 47t44.5 19zM569 127q28 0 47 -19t19 -47q0 -26 -19 -43.5t-47 -17.5q-26 0 -44.5 18t-18.5 43q0 28 18.5 47t44.5 19zM911 127q28 0 47 -19t19 -47q0 -26 -19 -43.5t-47 -17.5
q-26 0 -44.5 18t-18.5 43q0 28 18.5 47t44.5 19z" />
    <glyph glyph-name="perthousand" unicode="&#x2030;" horiz-adv-x="2467" 
d="M436 748q-138 0 -224.5 99t-86.5 247q0 150 86.5 250t224.5 100q139 0 225.5 -100t86.5 -250q0 -149 -86.5 -247.5t-225.5 -98.5zM369 0l825 1434h55l-827 -1434h-53zM1192 -10q-139 0 -225 98.5t-86 247.5q0 150 86 250t225 100t225 -100t86 -250q0 -149 -86 -247.5
t-225 -98.5zM438 786q120 0 192 87t72 219q0 134 -74 223.5t-194 89.5q-119 0 -191.5 -88t-72.5 -221q0 -132 74.5 -221t193.5 -89zM1194 29q120 0 192 86.5t72 218.5q0 134 -74 223.5t-194 89.5q-121 0 -193.5 -88t-72.5 -221q0 -132 74.5 -220.5t195.5 -88.5zM2036 -10
q-139 0 -225.5 98.5t-86.5 247.5q0 150 86.5 250t225.5 100t225 -100t86 -250q0 -149 -86 -247.5t-225 -98.5zM2038 29q120 0 192 86.5t72 218.5q0 134 -74 223.5t-194 89.5q-121 0 -194 -88t-73 -221q0 -132 75 -220.5t196 -88.5z" />
    <glyph glyph-name="guilsinglleft" unicode="&#x2039;" horiz-adv-x="692" 
d="M530 983l23 -25l-365 -426l363 -428l-21 -22l-403 453z" />
    <glyph glyph-name="guilsinglright" unicode="&#x203a;" horiz-adv-x="692" 
d="M164 983l401 -448l-401 -453l-23 22l363 428l-365 426z" />
    <glyph glyph-name="fraction" unicode="&#x2044;" horiz-adv-x="782" 
d="M709 1434h45l-672 -1434h-49z" />
    <glyph glyph-name="Euro" unicode="&#x20ac;" horiz-adv-x="1656" 
d="M133 608h244q-8 47 -8 109q0 55 10 123h-246v41h254q38 160 140 288.5t249 201.5t311 73q203 0 414 -98l-16 -35q-21 10 -57 25.5t-139 41t-195 25.5q-237 0 -422.5 -147t-241.5 -375h596v-41h-606q-10 -68 -10 -123q0 -39 8 -109h608v-41h-600q51 -233 238 -384.5
t430 -151.5q92 0 190 23t150 46l51 23l16 -35q-211 -98 -414 -98q-252 0 -451.5 164t-252.5 413h-250v41z" />
    <glyph glyph-name="trademark" unicode="&#x2122;" horiz-adv-x="1587" 
d="M166 1434h465v-39h-211v-580h-39v580h-215v39zM817 1434h47l236 -408l241 408h33v-619h-35v545l-225 -393h-24l-238 419v-571h-35v619z" />
    <glyph glyph-name="commaaccent" unicode="&#xf6c3;" horiz-adv-x="448" 
d="M307 -139q34 0 53 -29.5t19 -64.5q0 -49 -33.5 -88.5t-85.5 -65.5l-10 20q40 20 68.5 65.5t9.5 84.5q-14 -14 -35 -14q-18 0 -28.5 12.5t-10.5 30.5q0 21 16.5 35t36.5 14z" />
    <glyph glyph-name="CR" horiz-adv-x="573" 
 />
    <glyph glyph-name="a.alt" horiz-adv-x="1306" 
d="M631 1034q-130 0 -237.5 -70.5t-167.5 -187.5t-60 -252q0 -134 59 -247t165 -179.5t235 -66.5q193 0 320.5 139.5t127.5 355.5q0 139 -54.5 254.5t-156.5 184.5t-231 69zM627 1075q147 0 264.5 -84t177.5 -235l10 309h31v-1065h-41v305q-49 -139 -169 -227t-279 -88
q-143 0 -258 74.5t-176.5 196.5t-61.5 265q0 148 66 274t181.5 200.5t254.5 74.5z" />
    <glyph glyph-name="g.alt" horiz-adv-x="1282" 
d="M182 -256l17 35q168 -86 370 -86q210 0 342.5 112.5t132.5 321.5v231q-57 -130 -171.5 -202t-280.5 -72q-202 0 -334.5 144.5t-132.5 351.5q0 135 59 248t166.5 180t241.5 67q165 0 280 -72.5t172 -201.5l19 264h22v-930q0 -234 -137 -358.5t-373 -124.5
q-104 0 -208.5 24.5t-184.5 67.5zM598 125q211 0 332 128.5t121 326.5t-121 326t-332 128q-184 0 -308 -131.5t-124 -322.5t124 -323t308 -132z" />
    <glyph glyph-name="f_b" horiz-adv-x="1931" 
d="M842 1167v-405q56 138 182.5 225.5t278.5 87.5q147 0 263 -72.5t178 -196t62 -274.5t-62 -274t-178 -195.5t-263 -72.5q-163 0 -286 88t-175 233l-11 -311h-30v1174q0 153 -75 237t-204 84q-128 0 -198 -87t-70 -232v-111h307v-41h-307v-1024h-41v1024h-125v31l125 10
v111q0 173 86.5 266.5t224.5 93.5q139 0 228.5 -97.5t89.5 -271.5zM1300 1034q-192 0 -326 -143.5t-134 -358.5q0 -137 57.5 -251.5t163.5 -182t239 -67.5q132 0 238.5 66.5t166.5 181t60 253.5t-60 254t-166.5 181.5t-238.5 66.5z" />
    <glyph glyph-name="f_f_b" horiz-adv-x="2449" 
d="M1360 1167v-405q56 138 182.5 225.5t278.5 87.5q147 0 263 -72.5t178 -196t62 -274.5t-62 -274t-178 -195.5t-263 -72.5q-163 0 -286 88t-175 233l-10 -311h-31v1174q0 153 -75 237t-204 84q-128 0 -198 -87t-70 -232v-111h307v-41h-307v-1024h-41v1024h-477v-1024h-41
v1024h-125v31l125 10v149q0 65 10 113.5t35.5 94t78.5 70t132 24.5q47 0 133 -21l-10 -35q-61 15 -123 15q-56 0 -97 -17t-63 -42t-35 -62t-16.5 -67t-3.5 -68v-154h477v111q0 173 86.5 266.5t224.5 93.5q139 0 228.5 -97.5t89.5 -271.5zM1819 1034q-192 0 -326.5 -143.5
t-134.5 -358.5q0 -137 58 -251.5t164 -182t239 -67.5q132 0 238.5 66.5t166.5 181t60 253.5t-60 254t-166.5 181.5t-238.5 66.5z" />
    <glyph glyph-name="f_h" horiz-adv-x="1857" 
d="M801 1174q0 153 -75 237t-204 84q-128 0 -198 -87t-70 -232v-111h307v-41h-307v-1024h-41v1024h-125v31l125 10v111q0 173 86.5 266.5t224.5 93.5q139 0 228.5 -97.5t89.5 -271.5v-407q7 30 26 68t55.5 82.5t83 80.5t115 60t144.5 24q205 0 306 -125t101 -338v-612h-41
v618q0 193 -92 304.5t-270 111.5q-86 0 -159 -29t-121.5 -75t-82.5 -105.5t-49.5 -119.5t-15.5 -117v-588h-41v1174z" />
    <glyph glyph-name="f_f_h" horiz-adv-x="2375" 
d="M1319 1174q0 153 -75 237t-204 84q-128 0 -198 -87t-70 -232v-111h307v-41h-307v-1024h-41v1024h-477v-1024h-41v1024h-125v31l125 10v149q0 65 10 113.5t35.5 94t78.5 70t132 24.5q28 0 68 -7q44 -8 65 -14l-10 -35q-61 15 -123 15q-48 0 -85.5 -11t-60 -32.5
t-37.5 -44.5t-21.5 -55t-8.5 -56.5t-2 -56.5v-154h477v111q0 173 86.5 266.5t224.5 93.5q139 0 228.5 -97.5t89.5 -271.5v-407q7 30 26 68t55.5 82.5t83 80.5t115 60t144.5 24q205 0 306 -125t101 -338v-612h-41v618q0 193 -92 304.5t-270 111.5q-86 0 -159 -29t-121.5 -75
t-82.5 -105.5t-49.5 -119.5t-15.5 -117v-588h-41v1174z" />
    <glyph glyph-name="f_k" horiz-adv-x="1556" 
d="M842 1167v-768l585 666h56l-430 -485l444 -580h-51l-420 549l-184 -211v-338h-41v1174q0 151 -75.5 236t-203.5 85t-198 -86t-70 -233v-111h307v-41h-307v-1024h-41v1024h-125v31l125 10v111q0 173 86.5 266.5t224.5 93.5q139 0 228.5 -97.5t89.5 -271.5z" />
    <glyph glyph-name="f_f_k" horiz-adv-x="2043" 
d="M1329 0h-41v1174q0 153 -74.5 237t-203.5 84t-199 -84t-70 -235v-111h308v-41h-308v-1024h-41v1024h-446v-1024h-41v1024h-125v31l125 10v149q0 65 10 113.5t35.5 94t78.5 70t132 24.5q28 0 68 -7q44 -8 65 -14l-10 -35q-61 15 -123 15q-56 0 -97 -17t-63 -42t-35 -62
t-16.5 -67t-3.5 -68v-154h446v111q0 172 87 266t225 94q140 0 228.5 -96.5t88.5 -272.5v-768l297 338l289 328h55l-430 -485l445 -580h-52l-420 549l-184 -211v-338z" />
    <glyph glyph-name="dollar.tnum" 
d="M733 -156h-43v146q-102 4 -212 29t-162 44.5t-89 36.5l19 37q20 -10 54 -22.5t100.5 -34t154.5 -35.5t174 -14q208 0 321 82.5t113 238.5q0 74 -31.5 131t-85 92.5t-122.5 63t-145.5 48.5t-152.5 42.5t-145 51t-122.5 69t-85 101.5t-31.5 143q0 158 117.5 252t330.5 98
v162h43v-162q202 -5 402 -84l-19 -37q-21 9 -58.5 22.5t-144 35.5t-202.5 22q-91 0 -167 -18t-136 -53.5t-93.5 -95.5t-33.5 -138q0 -95 51 -162t132.5 -104t179.5 -66t196.5 -58.5t180 -69.5t132.5 -111.5t51 -172.5q0 -171 -126.5 -266.5t-344.5 -97.5v-146z" />
    <glyph glyph-name="percent.tnum" 
d="M344 748q-132 0 -215.5 99t-83.5 247v4q0 147 83.5 246.5t215.5 99.5q134 0 216.5 -99t82.5 -247v-4q0 -149 -82.5 -247.5t-216.5 -98.5zM279 0l792 1434h55l-794 -1434h-53zM1071 -10q-134 0 -216.5 98.5t-82.5 247.5v4q0 148 82.5 247t216.5 99q133 0 216 -99.5
t83 -246.5v-4q0 -149 -83 -247.5t-216 -98.5zM346 786q116 0 185 87t69 219v4q0 131 -71 220t-187 89q-113 0 -182.5 -87.5t-69.5 -217.5v-4q0 -132 71.5 -221t184.5 -89zM1073 29q115 0 183.5 86.5t68.5 218.5v4q0 131 -71 220t-185 89q-116 0 -185 -87t-69 -218v-4
q0 -132 71 -220.5t187 -88.5z" />
    <glyph glyph-name="plus.tnum" 
d="M684 1024h45v-365h404v-43h-404v-364h-45v364h-403v43h403v365z" />
    <glyph glyph-name="hyphen.tnum" 
d="M311 659h791v-43h-791v43z" />
    <glyph glyph-name="zero.tnum" 
d="M705 -10q-128 0 -234.5 59t-175.5 159t-107 231t-38 278q0 146 37.5 277t107 231.5t176 159.5t236.5 59q129 0 235.5 -58.5t176 -159t107.5 -231t38 -276.5q0 -147 -38 -278.5t-107.5 -232t-176.5 -159.5t-237 -59zM709 31q119 0 217.5 56t162 150.5t98 217.5t34.5 260
q0 136 -35 259.5t-99 219.5t-163 152.5t-219 56.5q-119 0 -217.5 -55.5t-162 -150.5t-98 -218.5t-34.5 -261.5q0 -135 35 -258t99 -219t163 -152.5t219 -56.5z" />
    <glyph glyph-name="one.tnum" 
d="M371 0v43h366v1337l-2 2l-295 -114l-20 32l321 134h39v-1391h387v-43h-796z" />
    <glyph glyph-name="two.tnum" 
d="M270 1335q65 39 169.5 74t203.5 35q130 0 236 -48t168.5 -139t62.5 -208q0 -66 -27 -138.5t-63 -128.5t-88 -116.5t-85.5 -93.5t-71.5 -68q-3 -3 -5 -4.5t-4 -3.5l-502 -455h889v-41h-954v35l536 489q334 306 334 523q0 162 -121.5 259t-312.5 97q-90 0 -188 -30.5
t-160 -65.5z" />
    <glyph glyph-name="three.tnum" 
d="M307 1350l-12 32q186 62 358 62q111 0 208.5 -38t161.5 -116t64 -180q0 -84 -47.5 -154.5t-118 -111.5t-149.5 -53q168 -30 275.5 -138.5t107.5 -259.5q0 -119 -73 -212.5t-190.5 -142t-254.5 -48.5q-108 0 -215 27.5t-182 64.5l16 31q69 -32 172.5 -57t206.5 -25
q118 0 226 42.5t180.5 127.5t72.5 194t-73 198.5t-183.5 137t-228.5 47.5h-119v29h152q89 0 174.5 34t146.5 105.5t61 163.5q0 94 -59.5 162.5t-148.5 99.5t-193 31q-158 0 -336 -53z" />
    <glyph glyph-name="four.tnum" 
d="M997 1434h29v-1002h205v-41h-205v-391h-41v391h-831v39zM985 1356l-784 -924h784v924z" />
    <glyph glyph-name="five.tnum" 
d="M1110 1434v-39h-692l-80 -590q174 102 344 102q138 0 256 -60t187 -163.5t69 -226.5q0 -129 -76 -237t-201 -169t-266 -61q-87 0 -173.5 17.5t-135 35.5t-109.5 45l17 31q192 -88 399 -88q137 0 254 60.5t183.5 159.5t66.5 210q0 109 -64.5 203t-174 149t-236.5 55
q-183 0 -354 -120l-33 16l90 670h729z" />
    <glyph glyph-name="six.tnum" 
d="M1151 1370l-14 -35q-172 68 -336 68q-67 0 -127.5 -14.5t-122 -50t-111 -91t-90 -142.5t-61.5 -198q-23 -117 -23 -366h2q26 105 98 184.5t168 119.5t201 40q126 0 234 -52t176.5 -154.5t68.5 -234.5q0 -87 -31 -167t-89 -144.5t-150 -103.5t-205 -39q-139 0 -258 71.5
t-180 194.5q-76 149 -76 406q0 70 5.5 137t22 147.5t42.5 148.5t71 134t103.5 112.5t144 74.5t189.5 28q166 0 348 -74zM735 844q-80 0 -159 -30t-141.5 -82t-101 -128t-38.5 -162q0 -103 58.5 -197.5t162 -154t223.5 -59.5q191 0 313 121t122 290q0 117 -62.5 210.5
t-162.5 142.5t-214 49z" />
    <glyph glyph-name="seven.tnum" 
d="M223 1434h996v-35l-701 -1399h-43l699 1395h-951v39z" />
    <glyph glyph-name="eight.tnum" 
d="M711 1444q106 0 195.5 -40.5t144.5 -119t55 -178.5q0 -119 -72 -205t-194 -117q152 -30 253 -138.5t101 -256.5q0 -119 -68 -211.5t-177.5 -140t-237.5 -47.5t-237.5 47.5t-178 140t-68.5 211.5q0 148 101.5 256.5t253.5 138.5q-123 31 -195 117t-72 205q0 100 55 178.5
t145 119t196 40.5zM270 389q0 -149 122.5 -253.5t318.5 -104.5t318 104.5t122 253.5q0 73 -31 140t-87 118t-139.5 81.5t-182.5 31.5q-99 -1 -182.5 -31.5t-139.5 -81.5t-87.5 -118t-31.5 -140zM711 1403q-92 0 -171 -33.5t-130.5 -103t-51.5 -162.5q0 -130 96.5 -214.5
t256.5 -84.5t256 84.5t96 214.5q0 93 -51 162.5t-130 103t-171 33.5z" />
    <glyph glyph-name="nine.tnum" 
d="M197 68l14 32q177 -69 344 -69q88 0 160 25.5t122.5 69t88.5 109t60.5 137t36.5 162t19 175.5t5 186h-3q-36 -158 -166 -252t-292 -94q-121 0 -223 53t-165 154t-63 229q0 91 31.5 173t91 146t152 102t206.5 38q224 0 346.5 -161.5t122.5 -457.5q0 -89 -6 -169
t-21.5 -166t-40 -157t-65 -136t-93.5 -109.5t-127.5 -71t-164.5 -26.5q-171 0 -370 78zM584 590q111 0 210 49.5t161.5 143t62.5 210.5q0 164 -112 287t-283 123q-209 0 -328 -121t-119 -297q0 -175 120 -285t288 -110z" />
    <glyph glyph-name="equal.tnum" 
d="M330 831h753v-43h-753v43zM330 522h753v-43h-753v43z" />
    <glyph glyph-name="cent.tnum" 
d="M829 1212v-137q164 0 308 -61l-17 -35q-16 6 -44 15t-104.5 24.5t-140.5 15.5q-148 0 -271.5 -63.5t-197 -179.5t-73.5 -259t73.5 -258.5t197 -179t271.5 -63.5q64 0 136.5 13.5t112.5 27.5l40 14l17 -35q-66 -29 -155.5 -45t-145.5 -16h-7v-158h-41v160
q-149 8 -271.5 77t-195.5 190.5t-73 272.5q0 113 42.5 212t116 168.5t172 111.5t209.5 49v139h41z" />
    <glyph glyph-name="sterling.tnum" 
d="M1110 1284l-35 -24q-53 67 -130.5 105t-166.5 38q-159 0 -269 -104.5t-110 -262.5v-338h596v-41h-596v-407q0 -40 -10.5 -76t-24 -58t-31.5 -41t-26.5 -25.5t-15.5 -10.5h897v-39h-957v39q5 2 13.5 7t30.5 24t39 41t30.5 59.5t13.5 79.5v407h-127v41h127v338
q0 175 122.5 291.5t297.5 116.5q97 0 183.5 -43t148.5 -117z" />
    <glyph glyph-name="yen.tnum" 
d="M160 1434h47l215 -344l86 -140l197 -319h6l198 321l299 482h45l-524 -842v-72h303v-41h-303v-119h303v-41h-303v-319h-43v319h-307v41h307v119h-307v41h307v72z" />
    <glyph glyph-name="multiply.tnum" 
d="M422 932l283 -240l286 244l29 -33l-281 -241l281 -236l-31 -35l-284 242l-285 -244l-29 33l281 240l-279 237z" />
    <glyph glyph-name="divide.tnum" 
d="M709 1018q28 0 48.5 -20.5t20.5 -49.5t-20.5 -49t-48.5 -20q-31 0 -52.5 18.5t-21.5 50.5q0 29 21.5 49.5t52.5 20.5zM281 659h852v-43h-852v43zM709 399q28 0 48.5 -20t20.5 -49t-20.5 -49.5t-48.5 -20.5q-31 0 -52.5 19t-21.5 51q0 29 21.5 49t52.5 20z" />
    <glyph glyph-name="Euro.tnum" 
d="M1341 1331l-22 -35q-175 107 -379 107q-224 0 -390.5 -145.5t-221.5 -376.5h567v-41h-578q-8 -55 -8 -121q0 -59 6 -111h580v-41h-571q50 -236 218.5 -386t397.5 -150q206 0 379 106l22 -35q-86 -54 -190.5 -83t-206.5 -29q-246 0 -428 160t-235 417h-238v41h231
q-6 52 -6 111q0 66 8 121h-233v41h242q57 251 237.5 407t421.5 156q102 0 206.5 -29t190.5 -84z" />
    <glyph glyph-name="agrave.alt" horiz-adv-x="1306" 
d="M487 1423l64 37l108 -272h-24zM631 1034q-130 0 -237.5 -70.5t-167.5 -187.5t-60 -252q0 -134 59 -247t165 -179.5t235 -66.5q193 0 320.5 139.5t127.5 355.5q0 139 -54.5 254.5t-156.5 184.5t-231 69zM627 1075q147 0 264.5 -84t177.5 -235l10 309h31v-1065h-41v305
q-49 -139 -169 -227t-279 -88q-143 0 -258 74.5t-176.5 196.5t-61.5 265q0 148 66 274t181.5 200.5t254.5 74.5z" />
    <glyph glyph-name="acircumflex.alt" horiz-adv-x="1306" 
d="M479 1188h-45l176 192h39l176 -192h-45l-149 145zM631 1034q-130 0 -237.5 -70.5t-167.5 -187.5t-60 -252q0 -134 59 -247t165 -179.5t235 -66.5q193 0 320.5 139.5t127.5 355.5q0 139 -54.5 254.5t-156.5 184.5t-231 69zM627 1075q147 0 264.5 -84t177.5 -235l10 309h31
v-1065h-41v305q-49 -139 -169 -227t-279 -88q-143 0 -258 74.5t-176.5 196.5t-61.5 265q0 148 66 274t181.5 200.5t254.5 74.5z" />
    <glyph glyph-name="aacute.alt" horiz-adv-x="1306" 
d="M707 1460l63 -37l-147 -235h-25zM631 1034q-130 0 -237.5 -70.5t-167.5 -187.5t-60 -252q0 -134 59 -247t165 -179.5t235 -66.5q193 0 320.5 139.5t127.5 355.5q0 139 -54.5 254.5t-156.5 184.5t-231 69zM627 1075q147 0 264.5 -84t177.5 -235l10 309h31v-1065h-41v305
q-49 -139 -169 -227t-279 -88q-143 0 -258 74.5t-176.5 196.5t-61.5 265q0 148 66 274t181.5 200.5t254.5 74.5z" />
    <glyph glyph-name="adieresis.alt" horiz-adv-x="1306" 
d="M514 1243q0 -24 -16.5 -39.5t-44.5 -15.5q-25 0 -41.5 16t-16.5 39q0 25 17.5 42.5t40.5 17.5q29 0 45 -16.5t16 -43.5zM858 1243q0 -24 -16.5 -39.5t-44.5 -15.5q-25 0 -41.5 16t-16.5 39q0 25 17.5 42.5t40.5 17.5q29 0 45 -16.5t16 -43.5zM631 1034
q-130 0 -237.5 -70.5t-167.5 -187.5t-60 -252q0 -134 59 -247t165 -179.5t235 -66.5q193 0 320.5 139.5t127.5 355.5q0 139 -54.5 254.5t-156.5 184.5t-231 69zM627 1075q147 0 264.5 -84t177.5 -235l10 309h31v-1065h-41v305q-49 -139 -169 -227t-279 -88q-143 0 -258 74.5
t-176.5 196.5t-61.5 265q0 148 66 274t181.5 200.5t254.5 74.5z" />
    <glyph glyph-name="aring.alt" horiz-adv-x="1306" 
d="M469 1339q0 62 47 106t111 44t110.5 -44t46.5 -106t-46.5 -105.5t-110.5 -43.5t-111 43.5t-47 105.5zM627 1458q-51 0 -90 -36t-39 -83t39 -82.5t90 -35.5q50 0 89.5 35.5t39.5 82.5t-39.5 83t-89.5 36zM631 1034q-130 0 -237.5 -70.5t-167.5 -187.5t-60 -252
q0 -134 59 -247t165 -179.5t235 -66.5q193 0 320.5 139.5t127.5 355.5q0 139 -54.5 254.5t-156.5 184.5t-231 69zM627 1075q147 0 264.5 -84t177.5 -235l10 309h31v-1065h-41v305q-49 -139 -169 -227t-279 -88q-143 0 -258 74.5t-176.5 196.5t-61.5 265q0 148 66 274
t181.5 200.5t254.5 74.5z" />
    <glyph glyph-name="aogonek.alt" horiz-adv-x="1345" 
d="M627 1075q147 0 264.5 -84t177.5 -235l10 309h31v-1065q-135 -57 -135 -147q0 -43 24 -62.5t56 -19.5q33 0 82 12l12 -39q-37 -21 -68 -27q-39 -6 -80 4q-83 24 -83 117q0 116 151 164v303q-49 -139 -169 -227t-279 -88q-143 0 -258 74.5t-176.5 196.5t-61.5 265
q0 148 66 274t181.5 200.5t254.5 74.5zM631 1034q-130 0 -237.5 -70.5t-167.5 -187.5t-60 -252q0 -134 59 -247t165 -179.5t235 -66.5q193 0 320.5 139.5t127.5 355.5q0 139 -54.5 254.5t-156.5 184.5t-231 69z" />
    <glyph glyph-name="amacron.alt" horiz-adv-x="1306" 
d="M326 1229h583v-41h-583v41zM631 1034q-130 0 -237.5 -70.5t-167.5 -187.5t-60 -252q0 -134 59 -247t165 -179.5t235 -66.5q193 0 320.5 139.5t127.5 355.5q0 139 -54.5 254.5t-156.5 184.5t-231 69zM627 1075q147 0 264.5 -84t177.5 -235l10 309h31v-1065h-41v305
q-49 -139 -169 -227t-279 -88q-143 0 -258 74.5t-176.5 196.5t-61.5 265q0 148 66 274t181.5 200.5t254.5 74.5z" />
    <glyph glyph-name="atilde.alt" horiz-adv-x="1306" 
d="M371 1206l-27 19q59 96 154 96q43 0 120.5 -40t126.5 -40q73 0 117 62l27 -19q-27 -46 -68 -71t-86 -25q-44 0 -123.5 40t-128.5 40q-39 0 -63 -15.5t-49 -46.5zM631 1034q-130 0 -237.5 -70.5t-167.5 -187.5t-60 -252q0 -134 59 -247t165 -179.5t235 -66.5
q193 0 320.5 139.5t127.5 355.5q0 139 -54.5 254.5t-156.5 184.5t-231 69zM627 1075q147 0 264.5 -84t177.5 -235l10 309h31v-1065h-41v305q-49 -139 -169 -227t-279 -88q-143 0 -258 74.5t-176.5 196.5t-61.5 265q0 148 66 274t181.5 200.5t254.5 74.5z" />
    <glyph glyph-name="abreve.alt" horiz-adv-x="1306" 
d="M401 1370h31q27 -70 68.5 -103.5t122.5 -33.5t121.5 32t64.5 105h33q-18 -94 -67.5 -138t-151.5 -44q-104 0 -153.5 43t-68.5 139zM631 1034q-130 0 -237.5 -70.5t-167.5 -187.5t-60 -252q0 -134 59 -247t165 -179.5t235 -66.5q193 0 320.5 139.5t127.5 355.5
q0 139 -54.5 254.5t-156.5 184.5t-231 69zM627 1075q147 0 264.5 -84t177.5 -235l10 309h31v-1065h-41v305q-49 -139 -169 -227t-279 -88q-143 0 -258 74.5t-176.5 196.5t-61.5 265q0 148 66 274t181.5 200.5t254.5 74.5z" />
    <glyph glyph-name="gbreve.alt" horiz-adv-x="1261" 
d="M375 1370h31q27 -71 68 -104t122 -33t121.5 32t64.5 105h33q-18 -94 -67.5 -138t-151.5 -44q-104 0 -152.5 43t-68.5 139zM182 -256l17 35q168 -86 370 -86q210 0 342.5 112.5t132.5 321.5v231q-57 -130 -171.5 -202t-280.5 -72q-202 0 -334.5 144.5t-132.5 351.5
q0 135 59 248t166.5 180t241.5 67q165 0 280 -72.5t172 -201.5l19 264h22v-930q0 -234 -137 -358.5t-373 -124.5q-104 0 -208.5 24.5t-184.5 67.5zM598 125q211 0 332 128.5t121 326.5t-121 326t-332 128q-184 0 -308 -131.5t-124 -322.5t124 -323t308 -132z" />
    <glyph glyph-name="gcircumflex.alt" horiz-adv-x="1261" 
d="M442 1188h-45l176 192h39l176 -192h-45l-149 145zM182 -256l17 35q168 -86 370 -86q210 0 342.5 112.5t132.5 321.5v231q-57 -130 -171.5 -202t-280.5 -72q-202 0 -334.5 144.5t-132.5 351.5q0 135 59 248t166.5 180t241.5 67q165 0 280 -72.5t172 -201.5l19 264h22v-930
q0 -234 -137 -358.5t-373 -124.5q-104 0 -208.5 24.5t-184.5 67.5zM598 125q211 0 332 128.5t121 326.5t-121 326t-332 128q-184 0 -308 -131.5t-124 -322.5t124 -323t308 -132z" />
    <glyph glyph-name="gcommaaccent.alt" horiz-adv-x="1261" 
d="M584 1188q-34 0 -53 29.5t-19 64.5q0 49 33.5 88.5t85.5 65.5l10 -21q-40 -20 -68.5 -65t-9.5 -84q14 14 35 14q18 0 28.5 -12.5t10.5 -30.5q0 -21 -16.5 -35t-36.5 -14zM182 -256l17 35q168 -86 370 -86q210 0 342.5 112.5t132.5 321.5v231q-57 -130 -171.5 -202
t-280.5 -72q-202 0 -334.5 144.5t-132.5 351.5q0 135 59 248t166.5 180t241.5 67q165 0 280 -72.5t172 -201.5l19 264h22v-930q0 -234 -137 -358.5t-373 -124.5q-104 0 -208.5 24.5t-184.5 67.5zM598 125q211 0 332 128.5t121 326.5t-121 326t-332 128q-184 0 -308 -131.5
t-124 -322.5t124 -323t308 -132z" />
    <glyph glyph-name="gdotaccent.alt" horiz-adv-x="1261" 
d="M666 1249q0 -27 -18 -44t-50 -17q-28 0 -45.5 17.5t-17.5 43.5q0 28 18.5 47t44.5 19q32 0 50 -18t18 -48zM182 -256l17 35q168 -86 370 -86q210 0 342.5 112.5t132.5 321.5v231q-57 -130 -171.5 -202t-280.5 -72q-202 0 -334.5 144.5t-132.5 351.5q0 135 59 248
t166.5 180t241.5 67q165 0 280 -72.5t172 -201.5l19 264h22v-930q0 -234 -137 -358.5t-373 -124.5q-104 0 -208.5 24.5t-184.5 67.5zM598 125q211 0 332 128.5t121 326.5t-121 326t-332 128q-184 0 -308 -131.5t-124 -322.5t124 -323t308 -132z" />
    <glyph glyph-name="apple" horiz-adv-x="2304" 
d="M1006 1008v-394h-9v394h9zM90 981h37v-63h51v-35h-51v-115q0 -33 29 -33q4 0 12.5 1t13.5 1l8 -32q-27 -9 -40 -9q-37 0 -52.5 18.5t-15.5 57.5v111h-31v28l31 7zM201 918h47l63 -173l62 173h49l-92 -232q-13 -32 -28 -46.5t-40 -14.5q-22 0 -43 6l8 41q12 -4 25 -4
q21 0 35 28zM678 807q0 -48 -29 -81.5t-78 -33.5q-48 0 -69 31v-98h-47v293h37l6 -33q22 37 73 37q47 0 77 -32.5t30 -82.5zM498 807q0 -33 18.5 -53.5t48.5 -20.5q28 0 47 21t19 53t-19 53t-47 21q-30 0 -48.5 -20.5t-18.5 -53.5zM819 922q48 0 75.5 -33.5t27.5 -79.5
l-2 -21h-162q3 -28 22 -42.5t47 -14.5q24 0 66 14l14 -32q-35 -21 -82 -21q-50 0 -82 32t-32 81q0 51 30.5 84t77.5 33zM758 823h121q-2 25 -15.5 41.5t-40.5 16.5q-26 0 -43 -15.5t-22 -42.5zM1260 1008h20v-312h-16l-2 52q-12 -26 -36.5 -41t-51.5 -15q-46 0 -77.5 34
t-31.5 81q0 46 30.5 79.5t78.5 33.5q61 0 86 -52v140zM1087 807q0 -40 25.5 -68t63.5 -28q36 0 61 28t25 68q0 39 -25 66.5t-61 27.5q-38 0 -63.5 -27t-25.5 -67zM1448 920q45 0 73.5 -33t28.5 -78l-2 -10h-186q2 -37 28 -61.5t64 -24.5q33 0 70 16l8 -16q-42 -21 -78 -21
q-50 0 -82.5 34t-32.5 81q0 46 32 79.5t77 33.5zM1362 815h166q0 32 -21 59t-57 27q-35 0 -60.5 -25.5t-27.5 -60.5zM1821 807q0 -47 -30.5 -81t-76.5 -34q-28 0 -52.5 14t-33.5 39v-120h-22v293h16l4 -52q11 26 36 40t52 14q45 0 76 -33.5t31 -79.5zM1626 807
q0 -41 24.5 -67.5t61.5 -26.5t62.5 27t25.5 67t-25.5 67t-62.5 27t-61.5 -27t-24.5 -67zM1978 920q48 0 81.5 -32t33.5 -81q0 -47 -34 -81t-81 -34q-46 0 -78 34t-32 81t32 80t78 33zM1888 807q0 -39 26 -66.5t64 -27.5q40 0 67.5 27.5t27.5 66.5q0 40 -27.5 67t-67.5 27
q-38 0 -64 -27t-26 -67zM2165 981h16v-63h62v-19h-62v-133q0 -51 39 -51q21 0 31 4l2 -17q-12 -6 -35 -6q-32 0 -44.5 18t-12.5 54v131h-33v16l33 3z" />
    </font>
</defs>
</svg>
